<?xml version="1.0" encoding="UTF-8" standalone="no"?>
<!DOCTYPE svg PUBLIC "-//W3C//DTD SVG 1.1//EN"
 "http://www.w3.org/Graphics/SVG/1.1/DTD/svg11.dtd">
<!-- Generated by graphviz version 2.38.0 (20140413.2041)
 -->
<!-- Title: commonworkflow Pages: 1 -->
<svg width="484pt" height="402pt"
 viewBox="0.00 0.00 483.50 402.00" xmlns="http://www.w3.org/2000/svg" xmlns:xlink="http://www.w3.org/1999/xlink">
<g id="graph0" class="graph" transform="scale(1 1) rotate(0) translate(4 398)">
<title>commonworkflow</title>
<polygon fill="white" stroke="none" points="-4,4 -4,-398 479.5,-398 479.5,4 -4,4"/>
<!-- common -->
<g id="node1" class="node"><title>common</title>
<polygon fill="lightyellow" stroke="black" points="247.946,-370.438 354.5,-358 461.054,-370.438 460.955,-390.562 248.045,-390.562 247.946,-370.438"/>
<text text-anchor="start" x="292.5" y="-373.9" font-family="Verdana" font-weight="bold" font-size="12.00">Common workflow</text>
</g>
<!-- git_add -->
<g id="node3" class="node"><title>git_add</title>
<polygon fill="lightyellow" stroke="black" points="475.5,-321 233.5,-321 233.5,-279 475.5,-279 475.5,-321"/>
<text text-anchor="start" x="243.5" y="-306.4" font-family="Verdana" font-weight="bold" font-size="12.00">Put the changes into staging area</text>
<text text-anchor="start" x="328" y="-288.4" font-family="Verdana" font-size="12.00">git add .</text>
</g>
<!-- common&#45;&gt;git_add -->
<g id="edge1" class="edge"><title>common&#45;&gt;git_add</title>
<path fill="none" stroke="black" d="M354.5,-357.989C354.5,-357.989 354.5,-329.117 354.5,-329.117"/>
<polygon fill="black" stroke="black" points="357.3,-329.117 354.5,-321.117 351.7,-329.117 357.3,-329.117"/>
</g>
<!-- fine_to_commit -->
<g id="node2" class="node"><title>fine_to_commit</title>
<polygon fill="lightyellow" stroke="black" points="354.5,-163 298.412,-127 354.5,-91 410.588,-127 354.5,-163"/>
<text text-anchor="start" x="332" y="-130.4" font-family="Verdana" font-weight="bold" font-size="12.00">Fine to</text>
<text text-anchor="start" x="327" y="-118.4" font-family="Verdana" font-weight="bold" font-size="12.00">commit?</text>
</g>
<!-- git_restore -->
<g id="node5" class="node"><title>git_restore</title>
<polygon fill="lightyellow" stroke="black" points="215,-242 0,-242 0,-200 215,-200 215,-242"/>
<text text-anchor="start" x="20.5" y="-227.4" font-family="Verdana" font-weight="bold" font-size="12.00">Restore from staging area</text>
<text text-anchor="start" x="10.5" y="-209.4" font-family="Verdana" font-size="12.00">git restore &#45;&#45;staged {filename}</text>
</g>
<!-- fine_to_commit&#45;&gt;git_restore -->
<g id="edge5" class="edge"><title>fine_to_commit:w&#45;&gt;git_restore</title>
<path fill="none" stroke="black" d="M298.5,-127C298.5,-127 107.5,-127 107.5,-127 107.5,-127 107.5,-191.67 107.5,-191.67"/>
<polygon fill="black" stroke="black" points="104.7,-191.67 107.5,-199.67 110.3,-191.67 104.7,-191.67"/>
<text text-anchor="middle" x="162.665" y="-130.4" font-family="Verdana" font-size="12.00">no</text>
</g>
<!-- git_commit -->
<g id="node6" class="node"><title>git_commit</title>
<polygon fill="lightyellow" stroke="black" points="443,-42 266,-42 266,-0 443,-0 443,-42"/>
<text text-anchor="start" x="294" y="-27.4" font-family="Verdana" font-weight="bold" font-size="12.00">Create the commit</text>
<text text-anchor="start" x="276.5" y="-9.4" font-family="Verdana" font-size="12.00">git commit &#45;m &quot;message&quot;</text>
</g>
<!-- fine_to_commit&#45;&gt;git_commit -->
<g id="edge4" class="edge"><title>fine_to_commit&#45;&gt;git_commit</title>
<path fill="none" stroke="black" d="M354.5,-90.8173C354.5,-90.8173 354.5,-50.1949 354.5,-50.1949"/>
<polygon fill="black" stroke="black" points="357.3,-50.1949 354.5,-42.1949 351.7,-50.195 357.3,-50.1949"/>
<text text-anchor="middle" x="365.5" y="-63.4" font-family="Verdana" font-size="12.00">yes</text>
</g>
<!-- git_status -->
<g id="node4" class="node"><title>git_status</title>
<polygon fill="lightyellow" stroke="black" points="458.5,-242 250.5,-242 250.5,-200 458.5,-200 458.5,-242"/>
<text text-anchor="start" x="260.5" y="-227.4" font-family="Verdana" font-weight="bold" font-size="12.00">Check the content to commit</text>
<text text-anchor="start" x="324" y="-209.4" font-family="Verdana" font-size="12.00">git status</text>
</g>
<!-- git_add&#45;&gt;git_status -->
<g id="edge2" class="edge"><title>git_add&#45;&gt;git_status</title>
<path fill="none" stroke="black" d="M354.5,-278.829C354.5,-278.829 354.5,-250.229 354.5,-250.229"/>
<polygon fill="black" stroke="black" points="357.3,-250.229 354.5,-242.229 351.7,-250.229 357.3,-250.229"/>
</g>
<!-- git_status&#45;&gt;fine_to_commit -->
<g id="edge3" class="edge"><title>git_status&#45;&gt;fine_to_commit</title>
<path fill="none" stroke="black" d="M354.5,-199.67C354.5,-199.67 354.5,-171.37 354.5,-171.37"/>
<polygon fill="black" stroke="black" points="357.3,-171.37 354.5,-163.37 351.7,-171.37 357.3,-171.37"/>
</g>
<!-- git_restore&#45;&gt;git_status -->
<g id="edge6" class="edge"><title>git_restore&#45;&gt;git_status</title>
<path fill="none" stroke="black" d="M215.119,-221C215.119,-221 242.371,-221 242.371,-221"/>
<polygon fill="black" stroke="black" points="242.371,-223.8 250.371,-221 242.371,-218.2 242.371,-223.8"/>
</g>
</g>
</svg>
