<?xml version="1.0" encoding="UTF-8" standalone="no"?>
<!DOCTYPE svg PUBLIC "-//W3C//DTD SVG 1.1//EN"
 "http://www.w3.org/Graphics/SVG/1.1/DTD/svg11.dtd">
<!-- Generated by graphviz version 2.38.0 (20140413.2041)
 -->
<!-- Title: commonworkflow Pages: 1 -->
<svg width="484pt" height="555pt"
 viewBox="0.00 0.00 483.50 554.94" xmlns="http://www.w3.org/2000/svg" xmlns:xlink="http://www.w3.org/1999/xlink">
<g id="graph0" class="graph" transform="scale(1 1) rotate(0) translate(4 550.938)">
<title>commonworkflow</title>
<polygon fill="white" stroke="none" points="-4,4 -4,-550.938 479.5,-550.938 479.5,4 -4,4"/>
<!-- common -->
<g id="node1" class="node"><title>common</title>
<polygon fill="lightyellow" stroke="black" points="285.403,-510.336 354.5,-491.031 423.597,-510.336 423.533,-541.571 285.467,-541.571 285.403,-510.336"/>
<text text-anchor="start" x="325.5" y="-522.369" font-family="Verdana" font-weight="bold" font-size="12.00">Common</text>
<text text-anchor="start" x="323" y="-510.369" font-family="Verdana" font-weight="bold" font-size="12.00">workflow</text>
</g>
<!-- git_add -->
<g id="node4" class="node"><title>git_add</title>
<polygon fill="lightyellow" stroke="black" points="475.5,-454 233.5,-454 233.5,-412 475.5,-412 475.5,-454"/>
<text text-anchor="start" x="243.5" y="-439.4" font-family="Verdana" font-weight="bold" font-size="12.00">Put the changes into staging area</text>
<text text-anchor="start" x="328" y="-421.4" font-family="Verdana" font-size="12.00">git add .</text>
</g>
<!-- common&#45;&gt;git_add -->
<g id="edge1" class="edge"><title>common&#45;&gt;git_add</title>
<path fill="none" stroke="black" d="M354.5,-490.82C354.5,-490.82 354.5,-462.12 354.5,-462.12"/>
<polygon fill="black" stroke="black" points="357.3,-462.12 354.5,-454.12 351.7,-462.12 357.3,-462.12"/>
</g>
<!-- check_commit -->
<g id="node2" class="node"><title>check_commit</title>
<polygon fill="lightyellow" stroke="black" points="354.5,-375 260.634,-339 354.5,-303 448.366,-339 354.5,-375"/>
<text text-anchor="start" x="303" y="-342.4" font-family="Verdana" font-weight="bold" font-size="12.00">Check what will</text>
<text text-anchor="start" x="308.5" y="-330.4" font-family="Verdana" font-weight="bold" font-size="12.00">be commited?</text>
</g>
<!-- git_status -->
<g id="node5" class="node"><title>git_status</title>
<polygon fill="lightyellow" stroke="black" points="458.5,-254 250.5,-254 250.5,-212 458.5,-212 458.5,-254"/>
<text text-anchor="start" x="260.5" y="-239.4" font-family="Verdana" font-weight="bold" font-size="12.00">Check the content to commit</text>
<text text-anchor="start" x="324" y="-221.4" font-family="Verdana" font-size="12.00">git status</text>
</g>
<!-- check_commit&#45;&gt;git_status -->
<g id="edge3" class="edge"><title>check_commit&#45;&gt;git_status</title>
<path fill="none" stroke="black" d="M354.5,-302.817C354.5,-302.817 354.5,-262.195 354.5,-262.195"/>
<polygon fill="black" stroke="black" points="357.3,-262.195 354.5,-254.195 351.7,-262.195 357.3,-262.195"/>
<text text-anchor="middle" x="365.5" y="-275.4" font-family="Verdana" font-size="12.00">yes</text>
</g>
<!-- git_commit -->
<g id="node7" class="node"><title>git_commit</title>
<polygon fill="lightyellow" stroke="black" points="443,-42 266,-42 266,-0 443,-0 443,-42"/>
<text text-anchor="start" x="294" y="-27.4" font-family="Verdana" font-weight="bold" font-size="12.00">Create the commit</text>
<text text-anchor="start" x="276.5" y="-9.4" font-family="Verdana" font-size="12.00">git commit &#45;m &quot;message&quot;</text>
</g>
<!-- check_commit&#45;&gt;git_commit -->
<g id="edge4" class="edge"><title>check_commit:e&#45;&gt;git_commit</title>
<path fill="none" stroke="black" d="M448.5,-339C448.5,-339 467,-339 467,-339 467,-339 467,-21 467,-21 467,-21 451.142,-21 451.142,-21"/>
<polygon fill="black" stroke="black" points="451.142,-18.2001 443.142,-21 451.142,-23.8001 451.142,-18.2001"/>
<text text-anchor="middle" x="420.5" y="-184.4" font-family="Verdana" font-size="12.00">no</text>
</g>
<!-- fine_to_commit -->
<g id="node3" class="node"><title>fine_to_commit</title>
<polygon fill="lightyellow" stroke="black" points="354.5,-163 298.412,-127 354.5,-91 410.588,-127 354.5,-163"/>
<text text-anchor="start" x="332" y="-130.4" font-family="Verdana" font-weight="bold" font-size="12.00">Fine to</text>
<text text-anchor="start" x="327" y="-118.4" font-family="Verdana" font-weight="bold" font-size="12.00">commit?</text>
</g>
<!-- git_restore -->
<g id="node6" class="node"><title>git_restore</title>
<polygon fill="lightyellow" stroke="black" points="215,-254 0,-254 0,-212 215,-212 215,-254"/>
<text text-anchor="start" x="20.5" y="-239.4" font-family="Verdana" font-weight="bold" font-size="12.00">Restore from staging area</text>
<text text-anchor="start" x="10.5" y="-221.4" font-family="Verdana" font-size="12.00">git restore &#45;&#45;staged {filename}</text>
</g>
<!-- fine_to_commit&#45;&gt;git_restore -->
<g id="edge7" class="edge"><title>fine_to_commit:w&#45;&gt;git_restore</title>
<path fill="none" stroke="black" d="M298.5,-127C298.5,-127 107.5,-127 107.5,-127 107.5,-127 107.5,-203.804 107.5,-203.804"/>
<polygon fill="black" stroke="black" points="104.7,-203.804 107.5,-211.804 110.3,-203.804 104.7,-203.804"/>
<text text-anchor="middle" x="156.598" y="-130.4" font-family="Verdana" font-size="12.00">no</text>
</g>
<!-- fine_to_commit&#45;&gt;git_commit -->
<g id="edge6" class="edge"><title>fine_to_commit&#45;&gt;git_commit</title>
<path fill="none" stroke="black" d="M354.5,-90.8173C354.5,-90.8173 354.5,-50.1949 354.5,-50.1949"/>
<polygon fill="black" stroke="black" points="357.3,-50.1949 354.5,-42.1949 351.7,-50.195 357.3,-50.1949"/>
<text text-anchor="middle" x="365.5" y="-63.4" font-family="Verdana" font-size="12.00">yes</text>
</g>
<!-- git_add&#45;&gt;check_commit -->
<g id="edge2" class="edge"><title>git_add&#45;&gt;check_commit</title>
<path fill="none" stroke="black" d="M354.5,-411.67C354.5,-411.67 354.5,-383.37 354.5,-383.37"/>
<polygon fill="black" stroke="black" points="357.3,-383.37 354.5,-375.37 351.7,-383.37 357.3,-383.37"/>
</g>
<!-- git_status&#45;&gt;fine_to_commit -->
<g id="edge5" class="edge"><title>git_status&#45;&gt;fine_to_commit</title>
<path fill="none" stroke="black" d="M354.5,-211.804C354.5,-211.804 354.5,-171.193 354.5,-171.193"/>
<polygon fill="black" stroke="black" points="357.3,-171.193 354.5,-163.193 351.7,-171.193 357.3,-171.193"/>
</g>
<!-- git_restore&#45;&gt;git_status -->
<g id="edge8" class="edge"><title>git_restore&#45;&gt;git_status</title>
<path fill="none" stroke="black" d="M215.119,-233C215.119,-233 242.371,-233 242.371,-233"/>
<polygon fill="black" stroke="black" points="242.371,-235.8 250.371,-233 242.371,-230.2 242.371,-235.8"/>
</g>
</g>
</svg>
