<?xml version="1.0" encoding="UTF-8" standalone="no"?>
<!DOCTYPE svg PUBLIC "-//W3C//DTD SVG 1.1//EN"
 "http://www.w3.org/Graphics/SVG/1.1/DTD/svg11.dtd">
<!-- Generated by graphviz version 2.38.0 (20140413.2041)
 -->
<!-- Title: commonworkflow Pages: 1 -->
<svg width="291pt" height="386pt"
 viewBox="0.00 0.00 291.30 386.00" xmlns="http://www.w3.org/2000/svg" xmlns:xlink="http://www.w3.org/1999/xlink">
<g id="graph0" class="graph" transform="scale(1 1) rotate(0) translate(4 382)">
<title>commonworkflow</title>
<polygon fill="white" stroke="none" points="-4,4 -4,-382 287.303,-382 287.303,4 -4,4"/>
<!-- fine_to_commit -->
<g id="node1" class="node"><title>fine_to_commit</title>
<polygon fill="lightyellow" stroke="black" points="187.5,-143 130.5,-113 187.5,-83 244.5,-113 187.5,-143"/>
<text text-anchor="middle" x="187.5" y="-116" font-family="Verdana" font-size="10.00">fine to</text>
<text text-anchor="middle" x="187.5" y="-105" font-family="Verdana" font-size="10.00">commit?</text>
</g>
<!-- git_reset -->
<g id="node5" class="node"><title>git_reset</title>
<polygon fill="lightyellow" stroke="black" points="119,-226 -7.10543e-015,-226 -7.10543e-015,-190 119,-190 119,-226"/>
<text text-anchor="middle" x="59.5" y="-205.5" font-family="Verdana" font-size="10.00">git reset HEAD {file}</text>
</g>
<!-- fine_to_commit&#45;&gt;git_reset -->
<g id="edge5" class="edge"><title>fine_to_commit:w&#45;&gt;git_reset</title>
<path fill="none" stroke="black" d="M129.5,-113C95.0542,-113 75.5545,-154.106 66.2967,-181.952"/>
<polygon fill="black" stroke="black" points="63.5709,-181.288 63.8501,-189.759 68.9146,-182.963 63.5709,-181.288"/>
<text text-anchor="middle" x="81" y="-164" font-family="Verdana" font-size="10.00">no</text>
</g>
<!-- git_commit -->
<g id="node6" class="node"><title>git_commit</title>
<polygon fill="lightyellow" stroke="black" points="257.5,-36 117.5,-36 117.5,-0 257.5,-0 257.5,-36"/>
<text text-anchor="middle" x="187.5" y="-15.5" font-family="Verdana" font-size="10.00">git commit &#45;m &quot;message&quot;</text>
</g>
<!-- fine_to_commit&#45;&gt;git_commit -->
<g id="edge4" class="edge"><title>fine_to_commit&#45;&gt;git_commit</title>
<path fill="none" stroke="black" d="M187.5,-82.8294C187.5,-70.4842 187.5,-56.2375 187.5,-44.3398"/>
<polygon fill="black" stroke="black" points="190.3,-44.1524 187.5,-36.1525 184.7,-44.1525 190.3,-44.1524"/>
<text text-anchor="middle" x="196.5" y="-57" font-family="Verdana" font-size="10.00">yes</text>
</g>
<!-- add_or_change -->
<g id="node2" class="node"><title>add_or_change</title>
<polygon fill="lightyellow" stroke="black" points="283.107,-378 131.018,-378 91.8932,-342 243.982,-342 283.107,-378"/>
<text text-anchor="middle" x="187.5" y="-357.5" font-family="Verdana" font-size="10.00">add or change files</text>
</g>
<!-- git_add -->
<g id="node3" class="node"><title>git_add</title>
<polygon fill="lightyellow" stroke="black" points="277,-305 98,-305 98,-263 277,-263 277,-305"/>
<text text-anchor="middle" x="187.5" y="-293" font-family="Verdana" font-size="10.00">add changes to the staging area</text>
<text text-anchor="middle" x="187.5" y="-270" font-family="Verdana" font-size="10.00">git add .</text>
</g>
<!-- add_or_change&#45;&gt;git_add -->
<g id="edge1" class="edge"><title>add_or_change&#45;&gt;git_add</title>
<path fill="none" stroke="black" d="M187.5,-341.837C187.5,-333.383 187.5,-322.968 187.5,-313.372"/>
<polygon fill="black" stroke="black" points="190.3,-313.221 187.5,-305.221 184.7,-313.221 190.3,-313.221"/>
</g>
<!-- git_status -->
<g id="node4" class="node"><title>git_status</title>
<polygon fill="lightyellow" stroke="black" points="220,-226 155,-226 155,-190 220,-190 220,-226"/>
<text text-anchor="middle" x="187.5" y="-205.5" font-family="Verdana" font-size="10.00">git status</text>
</g>
<!-- git_add&#45;&gt;git_status -->
<g id="edge2" class="edge"><title>git_add&#45;&gt;git_status</title>
<path fill="none" stroke="black" d="M187.5,-262.779C187.5,-253.999 187.5,-243.618 187.5,-234.331"/>
<polygon fill="black" stroke="black" points="190.3,-234.186 187.5,-226.186 184.7,-234.186 190.3,-234.186"/>
</g>
<!-- git_status&#45;&gt;fine_to_commit -->
<g id="edge3" class="edge"><title>git_status&#45;&gt;fine_to_commit</title>
<path fill="none" stroke="black" d="M187.5,-189.942C187.5,-179.086 187.5,-164.592 187.5,-151.178"/>
<polygon fill="black" stroke="black" points="190.3,-151.007 187.5,-143.007 184.7,-151.007 190.3,-151.007"/>
</g>
<!-- git_reset&#45;&gt;git_status -->
<g id="edge6" class="edge"><title>git_reset&#45;&gt;git_status</title>
<path fill="none" stroke="black" d="M119.5,-208C128.608,-208 137.716,-208 146.824,-208"/>
<polygon fill="black" stroke="black" points="146.828,-210.8 154.828,-208 146.828,-205.2 146.828,-210.8"/>
</g>
</g>
</svg>
