<?xml version="1.0" encoding="UTF-8" standalone="no"?>
<!DOCTYPE svg PUBLIC "-//W3C//DTD SVG 1.1//EN"
 "http://www.w3.org/Graphics/SVG/1.1/DTD/svg11.dtd">
<!-- Generated by graphviz version 2.38.0 (20140413.2041)
 -->
<!-- Title: commonworkflow Pages: 1 -->
<svg width="603pt" height="830pt"
 viewBox="0.00 0.00 602.50 829.88" xmlns="http://www.w3.org/2000/svg" xmlns:xlink="http://www.w3.org/1999/xlink">
<g id="graph0" class="graph" transform="scale(1 1) rotate(0) translate(4 825.876)">
<title>commonworkflow</title>
<polygon fill="white" stroke="none" points="-4,4 -4,-825.876 598.5,-825.876 598.5,4 -4,4"/>
<!-- dot1 -->
<!-- git_commit -->
<g id="node11" class="node"><title>git_commit</title>
<polygon fill="lightyellow" stroke="black" points="483,-255.938 306,-255.938 306,-213.938 483,-213.938 483,-255.938"/>
<text text-anchor="start" x="334" y="-241.338" font-family="Verdana" font-weight="bold" font-size="12.00">Create the commit</text>
<text text-anchor="start" x="316.5" y="-223.338" font-family="Verdana" font-size="12.00">git commit &#45;m &quot;message&quot;</text>
</g>
<!-- dot1&#45;&gt;git_commit -->
<g id="edge10" class="edge"><title>dot1&#45;&gt;git_commit</title>
<path fill="none" stroke="black" d="M549.5,-540.882C549.5,-536.161 549.5,-234 549.5,-234 549.5,-234 491.316,-234 491.316,-234"/>
<polygon fill="black" stroke="black" points="491.316,-231.2 483.316,-234 491.316,-236.8 491.316,-231.2"/>
</g>
<!-- dot2 -->
<!-- common_workflow -->
<g id="node3" class="node"><title>common_workflow</title>
<polygon fill="lightyellow" stroke="black" points="325.403,-785.274 394.5,-765.969 463.597,-785.274 463.533,-816.509 325.467,-816.509 325.403,-785.274"/>
<text text-anchor="start" x="365.5" y="-797.307" font-family="Verdana" font-weight="bold" font-size="12.00">Common</text>
<text text-anchor="start" x="363" y="-785.307" font-family="Verdana" font-weight="bold" font-size="12.00">workflow</text>
</g>
<!-- create_new_files_or_edit_existent_files -->
<g id="node5" class="node"><title>create_new_files_or_edit_existent_files</title>
<polygon fill="lightyellow" stroke="black" points="464.5,-728.938 324.5,-728.938 324.5,-692.938 464.5,-692.938 464.5,-728.938"/>
<text text-anchor="start" x="332.5" y="-714.338" font-family="Verdana" font-weight="bold" font-size="12.00">Create new or edit</text>
<text text-anchor="start" x="352.5" y="-702.338" font-family="Verdana" font-weight="bold" font-size="12.00">existent files</text>
</g>
<!-- common_workflow&#45;&gt;create_new_files_or_edit_existent_files -->
<g id="edge1" class="edge"><title>common_workflow&#45;&gt;create_new_files_or_edit_existent_files</title>
<path fill="none" stroke="black" d="M394.5,-765.818C394.5,-765.818 394.5,-737.352 394.5,-737.352"/>
<polygon fill="black" stroke="black" points="397.3,-737.352 394.5,-729.352 391.7,-737.352 397.3,-737.352"/>
</g>
<!-- sharing_workflow -->
<g id="node4" class="node"><title>sharing_workflow</title>
<polygon fill="lightyellow" stroke="black" points="325.403,-19.3357 394.5,-0.0309402 463.597,-19.3357 463.533,-50.5714 325.467,-50.5714 325.403,-19.3357"/>
<text text-anchor="start" x="369" y="-31.369" font-family="Verdana" font-weight="bold" font-size="12.00">Sharing</text>
<text text-anchor="start" x="363" y="-19.369" font-family="Verdana" font-weight="bold" font-size="12.00">workflow</text>
</g>
<!-- create_new_files_or_edit_existent_files&#45;&gt;dot2 -->
<g id="edge14" class="edge"><title>create_new_files_or_edit_existent_files&#45;&gt;dot2</title>
<path fill="none" stroke="black" d="M472.731,-710C472.731,-710 594.5,-710 594.5,-710 594.5,-710 594.5,-149.795 594.5,-141.042"/>
<polygon fill="black" stroke="black" points="472.731,-707.2 464.731,-710 472.731,-712.8 472.731,-707.2"/>
</g>
<!-- git_add -->
<g id="node9" class="node"><title>git_add</title>
<polygon fill="lightyellow" stroke="black" points="515.5,-655.938 273.5,-655.938 273.5,-613.938 515.5,-613.938 515.5,-655.938"/>
<text text-anchor="start" x="283.5" y="-641.338" font-family="Verdana" font-weight="bold" font-size="12.00">Put the changes into staging area</text>
<text text-anchor="start" x="368" y="-623.338" font-family="Verdana" font-size="12.00">git add .</text>
</g>
<!-- create_new_files_or_edit_existent_files&#45;&gt;git_add -->
<g id="edge2" class="edge"><title>create_new_files_or_edit_existent_files&#45;&gt;git_add</title>
<path fill="none" stroke="black" d="M394.5,-692.927C394.5,-692.927 394.5,-664.055 394.5,-664.055"/>
<polygon fill="black" stroke="black" points="397.3,-664.055 394.5,-656.055 391.7,-664.055 397.3,-664.055"/>
</g>
<!-- check_what_will_be_commited -->
<g id="node6" class="node"><title>check_what_will_be_commited</title>
<polygon fill="lightyellow" stroke="black" points="394.5,-576.938 310.555,-540.938 394.5,-504.938 478.445,-540.938 394.5,-576.938"/>
<text text-anchor="start" x="355.5" y="-550.338" font-family="Verdana" font-weight="bold" font-size="12.00">Check what</text>
<text text-anchor="start" x="373.5" y="-538.338" font-family="Verdana" font-weight="bold" font-size="12.00">will be</text>
<text text-anchor="start" x="358.5" y="-526.338" font-family="Verdana" font-weight="bold" font-size="12.00">commited?</text>
</g>
<!-- check_what_will_be_commited&#45;&gt;dot1 -->
<g id="edge9" class="edge"><title>check_what_will_be_commited&#45;&gt;dot1</title>
<path fill="none" stroke="black" d="M476.539,-540C512.556,-540 547.262,-540 549.396,-540"/>
<text text-anchor="start" x="495.967" y="-544.4" font-family="Verdana" font-weight="bold" font-size="12.00">no</text>
</g>
<!-- git_status -->
<g id="node10" class="node"><title>git_status</title>
<polygon fill="lightyellow" stroke="black" points="498.5,-455.938 290.5,-455.938 290.5,-413.938 498.5,-413.938 498.5,-455.938"/>
<text text-anchor="start" x="300.5" y="-441.338" font-family="Verdana" font-weight="bold" font-size="12.00">Check the content to commit</text>
<text text-anchor="start" x="364" y="-423.338" font-family="Verdana" font-size="12.00">git status</text>
</g>
<!-- check_what_will_be_commited&#45;&gt;git_status -->
<g id="edge4" class="edge"><title>check_what_will_be_commited&#45;&gt;git_status</title>
<path fill="none" stroke="black" d="M394.5,-504.755C394.5,-504.755 394.5,-464.133 394.5,-464.133"/>
<polygon fill="black" stroke="black" points="397.3,-464.133 394.5,-456.133 391.7,-464.133 397.3,-464.133"/>
<text text-anchor="start" x="394.5" y="-478.338" font-family="Verdana" font-weight="bold" font-size="12.00"> &#160;&#160;yes</text>
</g>
<!-- fine_to_commit -->
<g id="node7" class="node"><title>fine_to_commit</title>
<polygon fill="lightyellow" stroke="black" points="394.5,-376.938 338.412,-340.938 394.5,-304.938 450.588,-340.938 394.5,-376.938"/>
<text text-anchor="start" x="372" y="-344.338" font-family="Verdana" font-weight="bold" font-size="12.00">Fine to</text>
<text text-anchor="start" x="367" y="-332.338" font-family="Verdana" font-weight="bold" font-size="12.00">commit?</text>
</g>
<!-- fine_to_commit&#45;&gt;git_commit -->
<g id="edge6" class="edge"><title>fine_to_commit&#45;&gt;git_commit</title>
<path fill="none" stroke="black" d="M394.5,-304.755C394.5,-304.755 394.5,-264.133 394.5,-264.133"/>
<polygon fill="black" stroke="black" points="397.3,-264.133 394.5,-256.133 391.7,-264.133 397.3,-264.133"/>
<text text-anchor="start" x="394.5" y="-278.338" font-family="Verdana" font-weight="bold" font-size="12.00"> &#160;&#160;yes</text>
</g>
<!-- git_restore -->
<g id="node12" class="node"><title>git_restore</title>
<polygon fill="lightyellow" stroke="black" points="219,-455.938 0,-455.938 0,-413.938 219,-413.938 219,-455.938"/>
<text text-anchor="start" x="22.5" y="-441.338" font-family="Verdana" font-weight="bold" font-size="12.00">Restore from staging area</text>
<text text-anchor="start" x="10.5" y="-423.338" font-family="Verdana" font-size="12.00">git restore &#45;&#45;staged &lt;filename&gt;</text>
</g>
<!-- fine_to_commit&#45;&gt;git_restore -->
<g id="edge12" class="edge"><title>fine_to_commit&#45;&gt;git_restore</title>
<path fill="none" stroke="black" d="M339.549,-340C256.731,-340 109.5,-340 109.5,-340 109.5,-340 109.5,-405.868 109.5,-405.868"/>
<polygon fill="black" stroke="black" points="106.7,-405.868 109.5,-413.868 112.3,-405.868 106.7,-405.868"/>
<text text-anchor="start" x="174.59" y="-344.4" font-family="Verdana" font-weight="bold" font-size="12.00">no</text>
</g>
<!-- would_you_like_share_the_changes -->
<g id="node8" class="node"><title>would_you_like_share_the_changes</title>
<polygon fill="lightyellow" stroke="black" points="394.5,-176.938 301.688,-140.938 394.5,-104.938 487.312,-140.938 394.5,-176.938"/>
<text text-anchor="start" x="359.5" y="-150.338" font-family="Verdana" font-weight="bold" font-size="12.00">Would you</text>
<text text-anchor="start" x="362.5" y="-138.338" font-family="Verdana" font-weight="bold" font-size="12.00">like share</text>
<text text-anchor="start" x="350.5" y="-126.338" font-family="Verdana" font-weight="bold" font-size="12.00">the changes?</text>
</g>
<!-- would_you_like_share_the_changes&#45;&gt;dot2 -->
<g id="edge13" class="edge"><title>would_you_like_share_the_changes&#45;&gt;dot2</title>
<path fill="none" stroke="black" d="M485.137,-140C536.401,-140 590.976,-140 594.336,-140"/>
<text text-anchor="start" x="522.737" y="-144.4" font-family="Verdana" font-weight="bold" font-size="12.00">no</text>
</g>
<!-- would_you_like_share_the_changes&#45;&gt;sharing_workflow -->
<g id="edge8" class="edge"><title>would_you_like_share_the_changes&#45;&gt;sharing_workflow</title>
<path fill="none" stroke="black" d="M394.5,-104.883C394.5,-104.883 394.5,-58.9076 394.5,-58.9076"/>
<polygon fill="black" stroke="black" points="397.3,-58.9076 394.5,-50.9076 391.7,-58.9077 397.3,-58.9076"/>
<text text-anchor="start" x="394.5" y="-78.3381" font-family="Verdana" font-weight="bold" font-size="12.00"> &#160;&#160;yes</text>
</g>
<!-- git_add&#45;&gt;check_what_will_be_commited -->
<g id="edge3" class="edge"><title>git_add&#45;&gt;check_what_will_be_commited</title>
<path fill="none" stroke="black" d="M394.5,-613.608C394.5,-613.608 394.5,-585.308 394.5,-585.308"/>
<polygon fill="black" stroke="black" points="397.3,-585.308 394.5,-577.308 391.7,-585.308 397.3,-585.308"/>
</g>
<!-- git_status&#45;&gt;fine_to_commit -->
<g id="edge5" class="edge"><title>git_status&#45;&gt;fine_to_commit</title>
<path fill="none" stroke="black" d="M394.5,-413.608C394.5,-413.608 394.5,-385.308 394.5,-385.308"/>
<polygon fill="black" stroke="black" points="397.3,-385.308 394.5,-377.308 391.7,-385.308 397.3,-385.308"/>
</g>
<!-- git_commit&#45;&gt;would_you_like_share_the_changes -->
<g id="edge7" class="edge"><title>git_commit&#45;&gt;would_you_like_share_the_changes</title>
<path fill="none" stroke="black" d="M394.5,-213.608C394.5,-213.608 394.5,-185.308 394.5,-185.308"/>
<polygon fill="black" stroke="black" points="397.3,-185.308 394.5,-177.308 391.7,-185.308 397.3,-185.308"/>
</g>
<!-- git_restore&#45;&gt;git_status -->
<g id="edge11" class="edge"><title>git_restore&#45;&gt;git_status</title>
<path fill="none" stroke="black" d="M219.281,-434C219.281,-434 282.395,-434 282.395,-434"/>
<polygon fill="black" stroke="black" points="282.395,-436.8 290.395,-434 282.395,-431.2 282.395,-436.8"/>
</g>
</g>
</svg>
