<?xml version="1.0" encoding="UTF-8" standalone="no"?>
<!DOCTYPE svg PUBLIC "-//W3C//DTD SVG 1.1//EN"
 "http://www.w3.org/Graphics/SVG/1.1/DTD/svg11.dtd">
<!-- Generated by graphviz version 2.38.0 (20140413.2041)
 -->
<!-- Title: commonworkflow Pages: 1 -->
<svg width="549pt" height="830pt"
 viewBox="0.00 0.00 549.00 829.88" xmlns="http://www.w3.org/2000/svg" xmlns:xlink="http://www.w3.org/1999/xlink">
<g id="graph0" class="graph" transform="scale(1 1) rotate(0) translate(4 825.876)">
<title>commonworkflow</title>
<polygon fill="white" stroke="none" points="-4,4 -4,-825.876 545,-825.876 545,4 -4,4"/>
<!-- dot1 -->
<!-- dot2 -->
<!-- dot2&#45;&gt;dot1 -->
<g id="edge14" class="edge"><title>dot2&#45;&gt;dot1</title>
<path fill="none" stroke="black" d="M385.592,-710C389.453,-710 513,-710 513,-710 513,-710 513,-140 513,-140 513,-140 399.143,-140 395.585,-140"/>
<text text-anchor="start" x="513" y="-434.396" font-family="Verdana" font-weight="bold" font-size="12.00"> &#160;&#160;no</text>
</g>
<!-- common_workflow -->
<g id="node3" class="node"><title>common_workflow</title>
<polygon fill="lightyellow" stroke="black" points="71.4029,-785.274 140.5,-765.969 209.597,-785.274 209.533,-816.509 71.4674,-816.509 71.4029,-785.274"/>
<text text-anchor="start" x="111.5" y="-797.307" font-family="Verdana" font-weight="bold" font-size="12.00">Common</text>
<text text-anchor="start" x="109" y="-785.307" font-family="Verdana" font-weight="bold" font-size="12.00">workflow</text>
</g>
<!-- create_new_files_or_edit_existent_files -->
<g id="node5" class="node"><title>create_new_files_or_edit_existent_files</title>
<polygon fill="lightyellow" stroke="black" points="210.5,-728.938 70.5,-728.938 70.5,-692.938 210.5,-692.938 210.5,-728.938"/>
<text text-anchor="start" x="78.5" y="-714.338" font-family="Verdana" font-weight="bold" font-size="12.00">Create new or edit</text>
<text text-anchor="start" x="98.5" y="-702.338" font-family="Verdana" font-weight="bold" font-size="12.00">existent files</text>
</g>
<!-- common_workflow&#45;&gt;create_new_files_or_edit_existent_files -->
<g id="edge1" class="edge"><title>common_workflow&#45;&gt;create_new_files_or_edit_existent_files</title>
<path fill="none" stroke="black" d="M140.5,-765.818C140.5,-765.818 140.5,-737.352 140.5,-737.352"/>
<polygon fill="black" stroke="black" points="143.3,-737.352 140.5,-729.352 137.7,-737.352 143.3,-737.352"/>
</g>
<!-- sharing_workflow -->
<g id="node4" class="node"><title>sharing_workflow</title>
<polygon fill="lightyellow" stroke="black" points="71.4029,-19.3357 140.5,-0.0309402 209.597,-19.3357 209.533,-50.5714 71.4674,-50.5714 71.4029,-19.3357"/>
<text text-anchor="start" x="115" y="-31.369" font-family="Verdana" font-weight="bold" font-size="12.00">Sharing</text>
<text text-anchor="start" x="109" y="-19.369" font-family="Verdana" font-weight="bold" font-size="12.00">workflow</text>
</g>
<!-- create_new_files_or_edit_existent_files&#45;&gt;dot2 -->
<g id="edge3" class="edge"><title>create_new_files_or_edit_existent_files&#45;&gt;dot2</title>
<path fill="none" stroke="black" d="M218.707,-710C218.707,-710 385.426,-710 385.426,-710"/>
<polygon fill="black" stroke="black" points="218.707,-707.2 210.707,-710 218.707,-712.8 218.707,-707.2"/>
</g>
<!-- git_add -->
<g id="node9" class="node"><title>git_add</title>
<polygon fill="lightyellow" stroke="black" points="261.5,-655.938 19.5,-655.938 19.5,-613.938 261.5,-613.938 261.5,-655.938"/>
<text text-anchor="start" x="29.5" y="-641.338" font-family="Verdana" font-weight="bold" font-size="12.00">Put the changes into staging area</text>
<text text-anchor="start" x="114" y="-623.338" font-family="Verdana" font-size="12.00">git add .</text>
</g>
<!-- create_new_files_or_edit_existent_files&#45;&gt;git_add -->
<g id="edge2" class="edge"><title>create_new_files_or_edit_existent_files&#45;&gt;git_add</title>
<path fill="none" stroke="black" d="M140.5,-692.927C140.5,-692.927 140.5,-664.055 140.5,-664.055"/>
<polygon fill="black" stroke="black" points="143.3,-664.055 140.5,-656.055 137.7,-664.055 143.3,-664.055"/>
</g>
<!-- check_commit -->
<g id="node6" class="node"><title>check_commit</title>
<polygon fill="lightyellow" stroke="black" points="140.5,-576.938 56.5549,-540.938 140.5,-504.938 224.445,-540.938 140.5,-576.938"/>
<text text-anchor="start" x="101.5" y="-550.338" font-family="Verdana" font-weight="bold" font-size="12.00">Check what</text>
<text text-anchor="start" x="119.5" y="-538.338" font-family="Verdana" font-weight="bold" font-size="12.00">will be</text>
<text text-anchor="start" x="104.5" y="-526.338" font-family="Verdana" font-weight="bold" font-size="12.00">commited?</text>
</g>
<!-- git_status -->
<g id="node10" class="node"><title>git_status</title>
<polygon fill="lightyellow" stroke="black" points="244.5,-455.938 36.5,-455.938 36.5,-413.938 244.5,-413.938 244.5,-455.938"/>
<text text-anchor="start" x="46.5" y="-441.338" font-family="Verdana" font-weight="bold" font-size="12.00">Check the content to commit</text>
<text text-anchor="start" x="110" y="-423.338" font-family="Verdana" font-size="12.00">git status</text>
</g>
<!-- check_commit&#45;&gt;git_status -->
<g id="edge5" class="edge"><title>check_commit&#45;&gt;git_status</title>
<path fill="none" stroke="black" d="M140.5,-504.755C140.5,-504.755 140.5,-464.133 140.5,-464.133"/>
<polygon fill="black" stroke="black" points="143.3,-464.133 140.5,-456.133 137.7,-464.133 143.3,-464.133"/>
<text text-anchor="start" x="140.5" y="-478.338" font-family="Verdana" font-weight="bold" font-size="12.00"> &#160;&#160;yes</text>
</g>
<!-- git_commit -->
<g id="node12" class="node"><title>git_commit</title>
<polygon fill="lightyellow" stroke="black" points="229,-255.938 52,-255.938 52,-213.938 229,-213.938 229,-255.938"/>
<text text-anchor="start" x="80" y="-241.338" font-family="Verdana" font-weight="bold" font-size="12.00">Create the commit</text>
<text text-anchor="start" x="62.5" y="-223.338" font-family="Verdana" font-size="12.00">git commit &#45;m &quot;message&quot;</text>
</g>
<!-- check_commit&#45;&gt;git_commit -->
<g id="edge6" class="edge"><title>check_commit&#45;&gt;git_commit</title>
<path fill="none" stroke="black" d="M58.7411,-540C41.2935,-540 28,-540 28,-540 28,-540 28,-234 28,-234 28,-234 43.8584,-234 43.8584,-234"/>
<polygon fill="black" stroke="black" points="43.8584,-236.8 51.8584,-234 43.8583,-231.2 43.8584,-236.8"/>
<text text-anchor="start" x="0" y="-398.841" font-family="Verdana" font-weight="bold" font-size="12.00">no &#160;&#160;</text>
</g>
<!-- fine_to_commit -->
<g id="node7" class="node"><title>fine_to_commit</title>
<polygon fill="lightyellow" stroke="black" points="140.5,-376.938 84.412,-340.938 140.5,-304.938 196.588,-340.938 140.5,-376.938"/>
<text text-anchor="start" x="118" y="-344.338" font-family="Verdana" font-weight="bold" font-size="12.00">Fine to</text>
<text text-anchor="start" x="113" y="-332.338" font-family="Verdana" font-weight="bold" font-size="12.00">commit?</text>
</g>
<!-- git_restore -->
<g id="node11" class="node"><title>git_restore</title>
<polygon fill="lightyellow" stroke="black" points="495,-455.938 280,-455.938 280,-413.938 495,-413.938 495,-455.938"/>
<text text-anchor="start" x="300.5" y="-441.338" font-family="Verdana" font-weight="bold" font-size="12.00">Restore from staging area</text>
<text text-anchor="start" x="290.5" y="-423.338" font-family="Verdana" font-size="12.00">git restore &#45;&#45;staged {filename}</text>
</g>
<!-- fine_to_commit&#45;&gt;git_restore -->
<g id="edge9" class="edge"><title>fine_to_commit&#45;&gt;git_restore</title>
<path fill="none" stroke="black" d="M195.306,-340C253.523,-340 337.25,-340 337.25,-340 337.25,-340 337.25,-405.868 337.25,-405.868"/>
<polygon fill="black" stroke="black" points="334.45,-405.868 337.25,-413.868 340.05,-405.868 334.45,-405.868"/>
<text text-anchor="start" x="282.212" y="-344.4" font-family="Verdana" font-weight="bold" font-size="12.00">no</text>
</g>
<!-- fine_to_commit&#45;&gt;git_commit -->
<g id="edge8" class="edge"><title>fine_to_commit&#45;&gt;git_commit</title>
<path fill="none" stroke="black" d="M140.5,-304.755C140.5,-304.755 140.5,-264.133 140.5,-264.133"/>
<polygon fill="black" stroke="black" points="143.3,-264.133 140.5,-256.133 137.7,-264.133 143.3,-264.133"/>
<text text-anchor="start" x="140.5" y="-278.338" font-family="Verdana" font-weight="bold" font-size="12.00"> &#160;&#160;yes</text>
</g>
<!-- share_changes -->
<g id="node8" class="node"><title>share_changes</title>
<polygon fill="lightyellow" stroke="black" points="140.5,-176.938 47.6883,-140.938 140.5,-104.938 233.312,-140.938 140.5,-176.938"/>
<text text-anchor="start" x="105.5" y="-150.338" font-family="Verdana" font-weight="bold" font-size="12.00">Would you</text>
<text text-anchor="start" x="108.5" y="-138.338" font-family="Verdana" font-weight="bold" font-size="12.00">like share</text>
<text text-anchor="start" x="96.5" y="-126.338" font-family="Verdana" font-weight="bold" font-size="12.00">the changes?</text>
</g>
<!-- share_changes&#45;&gt;dot1 -->
<g id="edge13" class="edge"><title>share_changes&#45;&gt;dot1</title>
<path fill="none" stroke="black" d="M231.121,-140C303.271,-140 392.658,-140 395.434,-140"/>
</g>
<!-- share_changes&#45;&gt;sharing_workflow -->
<g id="edge12" class="edge"><title>share_changes&#45;&gt;sharing_workflow</title>
<path fill="none" stroke="black" d="M140.5,-104.883C140.5,-104.883 140.5,-58.9076 140.5,-58.9076"/>
<polygon fill="black" stroke="black" points="143.3,-58.9076 140.5,-50.9076 137.7,-58.9077 143.3,-58.9076"/>
<text text-anchor="start" x="140.5" y="-78.3381" font-family="Verdana" font-weight="bold" font-size="12.00"> &#160;&#160;yes</text>
</g>
<!-- git_add&#45;&gt;check_commit -->
<g id="edge4" class="edge"><title>git_add&#45;&gt;check_commit</title>
<path fill="none" stroke="black" d="M140.5,-613.608C140.5,-613.608 140.5,-585.308 140.5,-585.308"/>
<polygon fill="black" stroke="black" points="143.3,-585.308 140.5,-577.308 137.7,-585.308 143.3,-585.308"/>
</g>
<!-- git_status&#45;&gt;fine_to_commit -->
<g id="edge7" class="edge"><title>git_status&#45;&gt;fine_to_commit</title>
<path fill="none" stroke="black" d="M140.5,-413.608C140.5,-413.608 140.5,-385.308 140.5,-385.308"/>
<polygon fill="black" stroke="black" points="143.3,-385.308 140.5,-377.308 137.7,-385.308 143.3,-385.308"/>
</g>
<!-- git_restore&#45;&gt;git_status -->
<g id="edge10" class="edge"><title>git_restore&#45;&gt;git_status</title>
<path fill="none" stroke="black" d="M279.881,-434C279.881,-434 252.629,-434 252.629,-434"/>
<polygon fill="black" stroke="black" points="252.629,-431.2 244.629,-434 252.629,-436.8 252.629,-431.2"/>
</g>
<!-- git_commit&#45;&gt;share_changes -->
<g id="edge11" class="edge"><title>git_commit&#45;&gt;share_changes</title>
<path fill="none" stroke="black" d="M140.5,-213.608C140.5,-213.608 140.5,-185.308 140.5,-185.308"/>
<polygon fill="black" stroke="black" points="143.3,-185.308 140.5,-177.308 137.7,-185.308 143.3,-185.308"/>
</g>
</g>
</svg>
