<?xml version="1.0" encoding="UTF-8" standalone="no"?>
<!DOCTYPE svg PUBLIC "-//W3C//DTD SVG 1.1//EN"
 "http://www.w3.org/Graphics/SVG/1.1/DTD/svg11.dtd">
<!-- Generated by graphviz version 2.38.0 (20140413.2041)
 -->
<!-- Title: commonworkflow Pages: 1 -->
<svg width="484pt" height="406pt"
 viewBox="0.00 0.00 483.50 406.00" xmlns="http://www.w3.org/2000/svg" xmlns:xlink="http://www.w3.org/1999/xlink">
<g id="graph0" class="graph" transform="scale(1 1) rotate(0) translate(4 402)">
<title>commonworkflow</title>
<polygon fill="white" stroke="none" points="-4,4 -4,-402 479.5,-402 479.5,4 -4,4"/>
<!-- fine_to_commit -->
<g id="node1" class="node"><title>fine_to_commit</title>
<polygon fill="lightyellow" stroke="black" points="354.5,-155 283.5,-123 354.5,-91 425.5,-123 354.5,-155"/>
<text text-anchor="start" x="332" y="-126.4" font-family="Verdana" font-weight="bold" font-size="12.00">Fine to</text>
<text text-anchor="start" x="327" y="-114.4" font-family="Verdana" font-weight="bold" font-size="12.00">commit?</text>
</g>
<!-- git_restore -->
<g id="node5" class="node"><title>git_restore</title>
<polygon fill="lightyellow" stroke="black" points="215,-246 0,-246 0,-204 215,-204 215,-246"/>
<text text-anchor="start" x="20.5" y="-231.4" font-family="Verdana" font-weight="bold" font-size="12.00">Restore from staging area</text>
<text text-anchor="start" x="10.5" y="-213.4" font-family="Verdana" font-size="12.00">git restore &#45;&#45;staged {filename}</text>
</g>
<!-- fine_to_commit&#45;&gt;git_restore -->
<g id="edge5" class="edge"><title>fine_to_commit:w&#45;&gt;git_restore</title>
<path fill="none" stroke="black" d="M282.5,-123C222.647,-123 164.838,-167.867 132.938,-197.793"/>
<polygon fill="black" stroke="black" points="130.754,-196.007 126.91,-203.561 134.626,-200.053 130.754,-196.007"/>
<text text-anchor="middle" x="169.5" y="-176.4" font-family="Verdana" font-size="12.00">no</text>
</g>
<!-- git_commit -->
<g id="node6" class="node"><title>git_commit</title>
<polygon fill="lightyellow" stroke="black" points="443,-42 266,-42 266,-0 443,-0 443,-42"/>
<text text-anchor="start" x="294" y="-27.4" font-family="Verdana" font-weight="bold" font-size="12.00">Create the commit</text>
<text text-anchor="start" x="276.5" y="-9.4" font-family="Verdana" font-size="12.00">git commit &#45;m &quot;message&quot;</text>
</g>
<!-- fine_to_commit&#45;&gt;git_commit -->
<g id="edge4" class="edge"><title>fine_to_commit&#45;&gt;git_commit</title>
<path fill="none" stroke="black" d="M354.5,-90.9075C354.5,-77.9571 354.5,-63.0221 354.5,-50.374"/>
<polygon fill="black" stroke="black" points="357.3,-50.0355 354.5,-42.0355 351.7,-50.0355 357.3,-50.0355"/>
<text text-anchor="middle" x="365.5" y="-63.4" font-family="Verdana" font-size="12.00">yes</text>
</g>
<!-- add_or_change -->
<g id="node2" class="node"><title>add_or_change</title>
<polygon fill="lightyellow" stroke="black" points="471.5,-398 237.5,-398 237.5,-362 471.5,-362 471.5,-398"/>
<text text-anchor="start" x="245.5" y="-377.9" font-family="Verdana" font-size="12.00"> &#160;&#160;&#160;&#160;&#160;&#160;&#160;&#160;&#160;&#160;&#160;</text>
<text text-anchor="start" x="300.5" y="-377.9" font-family="Verdana" font-weight="bold" font-size="12.00">Add or change files</text>
<text text-anchor="start" x="426.5" y="-377.9" font-family="Verdana" font-size="12.00"> &#160;&#160;&#160;&#160;&#160;&#160;&#160;</text>
</g>
<!-- git_add -->
<g id="node3" class="node"><title>git_add</title>
<polygon fill="lightyellow" stroke="black" points="475.5,-325 233.5,-325 233.5,-283 475.5,-283 475.5,-325"/>
<text text-anchor="start" x="243.5" y="-310.4" font-family="Verdana" font-weight="bold" font-size="12.00">Put the changes into staging area</text>
<text text-anchor="start" x="328" y="-292.4" font-family="Verdana" font-size="12.00">git add .</text>
</g>
<!-- add_or_change&#45;&gt;git_add -->
<g id="edge1" class="edge"><title>add_or_change&#45;&gt;git_add</title>
<path fill="none" stroke="black" d="M354.5,-361.837C354.5,-353.383 354.5,-342.968 354.5,-333.372"/>
<polygon fill="black" stroke="black" points="357.3,-333.221 354.5,-325.221 351.7,-333.221 357.3,-333.221"/>
</g>
<!-- git_status -->
<g id="node4" class="node"><title>git_status</title>
<polygon fill="lightyellow" stroke="black" points="458.5,-246 250.5,-246 250.5,-204 458.5,-204 458.5,-246"/>
<text text-anchor="start" x="260.5" y="-231.4" font-family="Verdana" font-weight="bold" font-size="12.00">Check the content to commit</text>
<text text-anchor="start" x="324" y="-213.4" font-family="Verdana" font-size="12.00">git status</text>
</g>
<!-- git_add&#45;&gt;git_status -->
<g id="edge2" class="edge"><title>git_add&#45;&gt;git_status</title>
<path fill="none" stroke="black" d="M354.5,-282.769C354.5,-274.016 354.5,-263.622 354.5,-254.135"/>
<polygon fill="black" stroke="black" points="357.3,-254.096 354.5,-246.096 351.7,-254.096 357.3,-254.096"/>
</g>
<!-- git_status&#45;&gt;fine_to_commit -->
<g id="edge3" class="edge"><title>git_status&#45;&gt;fine_to_commit</title>
<path fill="none" stroke="black" d="M354.5,-203.764C354.5,-192.232 354.5,-177.379 354.5,-163.622"/>
<polygon fill="black" stroke="black" points="357.3,-163.238 354.5,-155.238 351.7,-163.238 357.3,-163.238"/>
</g>
<!-- git_restore&#45;&gt;git_status -->
<g id="edge6" class="edge"><title>git_restore&#45;&gt;git_status</title>
<path fill="none" stroke="black" d="M215.08,-225C224.207,-225 233.333,-225 242.459,-225"/>
<polygon fill="black" stroke="black" points="242.48,-227.8 250.48,-225 242.48,-222.2 242.48,-227.8"/>
</g>
</g>
</svg>
