<?xml version="1.0" encoding="UTF-8" standalone="no"?>
<!DOCTYPE svg PUBLIC "-//W3C//DTD SVG 1.1//EN"
 "http://www.w3.org/Graphics/SVG/1.1/DTD/svg11.dtd">
<!-- Generated by graphviz version 2.38.0 (20140413.2041)
 -->
<!-- Title: contributingworkflow Pages: 1 -->
<svg width="427pt" height="616pt"
 viewBox="0.00 0.00 426.50 615.88" xmlns="http://www.w3.org/2000/svg" xmlns:xlink="http://www.w3.org/1999/xlink">
<g id="graph0" class="graph" transform="scale(1 1) rotate(0) translate(4 611.876)">
<title>contributingworkflow</title>
<polygon fill="white" stroke="none" points="-4,4 -4,-611.876 422.5,-611.876 422.5,4 -4,4"/>
<!-- dot1 -->
<!-- git_checkout -->
<g id="node9" class="node"><title>git_checkout</title>
<polygon fill="lightyellow" stroke="black" points="200.5,-320.938 35.5,-320.938 35.5,-261.938 200.5,-261.938 200.5,-320.938"/>
<text text-anchor="start" x="49" y="-305.838" font-family="Verdana" font-weight="bold" font-size="12.00">Create a new branch</text>
<text text-anchor="start" x="46" y="-288.838" font-family="Verdana" font-weight="bold" font-size="12.00">using opened issue ID</text>
<text text-anchor="start" x="55" y="-270.838" font-family="Verdana" font-size="12.00">git checkout &#45;b {ID}</text>
</g>
<!-- dot1&#45;&gt;git_checkout -->
<g id="edge6" class="edge"><title>dot1&#45;&gt;git_checkout</title>
<path fill="none" stroke="black" d="M0.0855255,-291C0.0855255,-291 27.4589,-291 27.4589,-291"/>
<polygon fill="black" stroke="black" points="27.4589,-293.8 35.4589,-291 27.4588,-288.2 27.4589,-293.8"/>
</g>
<!-- contributing_workflow -->
<g id="node2" class="node"><title>contributing_workflow</title>
<polygon fill="lightyellow" stroke="black" points="32.1894,-571.274 118,-551.969 203.811,-571.274 203.73,-602.509 32.2695,-602.509 32.1894,-571.274"/>
<text text-anchor="start" x="77" y="-583.307" font-family="Verdana" font-weight="bold" font-size="12.00">Contributing</text>
<text text-anchor="start" x="86.5" y="-571.307" font-family="Verdana" font-weight="bold" font-size="12.00">workflow</text>
</g>
<!-- open_issue -->
<g id="node4" class="node"><title>open_issue</title>
<polygon fill="lightyellow" stroke="black" points="172.5,-514.938 63.5,-514.938 63.5,-478.938 172.5,-478.938 172.5,-514.938"/>
<text text-anchor="start" x="71.5" y="-494.838" font-family="Verdana" font-weight="bold" font-size="12.00">Open an issue</text>
</g>
<!-- contributing_workflow&#45;&gt;open_issue -->
<g id="edge1" class="edge"><title>contributing_workflow&#45;&gt;open_issue</title>
<path fill="none" stroke="black" d="M118,-551.818C118,-551.818 118,-523.352 118,-523.352"/>
<polygon fill="black" stroke="black" points="120.8,-523.352 118,-515.352 115.2,-523.352 120.8,-523.352"/>
</g>
<!-- common_workflow -->
<g id="node3" class="node"><title>common_workflow</title>
<polygon fill="lightyellow" stroke="black" points="48.9029,-188.336 118,-169.031 187.097,-188.336 187.033,-219.571 48.9674,-219.571 48.9029,-188.336"/>
<text text-anchor="start" x="89" y="-200.369" font-family="Verdana" font-weight="bold" font-size="12.00">Common</text>
<text text-anchor="start" x="86.5" y="-188.369" font-family="Verdana" font-weight="bold" font-size="12.00">workflow</text>
</g>
<!-- git_push -->
<g id="node10" class="node"><title>git_push</title>
<polygon fill="lightyellow" stroke="black" points="195,-132 41,-132 41,-73 195,-73 195,-132"/>
<text text-anchor="start" x="51" y="-116.9" font-family="Verdana" font-weight="bold" font-size="12.00">Send branch to your</text>
<text text-anchor="start" x="60.5" y="-99.9" font-family="Verdana" font-weight="bold" font-size="12.00">forked repository</text>
<text text-anchor="start" x="56" y="-81.9" font-family="Verdana" font-size="12.00">git push origin {ID}</text>
</g>
<!-- common_workflow&#45;&gt;git_push -->
<g id="edge8" class="edge"><title>common_workflow&#45;&gt;git_push</title>
<path fill="none" stroke="black" d="M118,-168.881C118,-168.881 118,-140.287 118,-140.287"/>
<polygon fill="black" stroke="black" points="120.8,-140.287 118,-132.287 115.2,-140.287 120.8,-140.287"/>
</g>
<!-- open_issue&#45;&gt;dot1 -->
<g id="edge5" class="edge"><title>open_issue&#45;&gt;dot1</title>
<path fill="none" stroke="black" d="M63.4903,-496C32.5722,-496 0,-496 0,-496 0,-496 0,-297.781 0,-291.586"/>
<text text-anchor="start" x="15" y="-403.838" font-family="Verdana" font-weight="bold" font-size="12.00">ID</text>
</g>
<!-- already_forked -->
<g id="node7" class="node"><title>already_forked</title>
<polygon fill="lightyellow" stroke="black" points="118,-441.938 64.1475,-405.938 118,-369.938 171.852,-405.938 118,-441.938"/>
<text text-anchor="start" x="92.5" y="-409.338" font-family="Verdana" font-weight="bold" font-size="12.00">Already</text>
<text text-anchor="start" x="92" y="-397.338" font-family="Verdana" font-weight="bold" font-size="12.00">forked?</text>
</g>
<!-- open_issue&#45;&gt;already_forked -->
<g id="edge2" class="edge"><title>open_issue&#45;&gt;already_forked</title>
<path fill="none" stroke="black" d="M118,-478.523C118,-478.523 118,-450.006 118,-450.006"/>
<polygon fill="black" stroke="black" points="120.8,-450.006 118,-442.006 115.2,-450.006 120.8,-450.006"/>
</g>
<!-- fork_project -->
<g id="node5" class="node"><title>fork_project</title>
<polygon fill="lightyellow" stroke="black" points="401,-423.938 279,-423.938 279,-387.938 401,-387.938 401,-423.938"/>
<text text-anchor="start" x="287" y="-403.838" font-family="Verdana" font-weight="bold" font-size="12.00">Fork the project</text>
</g>
<!-- git_clone -->
<g id="node8" class="node"><title>git_clone</title>
<polygon fill="lightyellow" stroke="black" points="418.5,-312.438 261.5,-312.438 261.5,-270.438 418.5,-270.438 418.5,-312.438"/>
<text text-anchor="start" x="272" y="-297.838" font-family="Verdana" font-weight="bold" font-size="12.00">Clone from your fork</text>
<text text-anchor="start" x="292" y="-279.838" font-family="Verdana" font-size="12.00">git clone {URL}</text>
</g>
<!-- fork_project&#45;&gt;git_clone -->
<g id="edge10" class="edge"><title>fork_project&#45;&gt;git_clone</title>
<path fill="none" stroke="black" d="M340,-387.795C340,-387.795 340,-320.608 340,-320.608"/>
<polygon fill="black" stroke="black" points="342.8,-320.608 340,-312.608 337.2,-320.608 342.8,-320.608"/>
</g>
<!-- pull_request -->
<g id="node6" class="node"><title>pull_request</title>
<polygon fill="lightyellow" stroke="black" points="210.5,-36 25.5,-36 25.5,-0 210.5,-0 210.5,-36"/>
<text text-anchor="start" x="33.5" y="-15.9" font-family="Verdana" font-weight="bold" font-size="12.00">Open a Pull Request (PR)</text>
</g>
<!-- already_forked&#45;&gt;fork_project -->
<g id="edge4" class="edge"><title>already_forked&#45;&gt;fork_project</title>
<path fill="none" stroke="black" d="M170.611,-405C170.611,-405 270.72,-405 270.72,-405"/>
<polygon fill="black" stroke="black" points="270.72,-407.8 278.72,-405 270.72,-402.2 270.72,-407.8"/>
<text text-anchor="start" x="203.665" y="-409.4" font-family="Verdana" font-weight="bold" font-size="12.00">no</text>
</g>
<!-- already_forked&#45;&gt;git_checkout -->
<g id="edge3" class="edge"><title>already_forked&#45;&gt;git_checkout</title>
<path fill="none" stroke="black" d="M118,-369.71C118,-369.71 118,-329.297 118,-329.297"/>
<polygon fill="black" stroke="black" points="120.8,-329.297 118,-321.297 115.2,-329.297 120.8,-329.297"/>
<text text-anchor="start" x="118" y="-343.338" font-family="Verdana" font-weight="bold" font-size="12.00"> &#160;&#160;yes</text>
</g>
<!-- git_clone&#45;&gt;git_checkout -->
<g id="edge11" class="edge"><title>git_clone&#45;&gt;git_checkout</title>
<path fill="none" stroke="black" d="M261.419,-291C261.419,-291 208.612,-291 208.612,-291"/>
<polygon fill="black" stroke="black" points="208.612,-288.2 200.612,-291 208.612,-293.8 208.612,-288.2"/>
</g>
<!-- git_checkout&#45;&gt;common_workflow -->
<g id="edge7" class="edge"><title>git_checkout&#45;&gt;common_workflow</title>
<path fill="none" stroke="black" d="M118,-261.807C118,-261.807 118,-227.599 118,-227.599"/>
<polygon fill="black" stroke="black" points="120.8,-227.599 118,-219.599 115.2,-227.599 120.8,-227.599"/>
</g>
<!-- git_push&#45;&gt;pull_request -->
<g id="edge9" class="edge"><title>git_push&#45;&gt;pull_request</title>
<path fill="none" stroke="black" d="M118,-72.946C118,-72.946 118,-44.3352 118,-44.3352"/>
<polygon fill="black" stroke="black" points="120.8,-44.3352 118,-36.3352 115.2,-44.3353 120.8,-44.3352"/>
</g>
</g>
</svg>
