<?xml version="1.0" encoding="UTF-8" standalone="no"?>
<!DOCTYPE svg PUBLIC "-//W3C//DTD SVG 1.1//EN"
 "http://www.w3.org/Graphics/SVG/1.1/DTD/svg11.dtd">
<!-- Generated by graphviz version 2.38.0 (20140413.2041)
 -->
<!-- Title: contributingworkflow Pages: 1 -->
<svg width="423pt" height="683pt"
 viewBox="0.00 0.00 422.68 682.88" xmlns="http://www.w3.org/2000/svg" xmlns:xlink="http://www.w3.org/1999/xlink">
<g id="graph0" class="graph" transform="scale(1 1) rotate(0) translate(4 678.876)">
<title>contributingworkflow</title>
<polygon fill="white" stroke="none" points="-4,4 -4,-678.876 418.681,-678.876 418.681,4 -4,4"/>
<!-- contributing_workflow -->
<g id="node1" class="node"><title>contributing_workflow</title>
<polygon fill="lightyellow" stroke="black" points="80.3706,-638.274 166.181,-618.969 251.992,-638.274 251.912,-669.509 80.4507,-669.509 80.3706,-638.274"/>
<text text-anchor="start" x="125.181" y="-650.307" font-family="Verdana" font-weight="bold" font-size="12.00">Contributing</text>
<text text-anchor="start" x="134.681" y="-638.307" font-family="Verdana" font-weight="bold" font-size="12.00">workflow</text>
</g>
<!-- open_issue -->
<g id="node3" class="node"><title>open_issue</title>
<polygon fill="lightyellow" stroke="black" points="220.681,-581.938 111.681,-581.938 111.681,-545.938 220.681,-545.938 220.681,-581.938"/>
<text text-anchor="start" x="119.681" y="-561.838" font-family="Verdana" font-weight="bold" font-size="12.00">Open an issue</text>
</g>
<!-- contributing_workflow&#45;&gt;open_issue -->
<g id="edge1" class="edge"><title>contributing_workflow&#45;&gt;open_issue</title>
<path fill="none" stroke="black" d="M166.181,-618.946C166.181,-609.742 166.181,-599.485 166.181,-590.403"/>
<polygon fill="black" stroke="black" points="168.981,-590.128 166.181,-582.128 163.381,-590.128 168.981,-590.128"/>
</g>
<!-- common_workflow -->
<g id="node2" class="node"><title>common_workflow</title>
<polygon fill="lightyellow" stroke="black" points="118.084,-188.336 187.181,-169.031 256.278,-188.336 256.214,-219.571 118.149,-219.571 118.084,-188.336"/>
<text text-anchor="start" x="158.181" y="-200.369" font-family="Verdana" font-weight="bold" font-size="12.00">Common</text>
<text text-anchor="start" x="155.681" y="-188.369" font-family="Verdana" font-weight="bold" font-size="12.00">workflow</text>
</g>
<!-- git_push -->
<g id="node9" class="node"><title>git_push</title>
<polygon fill="lightyellow" stroke="black" points="264.181,-132 110.181,-132 110.181,-73 264.181,-73 264.181,-132"/>
<text text-anchor="start" x="120.181" y="-116.9" font-family="Verdana" font-weight="bold" font-size="12.00">Send branch to your</text>
<text text-anchor="start" x="129.681" y="-99.9" font-family="Verdana" font-weight="bold" font-size="12.00">forked repository</text>
<text text-anchor="start" x="125.181" y="-81.9" font-family="Verdana" font-size="12.00">git push origin {ID}</text>
</g>
<!-- common_workflow&#45;&gt;git_push -->
<g id="edge7" class="edge"><title>common_workflow&#45;&gt;git_push</title>
<path fill="none" stroke="black" d="M187.181,-168.725C187.181,-159.825 187.181,-149.789 187.181,-140.305"/>
<polygon fill="black" stroke="black" points="189.981,-140.156 187.181,-132.156 184.381,-140.156 189.981,-140.156"/>
</g>
<!-- already_forked -->
<g id="node6" class="node"><title>already_forked</title>
<polygon fill="lightyellow" stroke="black" points="186.181,-508.938 132.329,-472.938 186.181,-436.938 240.034,-472.938 186.181,-508.938"/>
<text text-anchor="start" x="160.681" y="-476.338" font-family="Verdana" font-weight="bold" font-size="12.00">Already</text>
<text text-anchor="start" x="160.181" y="-464.338" font-family="Verdana" font-weight="bold" font-size="12.00">forked?</text>
</g>
<!-- open_issue&#45;&gt;already_forked -->
<g id="edge2" class="edge"><title>open_issue:s&#45;&gt;already_forked:n</title>
<path fill="none" stroke="black" d="M166.181,-545.938C166.181,-530.458 179.897,-528.062 184.612,-517.08"/>
<polygon fill="black" stroke="black" points="187.416,-517.323 186.181,-508.938 181.918,-516.263 187.416,-517.323"/>
</g>
<!-- git_checkout_branch -->
<g id="node8" class="node"><title>git_checkout_branch</title>
<polygon fill="lightyellow" stroke="black" points="269.681,-320.938 104.681,-320.938 104.681,-261.938 269.681,-261.938 269.681,-320.938"/>
<text text-anchor="start" x="118.181" y="-305.838" font-family="Verdana" font-weight="bold" font-size="12.00">Create a new branch</text>
<text text-anchor="start" x="115.181" y="-288.838" font-family="Verdana" font-weight="bold" font-size="12.00">using opened issue ID</text>
<text text-anchor="start" x="124.181" y="-270.838" font-family="Verdana" font-size="12.00">git checkout &#45;b {ID}</text>
</g>
<!-- open_issue&#45;&gt;git_checkout_branch -->
<g id="edge5" class="edge"><title>open_issue:w&#45;&gt;git_checkout_branch:w</title>
<path fill="none" stroke="black" d="M110.181,-563.938C-8.13037,-563.938 -17.579,-304.062 94.8738,-291.88"/>
<polygon fill="black" stroke="black" points="95.3413,-294.659 103.181,-291.438 95.0437,-289.067 95.3413,-294.659"/>
<text text-anchor="start" x="0" y="-437.072" font-family="Verdana" font-weight="bold" font-size="12.00">ID</text>
</g>
<!-- fork_project -->
<g id="node4" class="node"><title>fork_project</title>
<polygon fill="lightyellow" stroke="black" points="397.181,-490.938 275.181,-490.938 275.181,-454.938 397.181,-454.938 397.181,-490.938"/>
<text text-anchor="start" x="283.181" y="-470.838" font-family="Verdana" font-weight="bold" font-size="12.00">Fork the project</text>
</g>
<!-- git_clone -->
<g id="node7" class="node"><title>git_clone</title>
<polygon fill="lightyellow" stroke="black" points="414.681,-399.938 257.681,-399.938 257.681,-357.938 414.681,-357.938 414.681,-399.938"/>
<text text-anchor="start" x="268.181" y="-385.338" font-family="Verdana" font-weight="bold" font-size="12.00">Clone from your fork</text>
<text text-anchor="start" x="288.181" y="-367.338" font-family="Verdana" font-size="12.00">git clone {URL}</text>
</g>
<!-- fork_project&#45;&gt;git_clone -->
<g id="edge9" class="edge"><title>fork_project:s&#45;&gt;git_clone:n</title>
<path fill="none" stroke="black" d="M336.181,-453.938C336.181,-432.938 336.181,-425.719 336.181,-408.165"/>
<polygon fill="black" stroke="black" points="338.981,-407.938 336.181,-399.938 333.381,-407.938 338.981,-407.938"/>
</g>
<!-- pull_request -->
<g id="node5" class="node"><title>pull_request</title>
<polygon fill="lightyellow" stroke="black" points="279.681,-36 94.6812,-36 94.6812,-0 279.681,-0 279.681,-36"/>
<text text-anchor="start" x="102.681" y="-15.9" font-family="Verdana" font-weight="bold" font-size="12.00">Open a Pull Request (PR)</text>
</g>
<!-- already_forked&#45;&gt;fork_project -->
<g id="edge4" class="edge"><title>already_forked&#45;&gt;fork_project</title>
<path fill="none" stroke="black" d="M240.087,-472.938C248.997,-472.938 257.906,-472.938 266.815,-472.938"/>
<polygon fill="black" stroke="black" points="266.997,-475.738 274.997,-472.938 266.996,-470.138 266.997,-475.738"/>
<text text-anchor="start" x="241.627" y="-464.338" font-family="Verdana" font-weight="bold" font-size="12.00"> &#160;no &#160;</text>
</g>
<!-- already_forked&#45;&gt;git_checkout_branch -->
<g id="edge3" class="edge"><title>already_forked&#45;&gt;git_checkout_branch</title>
<path fill="none" stroke="black" d="M186.376,-436.903C186.549,-405.902 186.8,-360.818 186.976,-329.284"/>
<polygon fill="black" stroke="black" points="189.776,-329.19 187.021,-321.174 184.176,-329.159 189.776,-329.19"/>
<text text-anchor="start" x="187.181" y="-376.838" font-family="Verdana" font-weight="bold" font-size="12.00"> &#160;&#160;yes</text>
</g>
<!-- git_clone&#45;&gt;git_checkout_branch -->
<g id="edge10" class="edge"><title>git_clone:s&#45;&gt;git_checkout_branch:e</title>
<path fill="none" stroke="black" d="M336.181,-357.938C336.181,-319.353 315.55,-294.852 279.179,-291.768"/>
<polygon fill="black" stroke="black" points="279.29,-288.971 271.181,-291.438 279.059,-294.566 279.29,-288.971"/>
</g>
<!-- git_checkout_branch&#45;&gt;common_workflow -->
<g id="edge6" class="edge"><title>git_checkout_branch&#45;&gt;common_workflow</title>
<path fill="none" stroke="black" d="M187.181,-261.687C187.181,-250.872 187.181,-238.559 187.181,-227.66"/>
<polygon fill="black" stroke="black" points="189.981,-227.649 187.181,-219.649 184.381,-227.649 189.981,-227.649"/>
</g>
<!-- git_push&#45;&gt;pull_request -->
<g id="edge8" class="edge"><title>git_push&#45;&gt;pull_request</title>
<path fill="none" stroke="black" d="M187.181,-72.6455C187.181,-63.4902 187.181,-53.4369 187.181,-44.5325"/>
<polygon fill="black" stroke="black" points="189.981,-44.4142 187.181,-36.4142 184.381,-44.4142 189.981,-44.4142"/>
</g>
</g>
</svg>
