<?xml version="1.0" encoding="UTF-8" standalone="no"?>
<!DOCTYPE svg PUBLIC "-//W3C//DTD SVG 1.1//EN"
 "http://www.w3.org/Graphics/SVG/1.1/DTD/svg11.dtd">
<!-- Generated by graphviz version 2.38.0 (20140413.2041)
 -->
<!-- Title: contributingworkflow Pages: 1 -->
<svg width="268pt" height="768pt"
 viewBox="0.00 0.00 268.16 767.88" xmlns="http://www.w3.org/2000/svg" xmlns:xlink="http://www.w3.org/1999/xlink">
<g id="graph0" class="graph" transform="scale(1 1) rotate(0) translate(4 763.876)">
<title>contributingworkflow</title>
<polygon fill="white" stroke="none" points="-4,4 -4,-763.876 264.155,-763.876 264.155,4 -4,4"/>
<!-- contributing -->
<g id="node1" class="node"><title>contributing</title>
<polygon fill="lightyellow" stroke="black" points="88.6894,-723.274 174.5,-703.969 260.311,-723.274 260.23,-754.509 88.7695,-754.509 88.6894,-723.274"/>
<text text-anchor="start" x="133.5" y="-735.307" font-family="Verdana" font-weight="bold" font-size="12.00">Contributing</text>
<text text-anchor="start" x="143" y="-723.307" font-family="Verdana" font-weight="bold" font-size="12.00">workflow</text>
</g>
<!-- open_issue -->
<g id="node3" class="node"><title>open_issue</title>
<polygon fill="lightyellow" stroke="black" points="229,-666.938 120,-666.938 120,-630.938 229,-630.938 229,-666.938"/>
<text text-anchor="start" x="128" y="-646.838" font-family="Verdana" font-weight="bold" font-size="12.00">Open an issue</text>
</g>
<!-- contributing&#45;&gt;open_issue -->
<g id="edge1" class="edge"><title>contributing&#45;&gt;open_issue</title>
<path fill="none" stroke="black" d="M174.5,-703.946C174.5,-694.742 174.5,-684.485 174.5,-675.403"/>
<polygon fill="black" stroke="black" points="177.3,-675.128 174.5,-667.128 171.7,-675.128 177.3,-675.128"/>
</g>
<!-- common -->
<g id="node2" class="node"><title>common</title>
<polygon fill="lightyellow" stroke="black" points="88.4029,-188.336 157.5,-169.031 226.597,-188.336 226.533,-219.571 88.4674,-219.571 88.4029,-188.336"/>
<text text-anchor="start" x="128.5" y="-200.369" font-family="Verdana" font-weight="bold" font-size="12.00">Common</text>
<text text-anchor="start" x="126" y="-188.369" font-family="Verdana" font-weight="bold" font-size="12.00">workflow</text>
</g>
<!-- git_push -->
<g id="node9" class="node"><title>git_push</title>
<polygon fill="lightyellow" stroke="black" points="234.5,-132 80.5,-132 80.5,-73 234.5,-73 234.5,-132"/>
<text text-anchor="start" x="90.5" y="-116.9" font-family="Verdana" font-weight="bold" font-size="12.00">Send branch to your</text>
<text text-anchor="start" x="100" y="-99.9" font-family="Verdana" font-weight="bold" font-size="12.00">forked repository</text>
<text text-anchor="start" x="95.5" y="-81.9" font-family="Verdana" font-size="12.00">git push origin {ID}</text>
</g>
<!-- common&#45;&gt;git_push -->
<g id="edge7" class="edge"><title>common&#45;&gt;git_push</title>
<path fill="none" stroke="black" d="M157.5,-168.725C157.5,-159.825 157.5,-149.789 157.5,-140.305"/>
<polygon fill="black" stroke="black" points="160.3,-140.156 157.5,-132.156 154.7,-140.156 160.3,-140.156"/>
</g>
<!-- already_forked -->
<g id="node6" class="node"><title>already_forked</title>
<polygon fill="lightyellow" stroke="black" points="86.5,-593.938 32.6475,-557.938 86.5,-521.938 140.352,-557.938 86.5,-593.938"/>
<text text-anchor="start" x="61" y="-561.338" font-family="Verdana" font-weight="bold" font-size="12.00">Already</text>
<text text-anchor="start" x="60.5" y="-549.338" font-family="Verdana" font-weight="bold" font-size="12.00">forked?</text>
</g>
<!-- open_issue&#45;&gt;already_forked -->
<g id="edge2" class="edge"><title>open_issue:w&#45;&gt;already_forked:n</title>
<path fill="none" stroke="black" d="M118.5,-648.938C92.981,-648.938 87.4606,-627.183 86.6258,-602.155"/>
<polygon fill="black" stroke="black" points="89.4222,-601.894 86.5,-593.938 83.8229,-601.98 89.4222,-601.894"/>
</g>
<!-- git_checkout_branch -->
<g id="node8" class="node"><title>git_checkout_branch</title>
<polygon fill="lightyellow" stroke="black" points="240,-320.938 75,-320.938 75,-261.938 240,-261.938 240,-320.938"/>
<text text-anchor="start" x="88.5" y="-305.838" font-family="Verdana" font-weight="bold" font-size="12.00">Create a new branch</text>
<text text-anchor="start" x="85.5" y="-288.838" font-family="Verdana" font-weight="bold" font-size="12.00">using opened issue ID</text>
<text text-anchor="start" x="94.5" y="-270.838" font-family="Verdana" font-size="12.00">git checkout &#45;b {ID}</text>
</g>
<!-- open_issue&#45;&gt;git_checkout_branch -->
<g id="edge5" class="edge"><title>open_issue:e&#45;&gt;git_checkout_branch:e</title>
<path fill="none" stroke="black" d="M230.5,-648.938C270.658,-648.938 238.5,-599.096 238.5,-558.938 238.5,-558.938 238.5,-558.938 238.5,-377.938 238.5,-342.776 273.147,-299.623 249.723,-292.466"/>
<polygon fill="black" stroke="black" points="249.785,-289.652 241.5,-291.438 249.091,-295.209 249.785,-289.652"/>
<text text-anchor="middle" x="246" y="-463.838" font-family="Verdana" font-size="12.00">ID</text>
</g>
<!-- fork_project -->
<g id="node4" class="node"><title>fork_project</title>
<polygon fill="lightyellow" stroke="black" points="141.5,-484.938 19.5,-484.938 19.5,-448.938 141.5,-448.938 141.5,-484.938"/>
<text text-anchor="start" x="27.5" y="-464.838" font-family="Verdana" font-weight="bold" font-size="12.00">Fork the project</text>
</g>
<!-- git_clone -->
<g id="node7" class="node"><title>git_clone</title>
<polygon fill="lightyellow" stroke="black" points="157,-399.938 0,-399.938 0,-357.938 157,-357.938 157,-399.938"/>
<text text-anchor="start" x="10.5" y="-385.338" font-family="Verdana" font-weight="bold" font-size="12.00">Clone from your fork</text>
<text text-anchor="start" x="30.5" y="-367.338" font-family="Verdana" font-size="12.00">git clone {URL}</text>
</g>
<!-- fork_project&#45;&gt;git_clone -->
<g id="edge9" class="edge"><title>fork_project&#45;&gt;git_clone</title>
<path fill="none" stroke="black" d="M80.0953,-448.535C79.8275,-437.02 79.4702,-421.655 79.1616,-408.385"/>
<polygon fill="black" stroke="black" points="81.9526,-407.963 78.9673,-400.03 76.3541,-408.093 81.9526,-407.963"/>
</g>
<!-- pull_request -->
<g id="node5" class="node"><title>pull_request</title>
<polygon fill="lightyellow" stroke="black" points="250,-36 65,-36 65,-0 250,-0 250,-36"/>
<text text-anchor="start" x="73" y="-15.9" font-family="Verdana" font-weight="bold" font-size="12.00">Open a Pull Request (PR)</text>
</g>
<!-- already_forked&#45;&gt;fork_project -->
<g id="edge4" class="edge"><title>already_forked:s&#45;&gt;fork_project:n</title>
<path fill="none" stroke="black" d="M86.5,-521.938C86.5,-508.402 82.5391,-503.434 81.0537,-493.111"/>
<polygon fill="black" stroke="black" points="83.8344,-492.73 80.5,-484.938 78.2472,-493.109 83.8344,-492.73"/>
<text text-anchor="middle" x="75.5439" y="-506.987" font-family="Verdana" font-size="12.00">no</text>
</g>
<!-- already_forked&#45;&gt;git_checkout_branch -->
<g id="edge3" class="edge"><title>already_forked:e&#45;&gt;git_checkout_branch:n</title>
<path fill="none" stroke="black" d="M141.5,-557.938C231.081,-557.938 177.162,-446.882 166.5,-357.938 164.863,-344.285 159.945,-339.565 158.158,-329.197"/>
<polygon fill="black" stroke="black" points="160.927,-328.69 157.5,-320.938 155.344,-329.135 160.927,-328.69"/>
<text text-anchor="middle" x="190.5" y="-421.338" font-family="Verdana" font-size="12.00">yes</text>
</g>
<!-- git_clone&#45;&gt;git_checkout_branch -->
<g id="edge10" class="edge"><title>git_clone&#45;&gt;git_checkout_branch:w</title>
<path fill="none" stroke="black" d="M69.5841,-357.876C60.6,-335.517 50.0665,-301.42 65.3095,-293.245"/>
<polygon fill="black" stroke="black" points="66.291,-295.896 73.5,-291.438 65.0846,-290.427 66.291,-295.896"/>
</g>
<!-- git_checkout_branch&#45;&gt;common -->
<g id="edge6" class="edge"><title>git_checkout_branch&#45;&gt;common</title>
<path fill="none" stroke="black" d="M157.5,-261.687C157.5,-250.872 157.5,-238.559 157.5,-227.66"/>
<polygon fill="black" stroke="black" points="160.3,-227.649 157.5,-219.649 154.7,-227.649 160.3,-227.649"/>
</g>
<!-- git_push&#45;&gt;pull_request -->
<g id="edge8" class="edge"><title>git_push&#45;&gt;pull_request</title>
<path fill="none" stroke="black" d="M157.5,-72.6455C157.5,-63.4902 157.5,-53.4369 157.5,-44.5325"/>
<polygon fill="black" stroke="black" points="160.3,-44.4142 157.5,-36.4142 154.7,-44.4142 160.3,-44.4142"/>
</g>
</g>
</svg>
