<?xml version="1.0" encoding="UTF-8" standalone="no"?>
<!DOCTYPE svg PUBLIC "-//W3C//DTD SVG 1.1//EN"
 "http://www.w3.org/Graphics/SVG/1.1/DTD/svg11.dtd">
<!-- Generated by graphviz version 2.38.0 (20140413.2041)
 -->
<!-- Title: contributingworkflow Pages: 1 -->
<svg width="410pt" height="683pt"
 viewBox="0.00 0.00 409.68 682.88" xmlns="http://www.w3.org/2000/svg" xmlns:xlink="http://www.w3.org/1999/xlink">
<g id="graph0" class="graph" transform="scale(1 1) rotate(0) translate(4 678.876)">
<title>contributingworkflow</title>
<polygon fill="white" stroke="none" points="-4,4 -4,-678.876 405.681,-678.876 405.681,4 -4,4"/>
<!-- contributing_workflow -->
<g id="node1" class="node"><title>contributing_workflow</title>
<polygon fill="lightyellow" stroke="black" points="83.3706,-638.274 169.181,-618.969 254.992,-638.274 254.912,-669.509 83.4507,-669.509 83.3706,-638.274"/>
<text text-anchor="start" x="128.181" y="-650.307" font-family="Verdana" font-weight="bold" font-size="12.00">Contributing</text>
<text text-anchor="start" x="137.681" y="-638.307" font-family="Verdana" font-weight="bold" font-size="12.00">workflow</text>
</g>
<!-- open_issue -->
<g id="node3" class="node"><title>open_issue</title>
<polygon fill="lightyellow" stroke="black" points="223.681,-581.938 114.681,-581.938 114.681,-545.938 223.681,-545.938 223.681,-581.938"/>
<text text-anchor="start" x="122.681" y="-561.838" font-family="Verdana" font-weight="bold" font-size="12.00">Open an issue</text>
</g>
<!-- contributing_workflow&#45;&gt;open_issue -->
<g id="edge1" class="edge"><title>contributing_workflow&#45;&gt;open_issue</title>
<path fill="none" stroke="black" d="M169.181,-618.946C169.181,-609.742 169.181,-599.485 169.181,-590.403"/>
<polygon fill="black" stroke="black" points="171.981,-590.128 169.181,-582.128 166.381,-590.128 171.981,-590.128"/>
</g>
<!-- common_workflow -->
<g id="node2" class="node"><title>common_workflow</title>
<polygon fill="lightyellow" stroke="black" points="121.084,-188.336 190.181,-169.031 259.278,-188.336 259.214,-219.571 121.149,-219.571 121.084,-188.336"/>
<text text-anchor="start" x="161.181" y="-200.369" font-family="Verdana" font-weight="bold" font-size="12.00">Common</text>
<text text-anchor="start" x="158.681" y="-188.369" font-family="Verdana" font-weight="bold" font-size="12.00">workflow</text>
</g>
<!-- git_push -->
<g id="node9" class="node"><title>git_push</title>
<polygon fill="lightyellow" stroke="black" points="267.181,-132 113.181,-132 113.181,-73 267.181,-73 267.181,-132"/>
<text text-anchor="start" x="123.181" y="-116.9" font-family="Verdana" font-weight="bold" font-size="12.00">Send branch to your</text>
<text text-anchor="start" x="132.681" y="-99.9" font-family="Verdana" font-weight="bold" font-size="12.00">forked repository</text>
<text text-anchor="start" x="128.181" y="-81.9" font-family="Verdana" font-size="12.00">git push origin {ID}</text>
</g>
<!-- common_workflow&#45;&gt;git_push -->
<g id="edge7" class="edge"><title>common_workflow&#45;&gt;git_push</title>
<path fill="none" stroke="black" d="M190.181,-168.725C190.181,-159.825 190.181,-149.789 190.181,-140.305"/>
<polygon fill="black" stroke="black" points="192.981,-140.156 190.181,-132.156 187.381,-140.156 192.981,-140.156"/>
</g>
<!-- already_forked -->
<g id="node6" class="node"><title>already_forked</title>
<polygon fill="lightyellow" stroke="black" points="189.181,-508.938 135.329,-472.938 189.181,-436.938 243.034,-472.938 189.181,-508.938"/>
<text text-anchor="start" x="163.681" y="-476.338" font-family="Verdana" font-weight="bold" font-size="12.00">Already</text>
<text text-anchor="start" x="163.181" y="-464.338" font-family="Verdana" font-weight="bold" font-size="12.00">forked?</text>
</g>
<!-- open_issue&#45;&gt;already_forked -->
<g id="edge2" class="edge"><title>open_issue:s&#45;&gt;already_forked:n</title>
<path fill="none" stroke="black" d="M169.181,-545.938C169.181,-530.458 182.897,-528.062 187.612,-517.08"/>
<polygon fill="black" stroke="black" points="190.416,-517.323 189.181,-508.938 184.918,-516.263 190.416,-517.323"/>
</g>
<!-- git_checkout_branch -->
<g id="node8" class="node"><title>git_checkout_branch</title>
<polygon fill="lightyellow" stroke="black" points="272.681,-320.938 107.681,-320.938 107.681,-261.938 272.681,-261.938 272.681,-320.938"/>
<text text-anchor="start" x="121.181" y="-305.838" font-family="Verdana" font-weight="bold" font-size="12.00">Create a new branch</text>
<text text-anchor="start" x="118.181" y="-288.838" font-family="Verdana" font-weight="bold" font-size="12.00">using opened issue ID</text>
<text text-anchor="start" x="127.181" y="-270.838" font-family="Verdana" font-size="12.00">git checkout &#45;b {ID}</text>
</g>
<!-- open_issue&#45;&gt;git_checkout_branch -->
<g id="edge5" class="edge"><title>open_issue:w&#45;&gt;git_checkout_branch:w</title>
<path fill="none" stroke="black" d="M113.181,-563.938C-5.13037,-563.938 -14.579,-304.062 97.8738,-291.88"/>
<polygon fill="black" stroke="black" points="98.3413,-294.659 106.181,-291.438 98.0437,-289.067 98.3413,-294.659"/>
<text text-anchor="middle" x="9.5" y="-436.072" font-family="Verdana" font-size="12.00">ID </text>
</g>
<!-- fork_project -->
<g id="node4" class="node"><title>fork_project</title>
<polygon fill="lightyellow" stroke="black" points="400.181,-490.938 278.181,-490.938 278.181,-454.938 400.181,-454.938 400.181,-490.938"/>
<text text-anchor="start" x="286.181" y="-470.838" font-family="Verdana" font-weight="bold" font-size="12.00">Fork the project</text>
</g>
<!-- git_clone -->
<g id="node7" class="node"><title>git_clone</title>
<polygon fill="lightyellow" stroke="black" points="401.681,-399.938 244.681,-399.938 244.681,-357.938 401.681,-357.938 401.681,-399.938"/>
<text text-anchor="start" x="255.181" y="-385.338" font-family="Verdana" font-weight="bold" font-size="12.00">Clone from your fork</text>
<text text-anchor="start" x="275.181" y="-367.338" font-family="Verdana" font-size="12.00">git clone {URL}</text>
</g>
<!-- fork_project&#45;&gt;git_clone -->
<g id="edge9" class="edge"><title>fork_project:s&#45;&gt;git_clone:n</title>
<path fill="none" stroke="black" d="M339.181,-453.938C339.181,-431.84 326.711,-426.182 323.789,-407.937"/>
<polygon fill="black" stroke="black" points="326.579,-407.703 323.181,-399.938 320.995,-408.127 326.579,-407.703"/>
</g>
<!-- pull_request -->
<g id="node5" class="node"><title>pull_request</title>
<polygon fill="lightyellow" stroke="black" points="282.681,-36 97.6812,-36 97.6812,-0 282.681,-0 282.681,-36"/>
<text text-anchor="start" x="105.681" y="-15.9" font-family="Verdana" font-weight="bold" font-size="12.00">Open a Pull Request (PR)</text>
</g>
<!-- already_forked&#45;&gt;fork_project -->
<g id="edge4" class="edge"><title>already_forked&#45;&gt;fork_project</title>
<path fill="none" stroke="black" d="M243.087,-472.938C251.997,-472.938 260.906,-472.938 269.815,-472.938"/>
<polygon fill="black" stroke="black" points="269.997,-475.738 277.997,-472.938 269.996,-470.138 269.997,-475.738"/>
<text text-anchor="middle" x="252.627" y="-476.338" font-family="Verdana" font-size="12.00">no</text>
</g>
<!-- already_forked&#45;&gt;git_checkout_branch -->
<g id="edge3" class="edge"><title>already_forked&#45;&gt;git_checkout_branch</title>
<path fill="none" stroke="black" d="M189.376,-436.903C189.549,-405.902 189.8,-360.818 189.976,-329.284"/>
<polygon fill="black" stroke="black" points="192.776,-329.19 190.021,-321.174 187.176,-329.159 192.776,-329.19"/>
<text text-anchor="middle" x="201.181" y="-375.838" font-family="Verdana" font-size="12.00">yes</text>
</g>
<!-- git_clone&#45;&gt;git_checkout_branch -->
<g id="edge10" class="edge"><title>git_clone:s&#45;&gt;git_checkout_branch:e</title>
<path fill="none" stroke="black" d="M323.181,-357.938C323.181,-324.094 312.739,-296.135 282.344,-291.973"/>
<polygon fill="black" stroke="black" points="282.347,-289.167 274.181,-291.438 281.981,-294.755 282.347,-289.167"/>
</g>
<!-- git_checkout_branch&#45;&gt;common_workflow -->
<g id="edge6" class="edge"><title>git_checkout_branch&#45;&gt;common_workflow</title>
<path fill="none" stroke="black" d="M190.181,-261.687C190.181,-250.872 190.181,-238.559 190.181,-227.66"/>
<polygon fill="black" stroke="black" points="192.981,-227.649 190.181,-219.649 187.381,-227.649 192.981,-227.649"/>
</g>
<!-- git_push&#45;&gt;pull_request -->
<g id="edge8" class="edge"><title>git_push&#45;&gt;pull_request</title>
<path fill="none" stroke="black" d="M190.181,-72.6455C190.181,-63.4902 190.181,-53.4369 190.181,-44.5325"/>
<polygon fill="black" stroke="black" points="192.981,-44.4142 190.181,-36.4142 187.381,-44.4142 192.981,-44.4142"/>
</g>
</g>
</svg>
