<?xml version="1.0" encoding="UTF-8" standalone="no"?>
<!DOCTYPE svg PUBLIC "-//W3C//DTD SVG 1.1//EN"
 "http://www.w3.org/Graphics/SVG/1.1/DTD/svg11.dtd">
<!-- Generated by graphviz version 2.38.0 (20140413.2041)
 -->
<!-- Title: contributingworkflow Pages: 1 -->
<svg width="427pt" height="520pt"
 viewBox="0.00 0.00 426.50 519.88" xmlns="http://www.w3.org/2000/svg" xmlns:xlink="http://www.w3.org/1999/xlink">
<g id="graph0" class="graph" transform="scale(1 1) rotate(0) translate(4 515.876)">
<title>contributingworkflow</title>
<polygon fill="white" stroke="none" points="-4,4 -4,-515.876 422.5,-515.876 422.5,4 -4,4"/>
<!-- dot1 -->
<!-- git_switch -->
<g id="node9" class="node"><title>git_switch</title>
<polygon fill="lightyellow" stroke="black" points="200.5,-224.938 35.5,-224.938 35.5,-165.938 200.5,-165.938 200.5,-224.938"/>
<text text-anchor="start" x="49" y="-209.838" font-family="Verdana" font-weight="bold" font-size="12.00">Create a new branch</text>
<text text-anchor="start" x="46" y="-192.838" font-family="Verdana" font-weight="bold" font-size="12.00">using opened issue ID</text>
<text text-anchor="start" x="63.5" y="-174.838" font-family="Verdana" font-size="12.00">git switch &#45;c {ID}</text>
</g>
<!-- dot1&#45;&gt;git_switch -->
<g id="edge6" class="edge"><title>dot1&#45;&gt;git_switch</title>
<path fill="none" stroke="black" d="M0.0855255,-195C0.0855255,-195 27.4589,-195 27.4589,-195"/>
<polygon fill="black" stroke="black" points="27.4589,-197.8 35.4589,-195 27.4588,-192.2 27.4589,-197.8"/>
</g>
<!-- contributing_workflow -->
<g id="node2" class="node"><title>contributing_workflow</title>
<polygon fill="lightyellow" stroke="black" points="32.1894,-475.274 118,-455.969 203.811,-475.274 203.73,-506.509 32.2695,-506.509 32.1894,-475.274"/>
<text text-anchor="start" x="77" y="-487.307" font-family="Verdana" font-weight="bold" font-size="12.00">Contributing</text>
<text text-anchor="start" x="86.5" y="-475.307" font-family="Verdana" font-weight="bold" font-size="12.00">workflow</text>
</g>
<!-- open_issue -->
<g id="node4" class="node"><title>open_issue</title>
<polygon fill="lightyellow" stroke="black" points="172.5,-418.938 63.5,-418.938 63.5,-382.938 172.5,-382.938 172.5,-418.938"/>
<text text-anchor="start" x="71.5" y="-398.838" font-family="Verdana" font-weight="bold" font-size="12.00">Open an issue</text>
</g>
<!-- contributing_workflow&#45;&gt;open_issue -->
<g id="edge1" class="edge"><title>contributing_workflow&#45;&gt;open_issue</title>
<path fill="none" stroke="black" d="M118,-455.818C118,-455.818 118,-427.352 118,-427.352"/>
<polygon fill="black" stroke="black" points="120.8,-427.352 118,-419.352 115.2,-427.352 120.8,-427.352"/>
</g>
<!-- common_workflow -->
<g id="node3" class="node"><title>common_workflow</title>
<polygon fill="lightyellow" stroke="black" points="48.9029,-92.3357 118,-73.0309 187.097,-92.3357 187.033,-123.571 48.9674,-123.571 48.9029,-92.3357"/>
<text text-anchor="start" x="89" y="-104.369" font-family="Verdana" font-weight="bold" font-size="12.00">Common</text>
<text text-anchor="start" x="86.5" y="-92.369" font-family="Verdana" font-weight="bold" font-size="12.00">workflow</text>
</g>
<!-- pull_request -->
<g id="node6" class="node"><title>pull_request</title>
<polygon fill="lightyellow" stroke="black" points="210.5,-36 25.5,-36 25.5,-0 210.5,-0 210.5,-36"/>
<text text-anchor="start" x="33.5" y="-15.9" font-family="Verdana" font-weight="bold" font-size="12.00">Open a Pull Request (PR)</text>
</g>
<!-- common_workflow&#45;&gt;pull_request -->
<g id="edge8" class="edge"><title>common_workflow&#45;&gt;pull_request</title>
<path fill="none" stroke="black" d="M118,-72.8795C118,-72.8795 118,-44.4135 118,-44.4135"/>
<polygon fill="black" stroke="black" points="120.8,-44.4135 118,-36.4135 115.2,-44.4136 120.8,-44.4135"/>
</g>
<!-- open_issue&#45;&gt;dot1 -->
<g id="edge5" class="edge"><title>open_issue&#45;&gt;dot1</title>
<path fill="none" stroke="black" d="M63.4903,-400C32.5722,-400 0,-400 0,-400 0,-400 0,-201.781 0,-195.586"/>
<text text-anchor="start" x="15" y="-307.838" font-family="Verdana" font-weight="bold" font-size="12.00">ID</text>
</g>
<!-- already_forked -->
<g id="node7" class="node"><title>already_forked</title>
<polygon fill="lightyellow" stroke="black" points="118,-345.938 64.1475,-309.938 118,-273.938 171.852,-309.938 118,-345.938"/>
<text text-anchor="start" x="92.5" y="-313.338" font-family="Verdana" font-weight="bold" font-size="12.00">Already</text>
<text text-anchor="start" x="92" y="-301.338" font-family="Verdana" font-weight="bold" font-size="12.00">forked?</text>
</g>
<!-- open_issue&#45;&gt;already_forked -->
<g id="edge2" class="edge"><title>open_issue&#45;&gt;already_forked</title>
<path fill="none" stroke="black" d="M118,-382.523C118,-382.523 118,-354.006 118,-354.006"/>
<polygon fill="black" stroke="black" points="120.8,-354.006 118,-346.006 115.2,-354.006 120.8,-354.006"/>
</g>
<!-- fork_project -->
<g id="node5" class="node"><title>fork_project</title>
<polygon fill="lightyellow" stroke="black" points="401,-327.938 279,-327.938 279,-291.938 401,-291.938 401,-327.938"/>
<text text-anchor="start" x="287" y="-307.838" font-family="Verdana" font-weight="bold" font-size="12.00">Fork the project</text>
</g>
<!-- git_clone -->
<g id="node8" class="node"><title>git_clone</title>
<polygon fill="lightyellow" stroke="black" points="418.5,-216.438 261.5,-216.438 261.5,-174.438 418.5,-174.438 418.5,-216.438"/>
<text text-anchor="start" x="272" y="-201.838" font-family="Verdana" font-weight="bold" font-size="12.00">Clone from your fork</text>
<text text-anchor="start" x="292" y="-183.838" font-family="Verdana" font-size="12.00">git clone {URL}</text>
</g>
<!-- fork_project&#45;&gt;git_clone -->
<g id="edge9" class="edge"><title>fork_project&#45;&gt;git_clone</title>
<path fill="none" stroke="black" d="M340,-291.795C340,-291.795 340,-224.608 340,-224.608"/>
<polygon fill="black" stroke="black" points="342.8,-224.608 340,-216.608 337.2,-224.608 342.8,-224.608"/>
</g>
<!-- already_forked&#45;&gt;fork_project -->
<g id="edge4" class="edge"><title>already_forked&#45;&gt;fork_project</title>
<path fill="none" stroke="black" d="M170.611,-309C170.611,-309 270.72,-309 270.72,-309"/>
<polygon fill="black" stroke="black" points="270.72,-311.8 278.72,-309 270.72,-306.2 270.72,-311.8"/>
<text text-anchor="start" x="203.665" y="-313.4" font-family="Verdana" font-weight="bold" font-size="12.00">no</text>
</g>
<!-- already_forked&#45;&gt;git_switch -->
<g id="edge3" class="edge"><title>already_forked&#45;&gt;git_switch</title>
<path fill="none" stroke="black" d="M118,-273.71C118,-273.71 118,-233.297 118,-233.297"/>
<polygon fill="black" stroke="black" points="120.8,-233.297 118,-225.297 115.2,-233.297 120.8,-233.297"/>
<text text-anchor="start" x="118" y="-247.338" font-family="Verdana" font-weight="bold" font-size="12.00"> &#160;&#160;yes</text>
</g>
<!-- git_clone&#45;&gt;git_switch -->
<g id="edge10" class="edge"><title>git_clone&#45;&gt;git_switch</title>
<path fill="none" stroke="black" d="M261.419,-195C261.419,-195 208.612,-195 208.612,-195"/>
<polygon fill="black" stroke="black" points="208.612,-192.2 200.612,-195 208.612,-197.8 208.612,-192.2"/>
</g>
<!-- git_switch&#45;&gt;common_workflow -->
<g id="edge7" class="edge"><title>git_switch&#45;&gt;common_workflow</title>
<path fill="none" stroke="black" d="M118,-165.807C118,-165.807 118,-131.599 118,-131.599"/>
<polygon fill="black" stroke="black" points="120.8,-131.599 118,-123.599 115.2,-131.599 120.8,-131.599"/>
</g>
</g>
</svg>
