<?xml version="1.0" encoding="UTF-8" standalone="no"?>
<!DOCTYPE svg PUBLIC "-//W3C//DTD SVG 1.1//EN"
 "http://www.w3.org/Graphics/SVG/1.1/DTD/svg11.dtd">
<!-- Generated by graphviz version 2.38.0 (20140413.2041)
 -->
<!-- Title: initworkflow Pages: 1 -->
<svg width="496pt" height="416pt"
 viewBox="0.00 0.00 495.77 416.00" xmlns="http://www.w3.org/2000/svg" xmlns:xlink="http://www.w3.org/1999/xlink">
<g id="graph0" class="graph" transform="scale(1 1) rotate(0) translate(4 412)">
<title>initworkflow</title>
<polygon fill="white" stroke="none" points="-4,4 -4,-412 491.768,-412 491.768,4 -4,4"/>
<!-- init -->
<g id="node1" class="node"><title>init</title>
<polygon fill="lightyellow" stroke="black" points="0.23175,-384.438 140.768,-372 281.304,-384.438 281.173,-404.562 0.362924,-404.562 0.23175,-384.438"/>
<text text-anchor="start" x="56.2679" y="-387.9" font-family="Verdana" font-weight="bold" font-size="12.00">Git Initialization workflow</text>
</g>
<!-- working_dir -->
<g id="node2" class="node"><title>working_dir</title>
<polygon fill="lightyellow" stroke="black" points="140.768,-335 57.1696,-292 140.768,-249 224.366,-292 140.768,-335"/>
<text text-anchor="start" x="93.7679" y="-295.4" font-family="Verdana" font-weight="bold" font-size="12.00">Has a working</text>
<text text-anchor="start" x="107.268" y="-283.4" font-family="Verdana" font-weight="bold" font-size="12.00">directory?</text>
</g>
<!-- init&#45;&gt;working_dir -->
<g id="edge1" class="edge"><title>init&#45;&gt;working_dir</title>
<path fill="none" stroke="black" d="M140.768,-371.837C140.768,-363.752 140.768,-353.642 140.768,-343.386"/>
<polygon fill="black" stroke="black" points="143.568,-343.166 140.768,-335.166 137.968,-343.166 143.568,-343.166"/>
</g>
<!-- git_init -->
<g id="node3" class="node"><title>git_init</title>
<polygon fill="lightyellow" stroke="black" points="243.768,-200 37.7679,-200 37.7679,-158 243.768,-158 243.768,-200"/>
<text text-anchor="start" x="47.7679" y="-185.4" font-family="Verdana" font-weight="bold" font-size="12.00">Initialize the local repository</text>
<text text-anchor="start" x="119.768" y="-167.4" font-family="Verdana" font-size="12.00">git init</text>
</g>
<!-- working_dir&#45;&gt;git_init -->
<g id="edge2" class="edge"><title>working_dir&#45;&gt;git_init</title>
<path fill="none" stroke="black" d="M140.768,-248.719C140.768,-235.179 140.768,-220.525 140.768,-208.24"/>
<polygon fill="black" stroke="black" points="143.568,-208.158 140.768,-200.158 137.968,-208.158 143.568,-208.158"/>
<text text-anchor="middle" x="153.768" y="-221.4" font-family="Verdana" font-size="12.00"> yes</text>
</g>
<!-- git_clone -->
<g id="node6" class="node"><title>git_clone</title>
<polygon fill="lightyellow" stroke="black" points="487.768,-313 259.768,-313 259.768,-271 487.768,-271 487.768,-313"/>
<text text-anchor="start" x="269.768" y="-298.4" font-family="Verdana" font-weight="bold" font-size="12.00">Clone from a remote repository</text>
<text text-anchor="start" x="325.268" y="-280.4" font-family="Verdana" font-size="12.00">git clone {URL}</text>
</g>
<!-- working_dir&#45;&gt;git_clone -->
<g id="edge3" class="edge"><title>working_dir:e&#45;&gt;git_clone</title>
<path fill="none" stroke="black" d="M224.567,-292C224.567,-292 235.524,-292 251.48,-292"/>
<polygon fill="black" stroke="black" points="251.688,-294.8 259.688,-292 251.688,-289.2 251.688,-294.8"/>
<text text-anchor="middle" x="242.768" y="-306.4" font-family="Verdana" font-size="12.00">no</text>
</g>
<!-- git_add -->
<g id="node4" class="node"><title>git_add</title>
<polygon fill="lightyellow" stroke="black" points="263.768,-121 17.7679,-121 17.7679,-79 263.768,-79 263.768,-121"/>
<text text-anchor="start" x="27.7679" y="-106.4" font-family="Verdana" font-weight="bold" font-size="12.00">Put the new files into staging area</text>
<text text-anchor="start" x="114.268" y="-88.4" font-family="Verdana" font-size="12.00">git add .</text>
</g>
<!-- git_init&#45;&gt;git_add -->
<g id="edge4" class="edge"><title>git_init&#45;&gt;git_add</title>
<path fill="none" stroke="black" d="M140.768,-157.769C140.768,-149.016 140.768,-138.622 140.768,-129.135"/>
<polygon fill="black" stroke="black" points="143.568,-129.096 140.768,-121.096 137.968,-129.096 143.568,-129.096"/>
</g>
<!-- git_commit -->
<g id="node5" class="node"><title>git_commit</title>
<polygon fill="lightyellow" stroke="black" points="229.268,-42 52.2679,-42 52.2679,-0 229.268,-0 229.268,-42"/>
<text text-anchor="start" x="80.2679" y="-27.4" font-family="Verdana" font-weight="bold" font-size="12.00">Create the commit</text>
<text text-anchor="start" x="62.7679" y="-9.4" font-family="Verdana" font-size="12.00">git commit &#45;m &quot;message&quot;</text>
</g>
<!-- git_add&#45;&gt;git_commit -->
<g id="edge5" class="edge"><title>git_add&#45;&gt;git_commit</title>
<path fill="none" stroke="black" d="M140.768,-78.7692C140.768,-70.0156 140.768,-59.6217 140.768,-50.135"/>
<polygon fill="black" stroke="black" points="143.568,-50.0957 140.768,-42.0957 137.968,-50.0958 143.568,-50.0957"/>
</g>
</g>
</svg>
