<?xml version="1.0" encoding="UTF-8" standalone="no"?>
<!DOCTYPE svg PUBLIC "-//W3C//DTD SVG 1.1//EN"
 "http://www.w3.org/Graphics/SVG/1.1/DTD/svg11.dtd">
<!-- Generated by graphviz version 2.38.0 (20140413.2041)
 -->
<!-- Title: initworkflow Pages: 1 -->
<svg width="496pt" height="331pt"
 viewBox="0.00 0.00 495.77 331.00" xmlns="http://www.w3.org/2000/svg" xmlns:xlink="http://www.w3.org/1999/xlink">
<g id="graph0" class="graph" transform="scale(1 1) rotate(0) translate(4 327)">
<title>initworkflow</title>
<polygon fill="white" stroke="none" points="-4,4 -4,-327 491.768,-327 491.768,4 -4,4"/>
<!-- init -->
<g id="node1" class="node"><title>init</title>
<polygon fill="lightyellow" stroke="black" points="0.23175,-299.438 140.768,-287 281.304,-299.438 281.173,-319.562 0.362924,-319.562 0.23175,-299.438"/>
<text text-anchor="start" x="56.2679" y="-302.9" font-family="Verdana" font-weight="bold" font-size="12.00">Git Initialization workflow</text>
</g>
<!-- working_dir -->
<g id="node3" class="node"><title>working_dir</title>
<polygon fill="lightyellow" stroke="black" points="140.768,-250 57.1696,-207 140.768,-164 224.366,-207 140.768,-250"/>
<text text-anchor="start" x="93.7679" y="-210.4" font-family="Verdana" font-weight="bold" font-size="12.00">Has a working</text>
<text text-anchor="start" x="107.268" y="-198.4" font-family="Verdana" font-weight="bold" font-size="12.00">directory?</text>
</g>
<!-- init&#45;&gt;working_dir -->
<g id="edge1" class="edge"><title>init&#45;&gt;working_dir</title>
<path fill="none" stroke="black" d="M140.768,-286.567C140.768,-286.567 140.768,-258.151 140.768,-258.151"/>
<polygon fill="black" stroke="black" points="143.568,-258.151 140.768,-250.151 137.968,-258.151 143.568,-258.151"/>
</g>
<!-- common -->
<g id="node2" class="node"><title>common</title>
<polygon fill="lightyellow" stroke="black" points="34.2138,-12.4377 140.768,3.55271e-015 247.322,-12.4377 247.222,-32.5623 34.3132,-32.5623 34.2138,-12.4377"/>
<text text-anchor="start" x="78.7679" y="-15.9" font-family="Verdana" font-weight="bold" font-size="12.00">Common workflow</text>
</g>
<!-- git_init -->
<g id="node4" class="node"><title>git_init</title>
<polygon fill="lightyellow" stroke="black" points="243.768,-115 37.7679,-115 37.7679,-73 243.768,-73 243.768,-115"/>
<text text-anchor="start" x="47.7679" y="-100.4" font-family="Verdana" font-weight="bold" font-size="12.00">Initialize the local repository</text>
<text text-anchor="start" x="119.768" y="-82.4" font-family="Verdana" font-size="12.00">git init</text>
</g>
<!-- working_dir&#45;&gt;git_init -->
<g id="edge2" class="edge"><title>working_dir&#45;&gt;git_init</title>
<path fill="none" stroke="black" d="M140.768,-163.957C140.768,-163.957 140.768,-123.132 140.768,-123.132"/>
<polygon fill="black" stroke="black" points="143.568,-123.132 140.768,-115.132 137.968,-123.132 143.568,-123.132"/>
<text text-anchor="middle" x="153.768" y="-136.4" font-family="Verdana" font-size="12.00"> yes</text>
</g>
<!-- git_clone -->
<g id="node5" class="node"><title>git_clone</title>
<polygon fill="lightyellow" stroke="black" points="487.768,-228 259.768,-228 259.768,-186 487.768,-186 487.768,-228"/>
<text text-anchor="start" x="269.768" y="-213.4" font-family="Verdana" font-weight="bold" font-size="12.00">Clone from a remote repository</text>
<text text-anchor="start" x="325.268" y="-195.4" font-family="Verdana" font-size="12.00">git clone {URL}</text>
</g>
<!-- working_dir&#45;&gt;git_clone -->
<g id="edge3" class="edge"><title>working_dir&#45;&gt;git_clone</title>
<path fill="none" stroke="black" d="M224.557,-207C224.557,-207 251.48,-207 251.48,-207"/>
<polygon fill="black" stroke="black" points="251.48,-209.8 259.48,-207 251.48,-204.2 251.48,-209.8"/>
<text text-anchor="middle" x="246.019" y="-210.4" font-family="Verdana" font-size="12.00">no</text>
</g>
<!-- git_init&#45;&gt;common -->
<g id="edge4" class="edge"><title>git_init&#45;&gt;common</title>
<path fill="none" stroke="black" d="M140.768,-72.8298C140.768,-72.8298 140.768,-40.5664 140.768,-40.5664"/>
<polygon fill="black" stroke="black" points="143.568,-40.5664 140.768,-32.5664 137.968,-40.5665 143.568,-40.5664"/>
</g>
<!-- git_clone&#45;&gt;common -->
<g id="edge5" class="edge"><title>git_clone&#45;&gt;common:e</title>
<path fill="none" stroke="black" d="M373.768,-185.687C373.768,-136.258 373.768,-18 373.768,-18 373.768,-18 255.768,-18 255.768,-18"/>
<polygon fill="black" stroke="black" points="255.768,-15.2001 247.768,-18 255.768,-20.8001 255.768,-15.2001"/>
</g>
</g>
</svg>
