<?xml version="1.0" encoding="UTF-8" standalone="no"?>
<!DOCTYPE svg PUBLIC "-//W3C//DTD SVG 1.1//EN"
 "http://www.w3.org/Graphics/SVG/1.1/DTD/svg11.dtd">
<!-- Generated by graphviz version 2.38.0 (20140413.2041)
 -->
<!-- Title: initworkflow Pages: 1 -->
<svg width="531pt" height="414pt"
 viewBox="0.00 0.00 530.77 414.00" xmlns="http://www.w3.org/2000/svg" xmlns:xlink="http://www.w3.org/1999/xlink">
<g id="graph0" class="graph" transform="scale(1 1) rotate(0) translate(4 410)">
<title>initworkflow</title>
<polygon fill="white" stroke="none" points="-4,4 -4,-410 526.768,-410 526.768,4 -4,4"/>
<!-- init -->
<g id="node1" class="node"><title>init</title>
<polygon fill="lightyellow" stroke="black" points="0.23175,-382.438 140.768,-370 281.304,-382.438 281.173,-402.562 0.362924,-402.562 0.23175,-382.438"/>
<text text-anchor="start" x="56.2679" y="-385.9" font-family="Verdana" font-weight="bold" font-size="12.00">Git Initialization workflow</text>
</g>
<!-- local_repository -->
<g id="node2" class="node"><title>local_repository</title>
<polygon fill="lightyellow" stroke="black" points="140.768,-333 22.7679,-291 140.768,-249 258.768,-291 140.768,-333"/>
<text text-anchor="start" x="91.7679" y="-297.4" font-family="Verdana" font-weight="bold" font-size="12.00">Is there a local</text>
<text text-anchor="start" x="102.768" y="-280.4" font-family="Verdana" font-weight="bold" font-size="12.00">repository?</text>
</g>
<!-- init&#45;&gt;local_repository -->
<g id="edge1" class="edge"><title>init&#45;&gt;local_repository</title>
<path fill="none" stroke="black" d="M140.768,-369.576C140.768,-361.545 140.768,-351.566 140.768,-341.468"/>
<polygon fill="black" stroke="black" points="143.568,-341.379 140.768,-333.379 137.968,-341.379 143.568,-341.379"/>
</g>
<!-- git_init -->
<g id="node3" class="node"><title>git_init</title>
<polygon fill="lightyellow" stroke="black" points="243.768,-200 37.7679,-200 37.7679,-158 243.768,-158 243.768,-200"/>
<text text-anchor="start" x="47.7679" y="-185.4" font-family="Verdana" font-weight="bold" font-size="12.00">Initialize the local repository</text>
<text text-anchor="start" x="119.768" y="-167.4" font-family="Verdana" font-size="12.00">git init</text>
</g>
<!-- local_repository&#45;&gt;git_init -->
<g id="edge2" class="edge"><title>local_repository&#45;&gt;git_init</title>
<path fill="none" stroke="black" d="M140.768,-248.727C140.768,-235.254 140.768,-220.608 140.768,-208.31"/>
<polygon fill="black" stroke="black" points="143.568,-208.216 140.768,-200.216 137.968,-208.216 143.568,-208.216"/>
<text text-anchor="middle" x="153.768" y="-221.4" font-family="Verdana" font-size="12.00"> yes</text>
</g>
<!-- git_clone -->
<g id="node6" class="node"><title>git_clone</title>
<polygon fill="lightyellow" stroke="black" points="522.768,-312 294.768,-312 294.768,-270 522.768,-270 522.768,-312"/>
<text text-anchor="start" x="304.768" y="-297.4" font-family="Verdana" font-weight="bold" font-size="12.00">Clone from a remote repository</text>
<text text-anchor="start" x="360.268" y="-279.4" font-family="Verdana" font-size="12.00">git clone {URL}</text>
</g>
<!-- local_repository&#45;&gt;git_clone -->
<g id="edge3" class="edge"><title>local_repository:e&#45;&gt;git_clone</title>
<path fill="none" stroke="black" d="M258.768,-291C258.768,-291 269.921,-291 286.124,-291"/>
<polygon fill="black" stroke="black" points="286.457,-293.8 294.457,-291 286.457,-288.2 286.457,-293.8"/>
<text text-anchor="middle" x="276.768" y="-305.4" font-family="Verdana" font-size="12.00">no</text>
</g>
<!-- git_add -->
<g id="node4" class="node"><title>git_add</title>
<polygon fill="lightyellow" stroke="black" points="263.768,-121 17.7679,-121 17.7679,-79 263.768,-79 263.768,-121"/>
<text text-anchor="start" x="27.7679" y="-106.4" font-family="Verdana" font-weight="bold" font-size="12.00">Put the new files into staging area</text>
<text text-anchor="start" x="114.268" y="-88.4" font-family="Verdana" font-size="12.00">git add .</text>
</g>
<!-- git_init&#45;&gt;git_add -->
<g id="edge4" class="edge"><title>git_init&#45;&gt;git_add</title>
<path fill="none" stroke="black" d="M140.768,-157.769C140.768,-149.016 140.768,-138.622 140.768,-129.135"/>
<polygon fill="black" stroke="black" points="143.568,-129.096 140.768,-121.096 137.968,-129.096 143.568,-129.096"/>
</g>
<!-- git_commit -->
<g id="node5" class="node"><title>git_commit</title>
<polygon fill="lightyellow" stroke="black" points="229.268,-42 52.2679,-42 52.2679,-0 229.268,-0 229.268,-42"/>
<text text-anchor="start" x="80.2679" y="-27.4" font-family="Verdana" font-weight="bold" font-size="12.00">Create the commit</text>
<text text-anchor="start" x="62.7679" y="-9.4" font-family="Verdana" font-size="12.00">git commit &#45;m &quot;message&quot;</text>
</g>
<!-- git_add&#45;&gt;git_commit -->
<g id="edge5" class="edge"><title>git_add&#45;&gt;git_commit</title>
<path fill="none" stroke="black" d="M140.768,-78.7692C140.768,-70.0156 140.768,-59.6217 140.768,-50.135"/>
<polygon fill="black" stroke="black" points="143.568,-50.0957 140.768,-42.0957 137.968,-50.0958 143.568,-50.0957"/>
</g>
</g>
</svg>
