<?xml version="1.0" encoding="UTF-8" standalone="no"?>
<!DOCTYPE svg PUBLIC "-//W3C//DTD SVG 1.1//EN"
 "http://www.w3.org/Graphics/SVG/1.1/DTD/svg11.dtd">
<!-- Generated by graphviz version 2.38.0 (20140413.2041)
 -->
<!-- Title: initworkflow Pages: 1 -->
<svg width="458pt" height="371pt"
 viewBox="0.00 0.00 458.00 370.88" xmlns="http://www.w3.org/2000/svg" xmlns:xlink="http://www.w3.org/1999/xlink">
<g id="graph0" class="graph" transform="scale(1 1) rotate(0) translate(4 366.876)">
<title>initworkflow</title>
<polygon fill="white" stroke="none" points="-4,4 -4,-366.876 454,-366.876 454,4 -4,4"/>
<!-- init_workflow -->
<g id="node1" class="node"><title>init_workflow</title>
<polygon fill="lightyellow" stroke="black" points="18.4372,-326.274 103,-306.969 187.563,-326.274 187.484,-357.509 18.5161,-357.509 18.4372,-326.274"/>
<text text-anchor="start" x="62.5" y="-338.307" font-family="Verdana" font-weight="bold" font-size="12.00">Initialization</text>
<text text-anchor="start" x="71.5" y="-326.307" font-family="Verdana" font-weight="bold" font-size="12.00">workflow</text>
</g>
<!-- working_dir -->
<g id="node3" class="node"><title>working_dir</title>
<polygon fill="lightyellow" stroke="black" points="103,-269.938 19.4017,-226.938 103,-183.938 186.598,-226.938 103,-269.938"/>
<text text-anchor="start" x="56" y="-230.338" font-family="Verdana" font-weight="bold" font-size="12.00">Has a working</text>
<text text-anchor="start" x="69.5" y="-218.338" font-family="Verdana" font-weight="bold" font-size="12.00">directory?</text>
</g>
<!-- init_workflow&#45;&gt;working_dir -->
<g id="edge1" class="edge"><title>init_workflow&#45;&gt;working_dir</title>
<path fill="none" stroke="black" d="M103,-306.821C103,-306.821 103,-277.957 103,-277.957"/>
<polygon fill="black" stroke="black" points="105.8,-277.957 103,-269.957 100.2,-277.957 105.8,-277.957"/>
</g>
<!-- common_workflow -->
<g id="node2" class="node"><title>common_workflow</title>
<polygon fill="lightyellow" stroke="black" points="33.9029,-19.3357 103,-0.0309402 172.097,-19.3357 172.033,-50.5714 33.9674,-50.5714 33.9029,-19.3357"/>
<text text-anchor="start" x="74" y="-31.369" font-family="Verdana" font-weight="bold" font-size="12.00">Common</text>
<text text-anchor="start" x="71.5" y="-19.369" font-family="Verdana" font-weight="bold" font-size="12.00">workflow</text>
</g>
<!-- git_init_workflow -->
<g id="node4" class="node"><title>git_init_workflow</title>
<polygon fill="lightyellow" stroke="black" points="206,-134.938 0,-134.938 0,-92.9381 206,-92.9381 206,-134.938"/>
<text text-anchor="start" x="10" y="-120.338" font-family="Verdana" font-weight="bold" font-size="12.00">Initialize the local repository</text>
<text text-anchor="start" x="82" y="-102.338" font-family="Verdana" font-size="12.00">git init</text>
</g>
<!-- working_dir&#45;&gt;git_init_workflow -->
<g id="edge2" class="edge"><title>working_dir&#45;&gt;git_init_workflow</title>
<path fill="none" stroke="black" d="M103,-183.895C103,-183.895 103,-143.07 103,-143.07"/>
<polygon fill="black" stroke="black" points="105.8,-143.07 103,-135.07 100.2,-143.07 105.8,-143.07"/>
<text text-anchor="start" x="103" y="-157.338" font-family="Verdana" font-weight="bold" font-size="12.00"> &#160;&#160;yes</text>
</g>
<!-- git_clone -->
<g id="node5" class="node"><title>git_clone</title>
<polygon fill="lightyellow" stroke="black" points="450,-247.938 222,-247.938 222,-205.938 450,-205.938 450,-247.938"/>
<text text-anchor="start" x="232" y="-233.338" font-family="Verdana" font-weight="bold" font-size="12.00">Clone from a remote repository</text>
<text text-anchor="start" x="287.5" y="-215.338" font-family="Verdana" font-size="12.00">git clone {URL}</text>
</g>
<!-- working_dir&#45;&gt;git_clone -->
<g id="edge3" class="edge"><title>working_dir&#45;&gt;git_clone</title>
<path fill="none" stroke="black" d="M184.819,-226C184.819,-226 213.652,-226 213.652,-226"/>
<polygon fill="black" stroke="black" points="213.652,-228.8 221.652,-226 213.652,-223.2 213.652,-228.8"/>
<text text-anchor="start" x="195.736" y="-207.9" font-family="Verdana" font-weight="bold" font-size="12.00">no &#160;&#160;&#160;</text>
</g>
<!-- git_init_workflow&#45;&gt;common_workflow -->
<g id="edge4" class="edge"><title>git_init_workflow&#45;&gt;common_workflow</title>
<path fill="none" stroke="black" d="M103,-92.6873C103,-92.6873 103,-58.7814 103,-58.7814"/>
<polygon fill="black" stroke="black" points="105.8,-58.7814 103,-50.7814 100.2,-58.7815 105.8,-58.7814"/>
</g>
<!-- git_clone&#45;&gt;common_workflow -->
<g id="edge5" class="edge"><title>git_clone&#45;&gt;common_workflow:e</title>
<path fill="none" stroke="black" d="M336,-205.919C336,-154.586 336,-27 336,-27 336,-27 180,-27 180,-27"/>
<polygon fill="black" stroke="black" points="180,-24.2001 172,-27 180,-29.8001 180,-24.2001"/>
</g>
</g>
</svg>
