<?xml version="1.0" encoding="UTF-8" standalone="no"?>
<!DOCTYPE svg PUBLIC "-//W3C//DTD SVG 1.1//EN"
 "http://www.w3.org/Graphics/SVG/1.1/DTD/svg11.dtd">
<!-- Generated by graphviz version 2.38.0 (20140413.2041)
 -->
<!-- Title: initworkflow Pages: 1 -->
<svg width="510pt" height="414pt"
 viewBox="0.00 0.00 510.00 414.00" xmlns="http://www.w3.org/2000/svg" xmlns:xlink="http://www.w3.org/1999/xlink">
<g id="graph0" class="graph" transform="scale(1 1) rotate(0) translate(4 410)">
<title>initworkflow</title>
<polygon fill="white" stroke="none" points="-4,4 -4,-410 506,-410 506,4 -4,4"/>
<!-- track_files -->
<g id="node1" class="node"><title>track_files</title>
<polygon fill="lightyellow" stroke="black" points="205.5,-406 40.5,-406 40.5,-370 205.5,-370 205.5,-406"/>
<text text-anchor="start" x="51" y="-385.4" font-family="Verdana" font-weight="bold" font-size="12.00">Track the project files</text>
</g>
<!-- local_repository -->
<g id="node2" class="node"><title>local_repository</title>
<polygon fill="lightyellow" stroke="black" points="123,-333 8,-291 123,-249 238,-291 123,-333"/>
<text text-anchor="start" x="76" y="-297.4" font-family="Verdana" font-weight="bold" font-size="12.00">is there a local</text>
<text text-anchor="start" x="85.5" y="-280.4" font-family="Verdana" font-weight="bold" font-size="12.00">repository?</text>
</g>
<!-- track_files&#45;&gt;local_repository -->
<g id="edge1" class="edge"><title>track_files&#45;&gt;local_repository</title>
<path fill="none" stroke="black" d="M123,-369.576C123,-361.545 123,-351.566 123,-341.468"/>
<polygon fill="black" stroke="black" points="125.8,-341.379 123,-333.379 120.2,-341.379 125.8,-341.379"/>
</g>
<!-- git_init -->
<g id="node3" class="node"><title>git_init</title>
<polygon fill="lightyellow" stroke="black" points="226,-200 20,-200 20,-158 226,-158 226,-200"/>
<text text-anchor="start" x="30" y="-185.4" font-family="Verdana" font-weight="bold" font-size="12.00">Initialize the local repository</text>
<text text-anchor="start" x="102" y="-167.4" font-family="Verdana" font-size="12.00">git init</text>
</g>
<!-- local_repository&#45;&gt;git_init -->
<g id="edge2" class="edge"><title>local_repository&#45;&gt;git_init</title>
<path fill="none" stroke="black" d="M123,-248.727C123,-235.254 123,-220.608 123,-208.31"/>
<polygon fill="black" stroke="black" points="125.8,-208.216 123,-200.216 120.2,-208.216 125.8,-208.216"/>
<text text-anchor="middle" x="136" y="-221.4" font-family="Verdana" font-size="12.00"> yes</text>
</g>
<!-- git_clone -->
<g id="node6" class="node"><title>git_clone</title>
<polygon fill="lightyellow" stroke="black" points="502,-312 274,-312 274,-270 502,-270 502,-312"/>
<text text-anchor="start" x="284" y="-297.4" font-family="Verdana" font-weight="bold" font-size="12.00">Clone from a remote repository</text>
<text text-anchor="start" x="339.5" y="-279.4" font-family="Verdana" font-size="12.00">git clone {URL}</text>
</g>
<!-- local_repository&#45;&gt;git_clone -->
<g id="edge3" class="edge"><title>local_repository:e&#45;&gt;git_clone</title>
<path fill="none" stroke="black" d="M238,-291C238,-291 249.153,-291 265.356,-291"/>
<polygon fill="black" stroke="black" points="265.689,-293.8 273.689,-291 265.689,-288.2 265.689,-293.8"/>
<text text-anchor="middle" x="256" y="-305.4" font-family="Verdana" font-size="12.00">no</text>
</g>
<!-- git_add -->
<g id="node4" class="node"><title>git_add</title>
<polygon fill="lightyellow" stroke="black" points="246,-121 0,-121 0,-79 246,-79 246,-121"/>
<text text-anchor="start" x="10" y="-106.4" font-family="Verdana" font-weight="bold" font-size="12.00">Put the new files into staging area</text>
<text text-anchor="start" x="96.5" y="-88.4" font-family="Verdana" font-size="12.00">git add .</text>
</g>
<!-- git_init&#45;&gt;git_add -->
<g id="edge4" class="edge"><title>git_init&#45;&gt;git_add</title>
<path fill="none" stroke="black" d="M123,-157.769C123,-149.016 123,-138.622 123,-129.135"/>
<polygon fill="black" stroke="black" points="125.8,-129.096 123,-121.096 120.2,-129.096 125.8,-129.096"/>
</g>
<!-- git_commit -->
<g id="node5" class="node"><title>git_commit</title>
<polygon fill="lightyellow" stroke="black" points="211.5,-42 34.5,-42 34.5,-0 211.5,-0 211.5,-42"/>
<text text-anchor="start" x="62.5" y="-27.4" font-family="Verdana" font-weight="bold" font-size="12.00">Create the commit</text>
<text text-anchor="start" x="45" y="-9.4" font-family="Verdana" font-size="12.00">git commit &#45;m &quot;message&quot;</text>
</g>
<!-- git_add&#45;&gt;git_commit -->
<g id="edge5" class="edge"><title>git_add&#45;&gt;git_commit</title>
<path fill="none" stroke="black" d="M123,-78.7692C123,-70.0156 123,-59.6217 123,-50.135"/>
<polygon fill="black" stroke="black" points="125.8,-50.0957 123,-42.0957 120.2,-50.0958 125.8,-50.0957"/>
</g>
</g>
</svg>
