<?xml version="1.0" encoding="UTF-8" standalone="no"?>
<!DOCTYPE svg PUBLIC "-//W3C//DTD SVG 1.1//EN"
 "http://www.w3.org/Graphics/SVG/1.1/DTD/svg11.dtd">
<!-- Generated by graphviz version 2.38.0 (20140413.2041)
 -->
<!-- Title: initworkflow Pages: 1 -->
<svg width="494pt" height="450pt"
 viewBox="0.00 0.00 494.00 449.88" xmlns="http://www.w3.org/2000/svg" xmlns:xlink="http://www.w3.org/1999/xlink">
<g id="graph0" class="graph" transform="scale(1 1) rotate(0) translate(4 445.876)">
<title>initworkflow</title>
<polygon fill="white" stroke="none" points="-4,4 -4,-445.876 490,-445.876 490,4 -4,4"/>
<!-- init_workflow -->
<g id="node1" class="node"><title>init_workflow</title>
<polygon fill="lightyellow" stroke="black" points="18.4372,-405.274 103,-385.969 187.563,-405.274 187.484,-436.509 18.5161,-436.509 18.4372,-405.274"/>
<text text-anchor="start" x="62.5" y="-417.307" font-family="Verdana" font-weight="bold" font-size="12.00">Initialization</text>
<text text-anchor="start" x="71.5" y="-405.307" font-family="Verdana" font-weight="bold" font-size="12.00">workflow</text>
</g>
<!-- working_dir -->
<g id="node4" class="node"><title>working_dir</title>
<polygon fill="lightyellow" stroke="black" points="103,-348.938 19.4017,-305.938 103,-262.938 186.598,-305.938 103,-348.938"/>
<text text-anchor="start" x="56" y="-309.338" font-family="Verdana" font-weight="bold" font-size="12.00">Has a working</text>
<text text-anchor="start" x="69.5" y="-297.338" font-family="Verdana" font-weight="bold" font-size="12.00">directory?</text>
</g>
<!-- init_workflow&#45;&gt;working_dir -->
<g id="edge1" class="edge"><title>init_workflow&#45;&gt;working_dir</title>
<path fill="none" stroke="black" d="M103,-385.821C103,-385.821 103,-356.957 103,-356.957"/>
<polygon fill="black" stroke="black" points="105.8,-356.957 103,-348.957 100.2,-356.957 105.8,-356.957"/>
</g>
<!-- common_workflow -->
<g id="node2" class="node"><title>common_workflow</title>
<polygon fill="lightyellow" stroke="black" points="33.9029,-19.3357 103,-0.0309402 172.097,-19.3357 172.033,-50.5714 33.9674,-50.5714 33.9029,-19.3357"/>
<text text-anchor="start" x="74" y="-31.369" font-family="Verdana" font-weight="bold" font-size="12.00">Common</text>
<text text-anchor="start" x="71.5" y="-19.369" font-family="Verdana" font-weight="bold" font-size="12.00">workflow</text>
</g>
<!-- gitignore -->
<g id="node3" class="node"><title>gitignore</title>
<polygon fill="lightyellow" stroke="black" points="192,-134.938 14,-134.938 14,-92.9381 192,-92.9381 192,-134.938"/>
<text text-anchor="start" x="29" y="-120.338" font-family="Verdana" font-weight="bold" font-size="12.00">Create a .gitignore file</text>
<text text-anchor="start" x="24" y="-102.338" font-family="Verdana" font-size="12.00">https://www.gitignore.io/</text>
</g>
<!-- gitignore&#45;&gt;common_workflow -->
<g id="edge6" class="edge"><title>gitignore&#45;&gt;common_workflow</title>
<path fill="none" stroke="black" d="M103,-92.6873C103,-92.6873 103,-58.7814 103,-58.7814"/>
<polygon fill="black" stroke="black" points="105.8,-58.7814 103,-50.7814 100.2,-58.7815 105.8,-58.7814"/>
</g>
<!-- git_init -->
<g id="node5" class="node"><title>git_init</title>
<polygon fill="lightyellow" stroke="black" points="206,-213.938 0,-213.938 0,-171.938 206,-171.938 206,-213.938"/>
<text text-anchor="start" x="10" y="-199.338" font-family="Verdana" font-weight="bold" font-size="12.00">Initialize the local repository</text>
<text text-anchor="start" x="82" y="-181.338" font-family="Verdana" font-size="12.00">git init</text>
</g>
<!-- working_dir&#45;&gt;git_init -->
<g id="edge2" class="edge"><title>working_dir&#45;&gt;git_init</title>
<path fill="none" stroke="black" d="M103,-262.895C103,-262.895 103,-222.07 103,-222.07"/>
<polygon fill="black" stroke="black" points="105.8,-222.07 103,-214.07 100.2,-222.07 105.8,-222.07"/>
<text text-anchor="start" x="103" y="-236.338" font-family="Verdana" font-weight="bold" font-size="12.00"> &#160;&#160;yes</text>
</g>
<!-- git_clone -->
<g id="node6" class="node"><title>git_clone</title>
<polygon fill="lightyellow" stroke="black" points="486,-326.938 258,-326.938 258,-284.938 486,-284.938 486,-326.938"/>
<text text-anchor="start" x="268" y="-312.338" font-family="Verdana" font-weight="bold" font-size="12.00">Clone from a remote repository</text>
<text text-anchor="start" x="321" y="-294.338" font-family="Verdana" font-size="12.00">git clone &lt;URL&gt;</text>
</g>
<!-- working_dir&#45;&gt;git_clone -->
<g id="edge3" class="edge"><title>working_dir&#45;&gt;git_clone</title>
<path fill="none" stroke="black" d="M184.804,-305C184.804,-305 249.869,-305 249.869,-305"/>
<polygon fill="black" stroke="black" points="249.869,-307.8 257.869,-305 249.869,-302.2 249.869,-307.8"/>
<text text-anchor="start" x="200.337" y="-309.4" font-family="Verdana" font-weight="bold" font-size="12.00">no</text>
</g>
<!-- git_init&#45;&gt;gitignore -->
<g id="edge5" class="edge"><title>git_init&#45;&gt;gitignore</title>
<path fill="none" stroke="black" d="M103,-171.768C103,-171.768 103,-143.167 103,-143.167"/>
<polygon fill="black" stroke="black" points="105.8,-143.167 103,-135.167 100.2,-143.167 105.8,-143.167"/>
</g>
<!-- git_clone&#45;&gt;common_workflow -->
<g id="edge4" class="edge"><title>git_clone&#45;&gt;common_workflow</title>
<path fill="none" stroke="black" d="M372,-284.513C372,-219.197 372,-27 372,-27 372,-27 180.274,-27 180.274,-27"/>
<polygon fill="black" stroke="black" points="180.274,-24.2001 172.274,-27 180.274,-29.8001 180.274,-24.2001"/>
</g>
</g>
</svg>
