<?xml version="1.0" encoding="UTF-8" standalone="no"?>
<!DOCTYPE svg PUBLIC "-//W3C//DTD SVG 1.1//EN"
 "http://www.w3.org/Graphics/SVG/1.1/DTD/svg11.dtd">
<!-- Generated by graphviz version 2.38.0 (20140413.2041)
 -->
<!-- Title: installconfigworkflow Pages: 1 -->
<svg width="680pt" height="636pt"
 viewBox="0.00 0.00 680.00 635.88" xmlns="http://www.w3.org/2000/svg" xmlns:xlink="http://www.w3.org/1999/xlink">
<g id="graph0" class="graph" transform="scale(1 1) rotate(0) translate(4 631.876)">
<title>installconfigworkflow</title>
<polygon fill="white" stroke="none" points="-4,4 -4,-631.876 676,-631.876 676,4 -4,4"/>
<!-- install_config_workflow -->
<g id="node1" class="node"><title>install_config_workflow</title>
<polygon fill="lightyellow" stroke="black" points="51.236,-591.274 158,-571.969 264.764,-591.274 264.664,-622.509 51.3357,-622.509 51.236,-591.274"/>
<text text-anchor="start" x="123" y="-603.307" font-family="Verdana" font-weight="bold" font-size="12.00">Install and</text>
<text text-anchor="start" x="105" y="-591.307" font-family="Verdana" font-weight="bold" font-size="12.00">config workflow</text>
</g>
<!-- already_installed -->
<g id="node3" class="node"><title>already_installed</title>
<polygon fill="lightyellow" stroke="black" points="158,-534.938 94.6478,-498.938 158,-462.938 221.352,-498.938 158,-534.938"/>
<text text-anchor="start" x="132.5" y="-508.338" font-family="Verdana" font-weight="bold" font-size="12.00">Already</text>
<text text-anchor="start" x="130.5" y="-496.338" font-family="Verdana" font-weight="bold" font-size="12.00">installed</text>
<text text-anchor="start" x="145" y="-484.338" font-family="Verdana" font-weight="bold" font-size="12.00">Git?</text>
</g>
<!-- install_config_workflow&#45;&gt;already_installed -->
<g id="edge1" class="edge"><title>install_config_workflow&#45;&gt;already_installed</title>
<path fill="none" stroke="black" d="M158,-571.782C158,-571.782 158,-543.232 158,-543.232"/>
<polygon fill="black" stroke="black" points="160.8,-543.232 158,-535.232 155.2,-543.232 160.8,-543.232"/>
</g>
<!-- init_workflow -->
<g id="node2" class="node"><title>init_workflow</title>
<polygon fill="lightyellow" stroke="black" points="73.4372,-19.3357 158,-0.0309402 242.563,-19.3357 242.484,-50.5714 73.5161,-50.5714 73.4372,-19.3357"/>
<text text-anchor="start" x="117.5" y="-31.369" font-family="Verdana" font-weight="bold" font-size="12.00">Initialization</text>
<text text-anchor="start" x="126.5" y="-19.369" font-family="Verdana" font-weight="bold" font-size="12.00">workflow</text>
</g>
<!-- which_os -->
<g id="node4" class="node"><title>which_os</title>
<polygon fill="lightyellow" stroke="black" points="327,-534.938 256.355,-498.938 327,-462.938 397.645,-498.938 327,-534.938"/>
<text text-anchor="start" x="295.5" y="-508.338" font-family="Verdana" font-weight="bold" font-size="12.00">Which OS</text>
<text text-anchor="start" x="301.5" y="-496.338" font-family="Verdana" font-weight="bold" font-size="12.00">are you</text>
<text text-anchor="start" x="298" y="-484.338" font-family="Verdana" font-weight="bold" font-size="12.00">running?</text>
</g>
<!-- already_installed&#45;&gt;which_os -->
<g id="edge3" class="edge"><title>already_installed&#45;&gt;which_os</title>
<path fill="none" stroke="black" d="M219.97,-498C219.97,-498 250.193,-498 250.193,-498"/>
<polygon fill="black" stroke="black" points="250.193,-500.8 258.193,-498 250.193,-495.2 250.193,-500.8"/>
<text text-anchor="start" x="227.081" y="-479.9" font-family="Verdana" font-weight="bold" font-size="12.00">no</text>
</g>
<!-- git_config_name -->
<g id="node8" class="node"><title>git_config_name</title>
<polygon fill="lightyellow" stroke="black" points="299,-334.938 17,-334.938 17,-292.938 299,-292.938 299,-334.938"/>
<text text-anchor="start" x="88.5" y="-320.338" font-family="Verdana" font-weight="bold" font-size="12.00">Configure your name</text>
<text text-anchor="start" x="27" y="-302.338" font-family="Verdana" font-size="12.00">git config &#45;&#45;global user.name &quot;Your Name&quot;</text>
</g>
<!-- already_installed&#45;&gt;git_config_name -->
<g id="edge2" class="edge"><title>already_installed&#45;&gt;git_config_name</title>
<path fill="none" stroke="black" d="M158,-462.829C158,-462.829 158,-342.987 158,-342.987"/>
<polygon fill="black" stroke="black" points="160.8,-342.987 158,-334.987 155.2,-342.987 160.8,-342.987"/>
<text text-anchor="start" x="158" y="-390.838" font-family="Verdana" font-weight="bold" font-size="12.00"> &#160;&#160;yes</text>
</g>
<!-- install_git_for_linux -->
<g id="node6" class="node"><title>install_git_for_linux</title>
<polygon fill="lightyellow" stroke="black" points="402,-413.938 252,-413.938 252,-371.938 402,-371.938 402,-413.938"/>
<text text-anchor="start" x="264.5" y="-399.338" font-family="Verdana" font-weight="bold" font-size="12.00">Install Git for Linux</text>
<text text-anchor="start" x="262" y="-381.338" font-family="Verdana" font-size="12.00">apt&#45;get install git&#45;all</text>
</g>
<!-- which_os&#45;&gt;install_git_for_linux -->
<g id="edge5" class="edge"><title>which_os&#45;&gt;install_git_for_linux</title>
<path fill="none" stroke="black" d="M327,-462.755C327,-462.755 327,-422.133 327,-422.133"/>
<polygon fill="black" stroke="black" points="329.8,-422.133 327,-414.133 324.2,-422.133 329.8,-422.133"/>
<text text-anchor="start" x="327" y="-436.338" font-family="Verdana" font-weight="bold" font-size="12.00"> &#160;&#160;Linux</text>
</g>
<!-- install_git_for_windows -->
<g id="node7" class="node"><title>install_git_for_windows</title>
<polygon fill="lightyellow" stroke="black" points="672,-519.938 494,-519.938 494,-477.938 672,-477.938 672,-519.938"/>
<text text-anchor="start" x="508" y="-505.338" font-family="Verdana" font-weight="bold" font-size="12.00">Install Git for Windows</text>
<text text-anchor="start" x="504" y="-487.338" font-family="Verdana" font-size="12.00">https://gitforwindows.org</text>
</g>
<!-- which_os&#45;&gt;install_git_for_windows -->
<g id="edge4" class="edge"><title>which_os&#45;&gt;install_git_for_windows</title>
<path fill="none" stroke="black" d="M395.94,-498C395.94,-498 485.689,-498 485.689,-498"/>
<polygon fill="black" stroke="black" points="485.689,-500.8 493.689,-498 485.689,-495.2 485.689,-500.8"/>
<text text-anchor="start" x="410.815" y="-479.9" font-family="Verdana" font-weight="bold" font-size="12.00">Windows</text>
</g>
<!-- connection_uses_proxy -->
<g id="node5" class="node"><title>connection_uses_proxy</title>
<polygon fill="lightyellow" stroke="black" points="158,-176.938 72.4809,-140.938 158,-104.938 243.519,-140.938 158,-176.938"/>
<text text-anchor="start" x="142" y="-150.338" font-family="Verdana" font-weight="bold" font-size="12.00">Your</text>
<text text-anchor="start" x="122" y="-138.338" font-family="Verdana" font-weight="bold" font-size="12.00">connection</text>
<text text-anchor="start" x="118" y="-126.338" font-family="Verdana" font-weight="bold" font-size="12.00">uses proxy?</text>
</g>
<!-- connection_uses_proxy&#45;&gt;init_workflow -->
<g id="edge10" class="edge"><title>connection_uses_proxy&#45;&gt;init_workflow</title>
<path fill="none" stroke="black" d="M158,-104.883C158,-104.883 158,-58.9076 158,-58.9076"/>
<polygon fill="black" stroke="black" points="160.8,-58.9076 158,-50.9076 155.2,-58.9077 160.8,-58.9076"/>
<text text-anchor="start" x="158" y="-78.3381" font-family="Verdana" font-weight="bold" font-size="12.00"> &#160;&#160;no</text>
</g>
<!-- git_config_proxy -->
<g id="node10" class="node"><title>git_config_proxy</title>
<polygon fill="lightyellow" stroke="black" points="612.5,-168.438 279.5,-168.438 279.5,-113.438 612.5,-113.438 612.5,-168.438"/>
<text text-anchor="start" x="376" y="-153.338" font-family="Verdana" font-weight="bold" font-size="12.00">Configure your proxy</text>
<text text-anchor="start" x="351.5" y="-135.338" font-family="Verdana" font-size="12.00">git config ‐‐global http.proxy</text>
<text text-anchor="start" x="290" y="-122.338" font-family="Verdana" font-size="12.00">https://username:password@proxyserver.com:port</text>
</g>
<!-- connection_uses_proxy&#45;&gt;git_config_proxy -->
<g id="edge11" class="edge"><title>connection_uses_proxy&#45;&gt;git_config_proxy</title>
<path fill="none" stroke="black" d="M241.302,-140C241.302,-140 271.346,-140 271.346,-140"/>
<polygon fill="black" stroke="black" points="271.346,-142.8 279.346,-140 271.346,-137.2 271.346,-142.8"/>
<text text-anchor="start" x="252.324" y="-121.9" font-family="Verdana" font-weight="bold" font-size="12.00">yes &#160;&#160;</text>
</g>
<!-- install_git_for_linux&#45;&gt;git_config_name -->
<g id="edge7" class="edge"><title>install_git_for_linux&#45;&gt;git_config_name</title>
<path fill="none" stroke="black" d="M275.5,-371.768C275.5,-371.768 275.5,-343.167 275.5,-343.167"/>
<polygon fill="black" stroke="black" points="278.3,-343.167 275.5,-335.167 272.7,-343.167 278.3,-343.167"/>
</g>
<!-- install_git_for_windows&#45;&gt;git_config_name -->
<g id="edge6" class="edge"><title>install_git_for_windows&#45;&gt;git_config_name</title>
<path fill="none" stroke="black" d="M553.25,-477.609C553.25,-428.769 553.25,-313 553.25,-313 553.25,-313 307.02,-313 307.02,-313"/>
<polygon fill="black" stroke="black" points="307.02,-310.2 299.02,-313 307.02,-315.8 307.02,-310.2"/>
</g>
<!-- git_config_email -->
<g id="node9" class="node"><title>git_config_email</title>
<polygon fill="lightyellow" stroke="black" points="316,-255.938 0,-255.938 0,-213.938 316,-213.938 316,-255.938"/>
<text text-anchor="start" x="86.5" y="-241.338" font-family="Verdana" font-weight="bold" font-size="12.00">Configure your e&#45;mail</text>
<text text-anchor="start" x="10" y="-223.338" font-family="Verdana" font-size="12.00">git config &#45;&#45;global user.email &quot;your@email.com&quot;</text>
</g>
<!-- git_config_name&#45;&gt;git_config_email -->
<g id="edge8" class="edge"><title>git_config_name&#45;&gt;git_config_email</title>
<path fill="none" stroke="black" d="M158,-292.768C158,-292.768 158,-264.167 158,-264.167"/>
<polygon fill="black" stroke="black" points="160.8,-264.167 158,-256.167 155.2,-264.167 160.8,-264.167"/>
</g>
<!-- git_config_email&#45;&gt;connection_uses_proxy -->
<g id="edge9" class="edge"><title>git_config_email&#45;&gt;connection_uses_proxy</title>
<path fill="none" stroke="black" d="M158,-213.608C158,-213.608 158,-185.308 158,-185.308"/>
<polygon fill="black" stroke="black" points="160.8,-185.308 158,-177.308 155.2,-185.308 160.8,-185.308"/>
</g>
<!-- git_config_proxy&#45;&gt;init_workflow -->
<g id="edge12" class="edge"><title>git_config_proxy&#45;&gt;init_workflow</title>
<path fill="none" stroke="black" d="M446,-113.357C446,-79.6365 446,-27 446,-27 446,-27 250.852,-27 250.852,-27"/>
<polygon fill="black" stroke="black" points="250.852,-24.2001 242.852,-27 250.852,-29.8001 250.852,-24.2001"/>
</g>
</g>
</svg>
