<?xml version="1.0" encoding="UTF-8" standalone="no"?>
<!DOCTYPE svg PUBLIC "-//W3C//DTD SVG 1.1//EN"
 "http://www.w3.org/Graphics/SVG/1.1/DTD/svg11.dtd">
<!-- Generated by graphviz version 2.38.0 (20140413.2041)
 -->
<!-- Title: installconfigworkflow Pages: 1 -->
<svg width="945pt" height="906pt"
 viewBox="0.00 0.00 945.00 905.88" xmlns="http://www.w3.org/2000/svg" xmlns:xlink="http://www.w3.org/1999/xlink">
<g id="graph0" class="graph" transform="scale(1 1) rotate(0) translate(4 901.876)">
<title>installconfigworkflow</title>
<polygon fill="white" stroke="none" points="-4,4 -4,-901.876 941,-901.876 941,4 -4,4"/>
<!-- dot1 -->
<!-- git_config_autocrlf_windows -->
<g id="node15" class="node"><title>git_config_autocrlf_windows</title>
<polygon fill="lightyellow" stroke="black" points="567,-413.938 326,-413.938 326,-371.938 567,-371.938 567,-413.938"/>
<text text-anchor="start" x="387" y="-399.338" font-family="Verdana" font-weight="bold" font-size="12.00">Configure autocrlf</text>
<text text-anchor="start" x="336.5" y="-381.338" font-family="Verdana" font-size="12.00">git config &#45;&#45;global core.autocrlf true</text>
</g>
<!-- dot1&#45;&gt;git_config_autocrlf_windows -->
<g id="edge12" class="edge"><title>dot1&#45;&gt;git_config_autocrlf_windows</title>
<path fill="none" stroke="black" d="M591.5,-647.891C591.5,-643.955 591.5,-392 591.5,-392 591.5,-392 575.23,-392 575.23,-392"/>
<polygon fill="black" stroke="black" points="575.23,-389.2 567.23,-392 575.23,-394.8 575.23,-389.2"/>
</g>
<!-- install_config_workflow -->
<g id="node2" class="node"><title>install_config_workflow</title>
<polygon fill="lightyellow" stroke="black" points="339.736,-861.274 446.5,-841.969 553.264,-861.274 553.164,-892.509 339.836,-892.509 339.736,-861.274"/>
<text text-anchor="start" x="411.5" y="-873.307" font-family="Verdana" font-weight="bold" font-size="12.00">Install and</text>
<text text-anchor="start" x="393.5" y="-861.307" font-family="Verdana" font-weight="bold" font-size="12.00">config workflow</text>
</g>
<!-- which_os_are_you_running -->
<g id="node7" class="node"><title>which_os_are_you_running</title>
<polygon fill="lightyellow" stroke="black" points="446.5,-804.938 375.855,-768.938 446.5,-732.938 517.145,-768.938 446.5,-804.938"/>
<text text-anchor="start" x="415" y="-778.338" font-family="Verdana" font-weight="bold" font-size="12.00">Which OS</text>
<text text-anchor="start" x="421" y="-766.338" font-family="Verdana" font-weight="bold" font-size="12.00">are you</text>
<text text-anchor="start" x="417.5" y="-754.338" font-family="Verdana" font-weight="bold" font-size="12.00">running?</text>
</g>
<!-- install_config_workflow&#45;&gt;which_os_are_you_running -->
<g id="edge1" class="edge"><title>install_config_workflow&#45;&gt;which_os_are_you_running</title>
<path fill="none" stroke="black" d="M446.5,-841.782C446.5,-841.782 446.5,-813.232 446.5,-813.232"/>
<polygon fill="black" stroke="black" points="449.3,-813.232 446.5,-805.232 443.7,-813.232 449.3,-813.232"/>
</g>
<!-- init_workflow -->
<g id="node3" class="node"><title>init_workflow</title>
<polygon fill="lightyellow" stroke="black" points="361.937,-19.3357 446.5,-0.0309402 531.063,-19.3357 530.984,-50.5714 362.016,-50.5714 361.937,-19.3357"/>
<text text-anchor="start" x="406" y="-31.369" font-family="Verdana" font-weight="bold" font-size="12.00">Initialization</text>
<text text-anchor="start" x="415" y="-19.369" font-family="Verdana" font-weight="bold" font-size="12.00">workflow</text>
</g>
<!-- already_installed_windows -->
<g id="node4" class="node"><title>already_installed_windows</title>
<polygon fill="lightyellow" stroke="black" points="446.5,-683.938 383.148,-647.938 446.5,-611.938 509.852,-647.938 446.5,-683.938"/>
<text text-anchor="start" x="421" y="-657.338" font-family="Verdana" font-weight="bold" font-size="12.00">Already</text>
<text text-anchor="start" x="419" y="-645.338" font-family="Verdana" font-weight="bold" font-size="12.00">installed</text>
<text text-anchor="start" x="433.5" y="-633.338" font-family="Verdana" font-weight="bold" font-size="12.00">Git?</text>
</g>
<!-- already_installed_windows&#45;&gt;dot1 -->
<g id="edge11" class="edge"><title>already_installed_windows&#45;&gt;dot1</title>
<path fill="none" stroke="black" d="M508.414,-647C546.593,-647 588.774,-647 591.374,-647"/>
<text text-anchor="start" x="526.894" y="-651.4" font-family="Verdana" font-weight="bold" font-size="12.00">yes</text>
</g>
<!-- install_git_for_windows -->
<g id="node10" class="node"><title>install_git_for_windows</title>
<polygon fill="lightyellow" stroke="black" points="535.5,-533.938 357.5,-533.938 357.5,-491.938 535.5,-491.938 535.5,-533.938"/>
<text text-anchor="start" x="371.5" y="-519.338" font-family="Verdana" font-weight="bold" font-size="12.00">Install Git for Windows</text>
<text text-anchor="start" x="367.5" y="-501.338" font-family="Verdana" font-size="12.00">https://gitforwindows.org</text>
</g>
<!-- already_installed_windows&#45;&gt;install_git_for_windows -->
<g id="edge3" class="edge"><title>already_installed_windows&#45;&gt;install_git_for_windows</title>
<path fill="none" stroke="black" d="M446.5,-611.761C446.5,-611.761 446.5,-542.053 446.5,-542.053"/>
<polygon fill="black" stroke="black" points="449.3,-542.053 446.5,-534.053 443.7,-542.053 449.3,-542.053"/>
<text text-anchor="start" x="446.5" y="-570.838" font-family="Verdana" font-weight="bold" font-size="12.00"> &#160;no</text>
</g>
<!-- already_installed_linux -->
<g id="node5" class="node"><title>already_installed_linux</title>
<polygon fill="lightyellow" stroke="black" points="133.5,-804.938 70.1478,-768.938 133.5,-732.938 196.852,-768.938 133.5,-804.938"/>
<text text-anchor="start" x="108" y="-778.338" font-family="Verdana" font-weight="bold" font-size="12.00">Already</text>
<text text-anchor="start" x="106" y="-766.338" font-family="Verdana" font-weight="bold" font-size="12.00">installed</text>
<text text-anchor="start" x="120.5" y="-754.338" font-family="Verdana" font-weight="bold" font-size="12.00">Git?</text>
</g>
<!-- already_installed_linux&#45;&gt;which_os_are_you_running -->
<g id="edge13" class="edge"><title>already_installed_linux&#45;&gt;which_os_are_you_running</title>
<path fill="none" stroke="black" d="M203.339,-768C203.339,-768 377.44,-768 377.44,-768"/>
<polygon fill="black" stroke="black" points="203.339,-765.2 195.339,-768 203.339,-770.8 203.339,-765.2"/>
<text text-anchor="start" x="254.389" y="-772.4" font-family="Verdana" font-weight="bold" font-size="12.00">Linux</text>
</g>
<!-- install_git_for_linux -->
<g id="node9" class="node"><title>install_git_for_linux</title>
<polygon fill="lightyellow" stroke="black" points="208.5,-593.938 58.5,-593.938 58.5,-551.938 208.5,-551.938 208.5,-593.938"/>
<text text-anchor="start" x="71" y="-579.338" font-family="Verdana" font-weight="bold" font-size="12.00">Install Git for Linux</text>
<text text-anchor="start" x="68.5" y="-561.338" font-family="Verdana" font-size="12.00">apt&#45;get install git&#45;all</text>
</g>
<!-- already_installed_linux&#45;&gt;install_git_for_linux -->
<g id="edge14" class="edge"><title>already_installed_linux&#45;&gt;install_git_for_linux</title>
<path fill="none" stroke="black" d="M133.5,-732.531C133.5,-732.531 133.5,-602.041 133.5,-602.041"/>
<polygon fill="black" stroke="black" points="136.3,-602.041 133.5,-594.041 130.7,-602.041 136.3,-602.041"/>
<text text-anchor="start" x="133.5" y="-706.338" font-family="Verdana" font-weight="bold" font-size="12.00"> &#160;&#160;no</text>
</g>
<!-- git_config_autocrlf_linux -->
<g id="node16" class="node"><title>git_config_autocrlf_linux</title>
<polygon fill="lightyellow" stroke="black" points="257.5,-334.938 9.5,-334.938 9.5,-292.938 257.5,-292.938 257.5,-334.938"/>
<text text-anchor="start" x="73.5" y="-320.338" font-family="Verdana" font-weight="bold" font-size="12.00">Configure autocrlf</text>
<text text-anchor="start" x="19.5" y="-302.338" font-family="Verdana" font-size="12.00">git config &#45;&#45;global core.autocrlf input</text>
</g>
<!-- already_installed_linux&#45;&gt;git_config_autocrlf_linux -->
<g id="edge16" class="edge"><title>already_installed_linux&#45;&gt;git_config_autocrlf_linux</title>
<path fill="none" stroke="black" d="M71.6167,-768C51.3824,-768 34,-768 34,-768 34,-768 34,-343.229 34,-343.229"/>
<polygon fill="black" stroke="black" points="36.8001,-343.229 34,-335.229 31.2001,-343.229 36.8001,-343.229"/>
<text text-anchor="start" x="0" y="-578.823" font-family="Verdana" font-weight="bold" font-size="12.00">yes &#160;&#160;</text>
</g>
<!-- already_installed_macos -->
<g id="node6" class="node"><title>already_installed_macos</title>
<polygon fill="lightyellow" stroke="black" points="759.5,-804.938 696.148,-768.938 759.5,-732.938 822.852,-768.938 759.5,-804.938"/>
<text text-anchor="start" x="734" y="-778.338" font-family="Verdana" font-weight="bold" font-size="12.00">Already</text>
<text text-anchor="start" x="732" y="-766.338" font-family="Verdana" font-weight="bold" font-size="12.00">installed</text>
<text text-anchor="start" x="746.5" y="-754.338" font-family="Verdana" font-weight="bold" font-size="12.00">Git?</text>
</g>
<!-- install_git_for_macos -->
<g id="node11" class="node"><title>install_git_for_macos</title>
<polygon fill="lightyellow" stroke="black" points="837.5,-473.938 681.5,-473.938 681.5,-431.938 837.5,-431.938 837.5,-473.938"/>
<text text-anchor="start" x="691.5" y="-459.338" font-family="Verdana" font-weight="bold" font-size="12.00">Install Git for macOS</text>
<text text-anchor="start" x="712.5" y="-441.338" font-family="Verdana" font-size="12.00">brew install git</text>
</g>
<!-- already_installed_macos&#45;&gt;install_git_for_macos -->
<g id="edge18" class="edge"><title>already_installed_macos&#45;&gt;install_git_for_macos</title>
<path fill="none" stroke="black" d="M759.5,-732.689C759.5,-732.689 759.5,-482.297 759.5,-482.297"/>
<polygon fill="black" stroke="black" points="762.3,-482.297 759.5,-474.297 756.7,-482.297 762.3,-482.297"/>
<text text-anchor="start" x="759.5" y="-645.838" font-family="Verdana" font-weight="bold" font-size="12.00"> &#160;&#160;no</text>
</g>
<!-- git_config_autocrlf_macos -->
<g id="node17" class="node"><title>git_config_autocrlf_macos</title>
<polygon fill="lightyellow" stroke="black" points="883.5,-334.938 635.5,-334.938 635.5,-292.938 883.5,-292.938 883.5,-334.938"/>
<text text-anchor="start" x="699.5" y="-320.338" font-family="Verdana" font-weight="bold" font-size="12.00">Configure autocrlf</text>
<text text-anchor="start" x="645.5" y="-302.338" font-family="Verdana" font-size="12.00">git config &#45;&#45;global core.autocrlf input</text>
</g>
<!-- already_installed_macos&#45;&gt;git_config_autocrlf_macos -->
<g id="edge20" class="edge"><title>already_installed_macos&#45;&gt;git_config_autocrlf_macos</title>
<path fill="none" stroke="black" d="M821.451,-768C842.357,-768 860.5,-768 860.5,-768 860.5,-768 860.5,-343.229 860.5,-343.229"/>
<polygon fill="black" stroke="black" points="863.3,-343.229 860.5,-335.229 857.7,-343.229 863.3,-343.229"/>
<text text-anchor="start" x="826.5" y="-579.539" font-family="Verdana" font-weight="bold" font-size="12.00">yes &#160;&#160;</text>
</g>
<!-- which_os_are_you_running&#45;&gt;already_installed_windows -->
<g id="edge2" class="edge"><title>which_os_are_you_running&#45;&gt;already_installed_windows</title>
<path fill="none" stroke="black" d="M446.5,-732.634C446.5,-732.634 446.5,-692.216 446.5,-692.216"/>
<polygon fill="black" stroke="black" points="449.3,-692.216 446.5,-684.216 443.7,-692.216 449.3,-692.216"/>
<text text-anchor="start" x="446.5" y="-706.338" font-family="Verdana" font-weight="bold" font-size="12.00"> &#160;&#160;Windows</text>
</g>
<!-- which_os_are_you_running&#45;&gt;already_installed_macos -->
<g id="edge17" class="edge"><title>which_os_are_you_running&#45;&gt;already_installed_macos</title>
<path fill="none" stroke="black" d="M515.577,-768C515.577,-768 689.757,-768 689.757,-768"/>
<polygon fill="black" stroke="black" points="689.757,-770.8 697.757,-768 689.756,-765.2 689.757,-770.8"/>
<text text-anchor="start" x="556.667" y="-772.4" font-family="Verdana" font-weight="bold" font-size="12.00">macOS</text>
</g>
<!-- connection_uses_proxy -->
<g id="node8" class="node"><title>connection_uses_proxy</title>
<polygon fill="lightyellow" stroke="black" points="446.5,-176.938 360.981,-140.938 446.5,-104.938 532.019,-140.938 446.5,-176.938"/>
<text text-anchor="start" x="430.5" y="-150.338" font-family="Verdana" font-weight="bold" font-size="12.00">Your</text>
<text text-anchor="start" x="410.5" y="-138.338" font-family="Verdana" font-weight="bold" font-size="12.00">connection</text>
<text text-anchor="start" x="406.5" y="-126.338" font-family="Verdana" font-weight="bold" font-size="12.00">uses proxy?</text>
</g>
<!-- connection_uses_proxy&#45;&gt;init_workflow -->
<g id="edge8" class="edge"><title>connection_uses_proxy&#45;&gt;init_workflow</title>
<path fill="none" stroke="black" d="M446.5,-104.883C446.5,-104.883 446.5,-58.9076 446.5,-58.9076"/>
<polygon fill="black" stroke="black" points="449.3,-58.9076 446.5,-50.9076 443.7,-58.9077 449.3,-58.9076"/>
<text text-anchor="start" x="446.5" y="-78.3381" font-family="Verdana" font-weight="bold" font-size="12.00"> &#160;&#160;no</text>
</g>
<!-- git_config_proxy -->
<g id="node14" class="node"><title>git_config_proxy</title>
<polygon fill="lightyellow" stroke="black" points="937,-168.438 604,-168.438 604,-113.438 937,-113.438 937,-168.438"/>
<text text-anchor="start" x="700.5" y="-153.338" font-family="Verdana" font-weight="bold" font-size="12.00">Configure your proxy</text>
<text text-anchor="start" x="676" y="-135.338" font-family="Verdana" font-size="12.00">git config ‐‐global http.proxy</text>
<text text-anchor="start" x="614.5" y="-122.338" font-family="Verdana" font-size="12.00">https://username:password@proxyserver.com:port</text>
</g>
<!-- connection_uses_proxy&#45;&gt;git_config_proxy -->
<g id="edge9" class="edge"><title>connection_uses_proxy&#45;&gt;git_config_proxy</title>
<path fill="none" stroke="black" d="M529.938,-140C529.938,-140 595.905,-140 595.905,-140"/>
<polygon fill="black" stroke="black" points="595.905,-142.8 603.905,-140 595.905,-137.2 595.905,-142.8"/>
<text text-anchor="start" x="539.921" y="-144.4" font-family="Verdana" font-weight="bold" font-size="12.00">yes</text>
</g>
<!-- install_git_for_linux&#45;&gt;git_config_autocrlf_linux -->
<g id="edge15" class="edge"><title>install_git_for_linux&#45;&gt;git_config_autocrlf_linux</title>
<path fill="none" stroke="black" d="M133.5,-551.743C133.5,-551.743 133.5,-343.063 133.5,-343.063"/>
<polygon fill="black" stroke="black" points="136.3,-343.063 133.5,-335.063 130.7,-343.063 136.3,-343.063"/>
</g>
<!-- install_git_for_windows&#45;&gt;git_config_autocrlf_windows -->
<g id="edge4" class="edge"><title>install_git_for_windows&#45;&gt;git_config_autocrlf_windows</title>
<path fill="none" stroke="black" d="M446.5,-491.761C446.5,-491.761 446.5,-422.307 446.5,-422.307"/>
<polygon fill="black" stroke="black" points="449.3,-422.307 446.5,-414.307 443.7,-422.307 449.3,-422.307"/>
</g>
<!-- install_git_for_macos&#45;&gt;git_config_autocrlf_macos -->
<g id="edge19" class="edge"><title>install_git_for_macos&#45;&gt;git_config_autocrlf_macos</title>
<path fill="none" stroke="black" d="M759.5,-431.827C759.5,-431.827 759.5,-343.248 759.5,-343.248"/>
<polygon fill="black" stroke="black" points="762.3,-343.248 759.5,-335.248 756.7,-343.248 762.3,-343.248"/>
</g>
<!-- git_config_name -->
<g id="node12" class="node"><title>git_config_name</title>
<polygon fill="lightyellow" stroke="black" points="587.5,-334.938 305.5,-334.938 305.5,-292.938 587.5,-292.938 587.5,-334.938"/>
<text text-anchor="start" x="377" y="-320.338" font-family="Verdana" font-weight="bold" font-size="12.00">Configure your name</text>
<text text-anchor="start" x="315.5" y="-302.338" font-family="Verdana" font-size="12.00">git config &#45;&#45;global user.name &quot;Your Name&quot;</text>
</g>
<!-- git_config_email -->
<g id="node13" class="node"><title>git_config_email</title>
<polygon fill="lightyellow" stroke="black" points="604.5,-255.938 288.5,-255.938 288.5,-213.938 604.5,-213.938 604.5,-255.938"/>
<text text-anchor="start" x="375" y="-241.338" font-family="Verdana" font-weight="bold" font-size="12.00">Configure your e&#45;mail</text>
<text text-anchor="start" x="298.5" y="-223.338" font-family="Verdana" font-size="12.00">git config &#45;&#45;global user.email &quot;your@email.com&quot;</text>
</g>
<!-- git_config_name&#45;&gt;git_config_email -->
<g id="edge6" class="edge"><title>git_config_name&#45;&gt;git_config_email</title>
<path fill="none" stroke="black" d="M446.5,-292.768C446.5,-292.768 446.5,-264.167 446.5,-264.167"/>
<polygon fill="black" stroke="black" points="449.3,-264.167 446.5,-256.167 443.7,-264.167 449.3,-264.167"/>
</g>
<!-- git_config_name&#45;&gt;git_config_autocrlf_macos -->
<g id="edge22" class="edge"><title>git_config_name&#45;&gt;git_config_autocrlf_macos</title>
<path fill="none" stroke="black" d="M595.891,-313C595.891,-313 635.487,-313 635.487,-313"/>
<polygon fill="black" stroke="black" points="595.891,-310.2 587.891,-313 595.891,-315.8 595.891,-310.2"/>
</g>
<!-- git_config_email&#45;&gt;connection_uses_proxy -->
<g id="edge7" class="edge"><title>git_config_email&#45;&gt;connection_uses_proxy</title>
<path fill="none" stroke="black" d="M446.5,-213.608C446.5,-213.608 446.5,-185.308 446.5,-185.308"/>
<polygon fill="black" stroke="black" points="449.3,-185.308 446.5,-177.308 443.7,-185.308 449.3,-185.308"/>
</g>
<!-- git_config_proxy&#45;&gt;init_workflow -->
<g id="edge10" class="edge"><title>git_config_proxy&#45;&gt;init_workflow</title>
<path fill="none" stroke="black" d="M770.5,-113.357C770.5,-79.6365 770.5,-27 770.5,-27 770.5,-27 539.204,-27 539.204,-27"/>
<polygon fill="black" stroke="black" points="539.204,-24.2001 531.204,-27 539.204,-29.8001 539.204,-24.2001"/>
</g>
<!-- git_config_autocrlf_windows&#45;&gt;git_config_name -->
<g id="edge5" class="edge"><title>git_config_autocrlf_windows&#45;&gt;git_config_name</title>
<path fill="none" stroke="black" d="M446.5,-371.768C446.5,-371.768 446.5,-343.167 446.5,-343.167"/>
<polygon fill="black" stroke="black" points="449.3,-343.167 446.5,-335.167 443.7,-343.167 449.3,-343.167"/>
</g>
<!-- git_config_autocrlf_linux&#45;&gt;git_config_name -->
<g id="edge21" class="edge"><title>git_config_autocrlf_linux&#45;&gt;git_config_name</title>
<path fill="none" stroke="black" d="M257.655,-313C257.655,-313 297.455,-313 297.455,-313"/>
<polygon fill="black" stroke="black" points="297.455,-315.8 305.455,-313 297.455,-310.2 297.455,-315.8"/>
</g>
</g>
</svg>
