<?xml version="1.0" encoding="UTF-8" standalone="no"?>
<!DOCTYPE svg PUBLIC "-//W3C//DTD SVG 1.1//EN"
 "http://www.w3.org/Graphics/SVG/1.1/DTD/svg11.dtd">
<!-- Generated by graphviz version 2.38.0 (20140413.2041)
 -->
<!-- Title: installconfigworkflow Pages: 1 -->
<svg width="680pt" height="686pt"
 viewBox="0.00 0.00 680.00 685.88" xmlns="http://www.w3.org/2000/svg" xmlns:xlink="http://www.w3.org/1999/xlink">
<g id="graph0" class="graph" transform="scale(1 1) rotate(0) translate(4 681.876)">
<title>installconfigworkflow</title>
<polygon fill="white" stroke="none" points="-4,4 -4,-681.876 676,-681.876 676,4 -4,4"/>
<!-- dot -->
<!-- git_config_name -->
<g id="node9" class="node"><title>git_config_name</title>
<polygon fill="lightyellow" stroke="black" points="299,-334.938 17,-334.938 17,-292.938 299,-292.938 299,-334.938"/>
<text text-anchor="start" x="88.5" y="-320.338" font-family="Verdana" font-weight="bold" font-size="12.00">Configure your name</text>
<text text-anchor="start" x="27" y="-302.338" font-family="Verdana" font-size="12.00">git config &#45;&#45;global user.name &quot;Your Name&quot;</text>
</g>
<!-- dot&#45;&gt;git_config_name -->
<g id="edge8" class="edge"><title>dot&#45;&gt;git_config_name</title>
<path fill="none" stroke="black" d="M327,-372.288C327,-369.212 327,-320 327,-320 327,-320 307.093,-320 307.093,-320"/>
<polygon fill="black" stroke="black" points="307.093,-317.2 299.093,-320 307.093,-322.8 307.093,-317.2"/>
</g>
<!-- install_config_workflow -->
<g id="node2" class="node"><title>install_config_workflow</title>
<polygon fill="lightyellow" stroke="black" points="51.236,-641.274 158,-621.969 264.764,-641.274 264.664,-672.509 51.3357,-672.509 51.236,-641.274"/>
<text text-anchor="start" x="123" y="-653.307" font-family="Verdana" font-weight="bold" font-size="12.00">Install and</text>
<text text-anchor="start" x="105" y="-641.307" font-family="Verdana" font-weight="bold" font-size="12.00">config workflow</text>
</g>
<!-- already_installed -->
<g id="node4" class="node"><title>already_installed</title>
<polygon fill="lightyellow" stroke="black" points="158,-584.938 94.6478,-548.938 158,-512.938 221.352,-548.938 158,-584.938"/>
<text text-anchor="start" x="132.5" y="-558.338" font-family="Verdana" font-weight="bold" font-size="12.00">Already</text>
<text text-anchor="start" x="130.5" y="-546.338" font-family="Verdana" font-weight="bold" font-size="12.00">installed</text>
<text text-anchor="start" x="145" y="-534.338" font-family="Verdana" font-weight="bold" font-size="12.00">Git?</text>
</g>
<!-- install_config_workflow&#45;&gt;already_installed -->
<g id="edge1" class="edge"><title>install_config_workflow&#45;&gt;already_installed</title>
<path fill="none" stroke="black" d="M158,-621.782C158,-621.782 158,-593.232 158,-593.232"/>
<polygon fill="black" stroke="black" points="160.8,-593.232 158,-585.232 155.2,-593.232 160.8,-593.232"/>
</g>
<!-- init_workflow -->
<g id="node3" class="node"><title>init_workflow</title>
<polygon fill="lightyellow" stroke="black" points="73.4372,-19.3357 158,-0.0309402 242.563,-19.3357 242.484,-50.5714 73.5161,-50.5714 73.4372,-19.3357"/>
<text text-anchor="start" x="117.5" y="-31.369" font-family="Verdana" font-weight="bold" font-size="12.00">Initialization</text>
<text text-anchor="start" x="126.5" y="-19.369" font-family="Verdana" font-weight="bold" font-size="12.00">workflow</text>
</g>
<!-- which_os -->
<g id="node5" class="node"><title>which_os</title>
<polygon fill="lightyellow" stroke="black" points="327,-584.938 256.355,-548.938 327,-512.938 397.645,-548.938 327,-584.938"/>
<text text-anchor="start" x="295.5" y="-558.338" font-family="Verdana" font-weight="bold" font-size="12.00">Which OS</text>
<text text-anchor="start" x="301.5" y="-546.338" font-family="Verdana" font-weight="bold" font-size="12.00">are you</text>
<text text-anchor="start" x="298" y="-534.338" font-family="Verdana" font-weight="bold" font-size="12.00">running?</text>
</g>
<!-- already_installed&#45;&gt;which_os -->
<g id="edge3" class="edge"><title>already_installed&#45;&gt;which_os</title>
<path fill="none" stroke="black" d="M219.97,-548C219.97,-548 250.193,-548 250.193,-548"/>
<polygon fill="black" stroke="black" points="250.193,-550.8 258.193,-548 250.193,-545.2 250.193,-550.8"/>
<text text-anchor="start" x="227.081" y="-529.9" font-family="Verdana" font-weight="bold" font-size="12.00">no</text>
</g>
<!-- already_installed&#45;&gt;git_config_name -->
<g id="edge2" class="edge"><title>already_installed&#45;&gt;git_config_name</title>
<path fill="none" stroke="black" d="M158,-512.734C158,-512.734 158,-343.102 158,-343.102"/>
<polygon fill="black" stroke="black" points="160.8,-343.102 158,-335.102 155.2,-343.102 160.8,-343.102"/>
<text text-anchor="start" x="158" y="-395.338" font-family="Verdana" font-weight="bold" font-size="12.00"> &#160;&#160;yes</text>
</g>
<!-- install_git_for_linux -->
<g id="node7" class="node"><title>install_git_for_linux</title>
<polygon fill="lightyellow" stroke="black" points="402,-463.938 252,-463.938 252,-421.938 402,-421.938 402,-463.938"/>
<text text-anchor="start" x="264.5" y="-449.338" font-family="Verdana" font-weight="bold" font-size="12.00">Install Git for Linux</text>
<text text-anchor="start" x="262" y="-431.338" font-family="Verdana" font-size="12.00">apt&#45;get install git&#45;all</text>
</g>
<!-- which_os&#45;&gt;install_git_for_linux -->
<g id="edge5" class="edge"><title>which_os&#45;&gt;install_git_for_linux</title>
<path fill="none" stroke="black" d="M327,-512.755C327,-512.755 327,-472.133 327,-472.133"/>
<polygon fill="black" stroke="black" points="329.8,-472.133 327,-464.133 324.2,-472.133 329.8,-472.133"/>
<text text-anchor="start" x="327" y="-486.338" font-family="Verdana" font-weight="bold" font-size="12.00"> &#160;&#160;Linux</text>
</g>
<!-- install_git_for_windows -->
<g id="node8" class="node"><title>install_git_for_windows</title>
<polygon fill="lightyellow" stroke="black" points="672,-569.938 494,-569.938 494,-527.938 672,-527.938 672,-569.938"/>
<text text-anchor="start" x="508" y="-555.338" font-family="Verdana" font-weight="bold" font-size="12.00">Install Git for Windows</text>
<text text-anchor="start" x="504" y="-537.338" font-family="Verdana" font-size="12.00">https://gitforwindows.org</text>
</g>
<!-- which_os&#45;&gt;install_git_for_windows -->
<g id="edge4" class="edge"><title>which_os&#45;&gt;install_git_for_windows</title>
<path fill="none" stroke="black" d="M395.94,-548C395.94,-548 485.689,-548 485.689,-548"/>
<polygon fill="black" stroke="black" points="485.689,-550.8 493.689,-548 485.689,-545.2 485.689,-550.8"/>
<text text-anchor="start" x="410.815" y="-529.9" font-family="Verdana" font-weight="bold" font-size="12.00">Windows</text>
</g>
<!-- connection_uses_proxy -->
<g id="node6" class="node"><title>connection_uses_proxy</title>
<polygon fill="lightyellow" stroke="black" points="158,-176.938 72.4809,-140.938 158,-104.938 243.519,-140.938 158,-176.938"/>
<text text-anchor="start" x="142" y="-150.338" font-family="Verdana" font-weight="bold" font-size="12.00">Your</text>
<text text-anchor="start" x="122" y="-138.338" font-family="Verdana" font-weight="bold" font-size="12.00">connection</text>
<text text-anchor="start" x="118" y="-126.338" font-family="Verdana" font-weight="bold" font-size="12.00">uses proxy?</text>
</g>
<!-- connection_uses_proxy&#45;&gt;init_workflow -->
<g id="edge11" class="edge"><title>connection_uses_proxy&#45;&gt;init_workflow</title>
<path fill="none" stroke="black" d="M158,-104.883C158,-104.883 158,-58.9076 158,-58.9076"/>
<polygon fill="black" stroke="black" points="160.8,-58.9076 158,-50.9076 155.2,-58.9077 160.8,-58.9076"/>
<text text-anchor="start" x="158" y="-78.3381" font-family="Verdana" font-weight="bold" font-size="12.00"> &#160;&#160;no</text>
</g>
<!-- git_config_proxy -->
<g id="node11" class="node"><title>git_config_proxy</title>
<polygon fill="lightyellow" stroke="black" points="648.5,-168.438 315.5,-168.438 315.5,-113.438 648.5,-113.438 648.5,-168.438"/>
<text text-anchor="start" x="412" y="-153.338" font-family="Verdana" font-weight="bold" font-size="12.00">Configure your proxy</text>
<text text-anchor="start" x="387.5" y="-135.338" font-family="Verdana" font-size="12.00">git config ‐‐global http.proxy</text>
<text text-anchor="start" x="326" y="-122.338" font-family="Verdana" font-size="12.00">https://username:password@proxyserver.com:port</text>
</g>
<!-- connection_uses_proxy&#45;&gt;git_config_proxy -->
<g id="edge12" class="edge"><title>connection_uses_proxy&#45;&gt;git_config_proxy</title>
<path fill="none" stroke="black" d="M241.438,-140C241.438,-140 307.405,-140 307.405,-140"/>
<polygon fill="black" stroke="black" points="307.405,-142.8 315.405,-140 307.405,-137.2 307.405,-142.8"/>
<text text-anchor="start" x="270.421" y="-121.9" font-family="Verdana" font-weight="bold" font-size="12.00">yes &#160;&#160;</text>
</g>
<!-- install_git_for_linux&#45;&gt;dot -->
<g id="edge7" class="edge"><title>install_git_for_linux&#45;&gt;dot</title>
<path fill="none" stroke="black" d="M327,-421.786C327,-401.668 327,-374.217 327,-372.521"/>
</g>
<!-- install_git_for_windows&#45;&gt;git_config_name -->
<g id="edge6" class="edge"><title>install_git_for_windows&#45;&gt;git_config_name</title>
<path fill="none" stroke="black" d="M571.25,-527.804C571.25,-468.699 571.25,-306 571.25,-306 571.25,-306 307.061,-306 307.061,-306"/>
<polygon fill="black" stroke="black" points="307.061,-303.2 299.061,-306 307.061,-308.8 307.061,-303.2"/>
</g>
<!-- git_config_email -->
<g id="node10" class="node"><title>git_config_email</title>
<polygon fill="lightyellow" stroke="black" points="316,-255.938 0,-255.938 0,-213.938 316,-213.938 316,-255.938"/>
<text text-anchor="start" x="86.5" y="-241.338" font-family="Verdana" font-weight="bold" font-size="12.00">Configure your e&#45;mail</text>
<text text-anchor="start" x="10" y="-223.338" font-family="Verdana" font-size="12.00">git config &#45;&#45;global user.email &quot;your@email.com&quot;</text>
</g>
<!-- git_config_name&#45;&gt;git_config_email -->
<g id="edge9" class="edge"><title>git_config_name&#45;&gt;git_config_email</title>
<path fill="none" stroke="black" d="M158,-292.768C158,-292.768 158,-264.167 158,-264.167"/>
<polygon fill="black" stroke="black" points="160.8,-264.167 158,-256.167 155.2,-264.167 160.8,-264.167"/>
</g>
<!-- git_config_email&#45;&gt;connection_uses_proxy -->
<g id="edge10" class="edge"><title>git_config_email&#45;&gt;connection_uses_proxy</title>
<path fill="none" stroke="black" d="M158,-213.608C158,-213.608 158,-185.308 158,-185.308"/>
<polygon fill="black" stroke="black" points="160.8,-185.308 158,-177.308 155.2,-185.308 160.8,-185.308"/>
</g>
<!-- git_config_proxy&#45;&gt;init_workflow -->
<g id="edge13" class="edge"><title>git_config_proxy&#45;&gt;init_workflow</title>
<path fill="none" stroke="black" d="M482,-113.357C482,-79.6365 482,-27 482,-27 482,-27 250.704,-27 250.704,-27"/>
<polygon fill="black" stroke="black" points="250.704,-24.2001 242.704,-27 250.704,-29.8001 250.704,-24.2001"/>
</g>
</g>
</svg>
