<?xml version="1.0" encoding="UTF-8" standalone="no"?>
<!DOCTYPE svg PUBLIC "-//W3C//DTD SVG 1.1//EN"
 "http://www.w3.org/Graphics/SVG/1.1/DTD/svg11.dtd">
<!-- Generated by graphviz version 2.38.0 (20140413.2041)
 -->
<!-- Title: mergeorrebaseworkflow Pages: 1 -->
<svg width="376pt" height="415pt"
 viewBox="0.00 0.00 376.17 414.94" xmlns="http://www.w3.org/2000/svg" xmlns:xlink="http://www.w3.org/1999/xlink">
<g id="graph0" class="graph" transform="scale(1 1) rotate(0) translate(4 410.938)">
<title>mergeorrebaseworkflow</title>
<polygon fill="white" stroke="none" points="-4,4 -4,-410.938 372.167,-410.938 372.167,4 -4,4"/>
<!-- merge_or_rebase_workflow -->
<g id="node1" class="node"><title>merge_or_rebase_workflow</title>
<polygon fill="lightyellow" stroke="black" points="-0.128187,-370.336 110.128,-351.031 220.384,-370.336 220.281,-401.571 -0.0252761,-401.571 -0.128187,-370.336"/>
<text text-anchor="start" x="55.128" y="-382.369" font-family="Verdana" font-weight="bold" font-size="12.00">Merge or rebase</text>
<text text-anchor="start" x="78.628" y="-370.369" font-family="Verdana" font-weight="bold" font-size="12.00">workflow</text>
</g>
<!-- dont_make_me_think_decision -->
<g id="node4" class="node"><title>dont_make_me_think_decision</title>
<polygon fill="lightyellow" stroke="black" points="110.128,-314 37.387,-278 110.128,-242 182.869,-278 110.128,-314"/>
<text text-anchor="start" x="72.128" y="-281.4" font-family="Verdana" font-weight="bold" font-size="12.00">Don&#39;t make</text>
<text text-anchor="start" x="78.128" y="-269.4" font-family="Verdana" font-weight="bold" font-size="12.00">me think?</text>
</g>
<!-- merge_or_rebase_workflow&#45;&gt;dont_make_me_think_decision -->
<g id="edge1" class="edge"><title>merge_or_rebase_workflow&#45;&gt;dont_make_me_think_decision</title>
<path fill="none" stroke="black" d="M110.128,-350.925C110.128,-342.072 110.128,-332.003 110.128,-322.261"/>
<polygon fill="black" stroke="black" points="112.928,-322.189 110.128,-314.189 107.328,-322.189 112.928,-322.189"/>
</g>
<!-- joining_branches_decision -->
<g id="node2" class="node"><title>joining_branches_decision</title>
<polygon fill="lightyellow" stroke="black" points="110.128,-193 42.938,-157 110.128,-121 177.318,-157 110.128,-193"/>
<text text-anchor="start" x="87.128" y="-160.4" font-family="Verdana" font-weight="bold" font-size="12.00">Joining</text>
<text text-anchor="start" x="75.628" y="-148.4" font-family="Verdana" font-weight="bold" font-size="12.00">branches?</text>
</g>
<!-- editing_commits_decision -->
<g id="node3" class="node"><title>editing_commits_decision</title>
<polygon fill="lightyellow" stroke="black" points="110.128,-72 48.489,-36 110.128,-7.10543e-015 171.767,-36 110.128,-72"/>
<text text-anchor="start" x="87.628" y="-39.4" font-family="Verdana" font-weight="bold" font-size="12.00">Editing</text>
<text text-anchor="start" x="79.128" y="-27.4" font-family="Verdana" font-weight="bold" font-size="12.00">commits?</text>
</g>
<!-- joining_branches_decision&#45;&gt;editing_commits_decision -->
<g id="edge4" class="edge"><title>joining_branches_decision&#45;&gt;editing_commits_decision</title>
<path fill="none" stroke="black" d="M110.128,-120.94C110.128,-108.222 110.128,-93.7014 110.128,-80.3536"/>
<polygon fill="black" stroke="black" points="112.928,-80.2209 110.128,-72.2209 107.328,-80.221 112.928,-80.2209"/>
<text text-anchor="start" x="110.128" y="-94.4" font-family="Verdana" font-weight="bold" font-size="12.00"> &#160;&#160;no</text>
</g>
<!-- shared_branch_decision -->
<g id="node5" class="node"><title>shared_branch_decision</title>
<polygon fill="lightyellow" stroke="black" points="293.128,-193 218.049,-157 293.128,-121 368.207,-157 293.128,-193"/>
<text text-anchor="start" x="269.128" y="-166.4" font-family="Verdana" font-weight="bold" font-size="12.00">Shared</text>
<text text-anchor="start" x="270.128" y="-154.4" font-family="Verdana" font-weight="bold" font-size="12.00">branch</text>
<text text-anchor="start" x="259.128" y="-142.4" font-family="Verdana" font-weight="bold" font-size="12.00">(master)?</text>
</g>
<!-- joining_branches_decision&#45;&gt;shared_branch_decision -->
<g id="edge5" class="edge"><title>joining_branches_decision&#45;&gt;shared_branch_decision</title>
<path fill="none" stroke="black" d="M177.231,-157C187.799,-157 198.834,-157 209.716,-157"/>
<polygon fill="black" stroke="black" points="209.998,-159.8 217.998,-157 209.998,-154.2 209.998,-159.8"/>
<text text-anchor="start" x="186.156" y="-164.4" font-family="Verdana" font-weight="bold" font-size="12.00">yes</text>
</g>
<!-- git_rebase -->
<g id="node6" class="node"><title>git_rebase</title>
<polygon fill="lightyellow" stroke="black" points="364.628,-57 221.628,-57 221.628,-15 364.628,-15 364.628,-57"/>
<text text-anchor="start" x="268.628" y="-42.4" font-family="Verdana" font-weight="bold" font-size="12.00">Rebase</text>
<text text-anchor="start" x="232.128" y="-24.4" font-family="Verdana" font-size="12.00">git rebase {branch}</text>
</g>
<!-- editing_commits_decision&#45;&gt;git_rebase -->
<g id="edge6" class="edge"><title>editing_commits_decision&#45;&gt;git_rebase</title>
<path fill="none" stroke="black" d="M171.828,-36C185.186,-36 199.495,-36 213.433,-36"/>
<polygon fill="black" stroke="black" points="213.586,-38.8001 221.586,-36 213.586,-33.2001 213.586,-38.8001"/>
<text text-anchor="start" x="185.163" y="-43.4" font-family="Verdana" font-weight="bold" font-size="12.00">yes</text>
</g>
<!-- dont_make_me_think_decision&#45;&gt;joining_branches_decision -->
<g id="edge3" class="edge"><title>dont_make_me_think_decision&#45;&gt;joining_branches_decision</title>
<path fill="none" stroke="black" d="M110.128,-241.94C110.128,-229.222 110.128,-214.701 110.128,-201.354"/>
<polygon fill="black" stroke="black" points="112.928,-201.221 110.128,-193.221 107.328,-201.221 112.928,-201.221"/>
<text text-anchor="start" x="110.128" y="-215.4" font-family="Verdana" font-weight="bold" font-size="12.00"> &#160;&#160;no</text>
</g>
<!-- git_merge -->
<g id="node7" class="node"><title>git_merge</title>
<polygon fill="lightyellow" stroke="black" points="363.128,-299 223.128,-299 223.128,-257 363.128,-257 363.128,-299"/>
<text text-anchor="start" x="271.628" y="-284.4" font-family="Verdana" font-weight="bold" font-size="12.00">Merge</text>
<text text-anchor="start" x="233.128" y="-266.4" font-family="Verdana" font-size="12.00">git merge {branch}</text>
</g>
<!-- dont_make_me_think_decision&#45;&gt;git_merge -->
<g id="edge2" class="edge"><title>dont_make_me_think_decision&#45;&gt;git_merge</title>
<path fill="none" stroke="black" d="M182.98,-278C193.465,-278 204.29,-278 214.874,-278"/>
<polygon fill="black" stroke="black" points="214.911,-280.8 222.911,-278 214.911,-275.2 214.911,-280.8"/>
<text text-anchor="start" x="191.438" y="-285.4" font-family="Verdana" font-weight="bold" font-size="12.00">yes</text>
</g>
<!-- shared_branch_decision&#45;&gt;git_rebase -->
<g id="edge8" class="edge"><title>shared_branch_decision&#45;&gt;git_rebase</title>
<path fill="none" stroke="black" d="M293.128,-120.94C293.128,-103.308 293.128,-82.2116 293.128,-65.5789"/>
<polygon fill="black" stroke="black" points="295.928,-65.33 293.128,-57.3301 290.328,-65.3301 295.928,-65.33"/>
<text text-anchor="start" x="293.128" y="-94.4" font-family="Verdana" font-weight="bold" font-size="12.00"> &#160;&#160;no</text>
</g>
<!-- shared_branch_decision&#45;&gt;git_merge -->
<g id="edge7" class="edge"><title>shared_branch_decision&#45;&gt;git_merge</title>
<path fill="none" stroke="black" d="M293.128,-193.244C293.128,-210.895 293.128,-231.983 293.128,-248.584"/>
<polygon fill="black" stroke="black" points="290.328,-248.813 293.128,-256.813 295.928,-248.813 290.328,-248.813"/>
<text text-anchor="start" x="293.128" y="-215.4" font-family="Verdana" font-weight="bold" font-size="12.00"> &#160;&#160;yes</text>
</g>
</g>
</svg>
