<?xml version="1.0" encoding="UTF-8" standalone="no"?>
<!DOCTYPE svg PUBLIC "-//W3C//DTD SVG 1.1//EN"
 "http://www.w3.org/Graphics/SVG/1.1/DTD/svg11.dtd">
<!-- Generated by graphviz version 2.38.0 (20140413.2041)
 -->
<!-- Title: sharingworkflow Pages: 1 -->
<svg width="680pt" height="968pt"
 viewBox="0.00 0.00 680.00 967.88" xmlns="http://www.w3.org/2000/svg" xmlns:xlink="http://www.w3.org/1999/xlink">
<g id="graph0" class="graph" transform="scale(1 1) rotate(0) translate(4 963.876)">
<title>sharingworkflow</title>
<polygon fill="white" stroke="none" points="-4,4 -4,-963.876 676,-963.876 676,4 -4,4"/>
<!-- sharing_workflow -->
<g id="node1" class="node"><title>sharing_workflow</title>
<polygon fill="lightyellow" stroke="black" points="326.403,-923.274 395.5,-903.969 464.597,-923.274 464.533,-954.509 326.467,-954.509 326.403,-923.274"/>
<text text-anchor="start" x="370" y="-935.307" font-family="Verdana" font-weight="bold" font-size="12.00">Sharing</text>
<text text-anchor="start" x="364" y="-923.307" font-family="Verdana" font-weight="bold" font-size="12.00">workflow</text>
</g>
<!-- have_an_account -->
<g id="node3" class="node"><title>have_an_account</title>
<polygon fill="lightyellow" stroke="black" points="395.5,-866.938 335.518,-830.938 395.5,-794.938 455.482,-830.938 395.5,-866.938"/>
<text text-anchor="start" x="368" y="-834.338" font-family="Verdana" font-weight="bold" font-size="12.00">Have an</text>
<text text-anchor="start" x="365.5" y="-822.338" font-family="Verdana" font-weight="bold" font-size="12.00">account?</text>
</g>
<!-- sharing_workflow&#45;&gt;have_an_account -->
<g id="edge1" class="edge"><title>sharing_workflow&#45;&gt;have_an_account</title>
<path fill="none" stroke="black" d="M395.5,-903.782C395.5,-903.782 395.5,-875.232 395.5,-875.232"/>
<polygon fill="black" stroke="black" points="398.3,-875.232 395.5,-867.232 392.7,-875.232 398.3,-875.232"/>
</g>
<!-- common_workflow -->
<g id="node2" class="node"><title>common_workflow</title>
<polygon fill="lightyellow" stroke="black" points="326.403,-19.3357 395.5,-0.0309402 464.597,-19.3357 464.533,-50.5714 326.467,-50.5714 326.403,-19.3357"/>
<text text-anchor="start" x="366.5" y="-31.369" font-family="Verdana" font-weight="bold" font-size="12.00">Common</text>
<text text-anchor="start" x="364" y="-19.369" font-family="Verdana" font-weight="bold" font-size="12.00">workflow</text>
</g>
<!-- created_a_remote_repository -->
<g id="node4" class="node"><title>created_a_remote_repository</title>
<polygon fill="lightyellow" stroke="black" points="395.5,-745.938 319.572,-702.938 395.5,-659.938 471.428,-702.938 395.5,-745.938"/>
<text text-anchor="start" x="362.5" y="-712.338" font-family="Verdana" font-weight="bold" font-size="12.00">Created a</text>
<text text-anchor="start" x="371" y="-700.338" font-family="Verdana" font-weight="bold" font-size="12.00">remote</text>
<text text-anchor="start" x="357.5" y="-688.338" font-family="Verdana" font-weight="bold" font-size="12.00">repository?</text>
</g>
<!-- have_an_account&#45;&gt;created_a_remote_repository -->
<g id="edge2" class="edge"><title>have_an_account&#45;&gt;created_a_remote_repository</title>
<path fill="none" stroke="black" d="M395.5,-794.601C395.5,-794.601 395.5,-754.173 395.5,-754.173"/>
<polygon fill="black" stroke="black" points="398.3,-754.173 395.5,-746.173 392.7,-754.173 398.3,-754.173"/>
<text text-anchor="start" x="395.5" y="-768.338" font-family="Verdana" font-weight="bold" font-size="12.00"> &#160;&#160;yes</text>
</g>
<!-- added_remote -->
<g id="node5" class="node"><title>added_remote</title>
<polygon fill="lightyellow" stroke="black" points="395.5,-610.938 338.833,-574.938 395.5,-538.938 452.167,-574.938 395.5,-610.938"/>
<text text-anchor="start" x="368" y="-578.338" font-family="Verdana" font-weight="bold" font-size="12.00">Added a</text>
<text text-anchor="start" x="367.5" y="-566.338" font-family="Verdana" font-weight="bold" font-size="12.00">remote?</text>
</g>
<!-- created_a_remote_repository&#45;&gt;added_remote -->
<g id="edge3" class="edge"><title>created_a_remote_repository&#45;&gt;added_remote</title>
<path fill="none" stroke="black" d="M395.5,-659.603C395.5,-659.603 395.5,-618.987 395.5,-618.987"/>
<polygon fill="black" stroke="black" points="398.3,-618.987 395.5,-610.987 392.7,-618.987 398.3,-618.987"/>
<text text-anchor="start" x="395.5" y="-633.338" font-family="Verdana" font-weight="bold" font-size="12.00"> &#160;&#160;yes</text>
</g>
<!-- create_a_remote_repository -->
<g id="node18" class="node"><title>create_a_remote_repository</title>
<polygon fill="lightyellow" stroke="black" points="672,-723.938 543,-723.938 543,-681.938 672,-681.938 672,-723.938"/>
<text text-anchor="start" x="553.5" y="-709.338" font-family="Verdana" font-weight="bold" font-size="12.00">Create a remote</text>
<text text-anchor="start" x="574" y="-692.338" font-family="Verdana" font-weight="bold" font-size="12.00">repository</text>
</g>
<!-- created_a_remote_repository&#45;&gt;create_a_remote_repository -->
<g id="edge20" class="edge"><title>created_a_remote_repository&#45;&gt;create_a_remote_repository</title>
<path fill="none" stroke="black" d="M469.945,-702C469.945,-702 534.751,-702 534.751,-702"/>
<polygon fill="black" stroke="black" points="534.751,-704.8 542.751,-702 534.751,-699.2 534.751,-704.8"/>
<text text-anchor="start" x="485.348" y="-706.4" font-family="Verdana" font-weight="bold" font-size="12.00">no</text>
</g>
<!-- sent_anything -->
<g id="node6" class="node"><title>sent_anything</title>
<polygon fill="lightyellow" stroke="black" points="395.5,-489.938 331.625,-453.938 395.5,-417.938 459.375,-453.938 395.5,-489.938"/>
<text text-anchor="start" x="380" y="-457.338" font-family="Verdana" font-weight="bold" font-size="12.00">Sent</text>
<text text-anchor="start" x="363" y="-445.338" font-family="Verdana" font-weight="bold" font-size="12.00">anything?</text>
</g>
<!-- added_remote&#45;&gt;sent_anything -->
<g id="edge4" class="edge"><title>added_remote&#45;&gt;sent_anything</title>
<path fill="none" stroke="black" d="M395.5,-538.634C395.5,-538.634 395.5,-498.216 395.5,-498.216"/>
<polygon fill="black" stroke="black" points="398.3,-498.216 395.5,-490.216 392.7,-498.216 398.3,-498.216"/>
<text text-anchor="start" x="395.5" y="-512.338" font-family="Verdana" font-weight="bold" font-size="12.00"> &#160;&#160;yes</text>
</g>
<!-- dot4 -->
<!-- added_remote&#45;&gt;dot4 -->
<g id="edge22" class="edge"><title>added_remote&#45;&gt;dot4</title>
<path fill="none" stroke="black" d="M458.924,-574C458.924,-574 607.432,-574 607.432,-574"/>
<polygon fill="black" stroke="black" points="458.924,-571.2 450.924,-574 458.924,-576.8 458.924,-571.2"/>
</g>
<!-- git_pull -->
<g id="node8" class="node"><title>git_pull</title>
<polygon fill="lightyellow" stroke="black" points="540,-368.938 251,-368.938 251,-309.938 540,-309.938 540,-368.938"/>
<text text-anchor="start" x="261.5" y="-353.838" font-family="Verdana" font-weight="bold" font-size="12.00">Receive changes from remote repository</text>
<text text-anchor="start" x="311.5" y="-336.838" font-family="Verdana" font-weight="bold" font-size="12.00">to check possible conflicts</text>
<text text-anchor="start" x="288.5" y="-318.838" font-family="Verdana" font-size="12.00">git pull &lt;remote&#45;name&gt; &lt;branch&gt;</text>
</g>
<!-- sent_anything&#45;&gt;git_pull -->
<g id="edge5" class="edge"><title>sent_anything&#45;&gt;git_pull</title>
<path fill="none" stroke="black" d="M395.5,-417.71C395.5,-417.71 395.5,-377.297 395.5,-377.297"/>
<polygon fill="black" stroke="black" points="398.3,-377.297 395.5,-369.297 392.7,-377.297 398.3,-377.297"/>
<text text-anchor="start" x="395.5" y="-391.338" font-family="Verdana" font-weight="bold" font-size="12.00"> &#160;&#160;yes</text>
</g>
<!-- are_there_conflicts -->
<g id="node7" class="node"><title>are_there_conflicts</title>
<polygon fill="lightyellow" stroke="black" points="395.5,-260.938 332.203,-224.938 395.5,-188.938 458.797,-224.938 395.5,-260.938"/>
<text text-anchor="start" x="363.5" y="-228.338" font-family="Verdana" font-weight="bold" font-size="12.00">Are there</text>
<text text-anchor="start" x="365" y="-216.338" font-family="Verdana" font-weight="bold" font-size="12.00">conflicts?</text>
</g>
<!-- git_push -->
<g id="node9" class="node"><title>git_push</title>
<polygon fill="lightyellow" stroke="black" points="516.5,-151.938 274.5,-151.938 274.5,-92.9381 516.5,-92.9381 516.5,-151.938"/>
<text text-anchor="start" x="322.5" y="-136.838" font-family="Verdana" font-weight="bold" font-size="12.00">Send the commits to a</text>
<text text-anchor="start" x="335.5" y="-119.838" font-family="Verdana" font-weight="bold" font-size="12.00">remote repository</text>
<text text-anchor="start" x="284.5" y="-101.838" font-family="Verdana" font-size="12.00">git push &lt;remote&#45;name&gt; &lt;branch&gt;</text>
</g>
<!-- are_there_conflicts&#45;&gt;git_push -->
<g id="edge7" class="edge"><title>are_there_conflicts&#45;&gt;git_push</title>
<path fill="none" stroke="black" d="M395.5,-188.8C395.5,-188.8 395.5,-160.163 395.5,-160.163"/>
<polygon fill="black" stroke="black" points="398.3,-160.163 395.5,-152.163 392.7,-160.163 398.3,-160.163"/>
<text text-anchor="start" x="367.5" y="-178.882" font-family="Verdana" font-weight="bold" font-size="12.00">no &#160;&#160;</text>
</g>
<!-- git_pull&#45;&gt;are_there_conflicts -->
<g id="edge6" class="edge"><title>git_pull&#45;&gt;are_there_conflicts</title>
<path fill="none" stroke="black" d="M395.5,-309.653C395.5,-309.653 395.5,-269.108 395.5,-269.108"/>
<polygon fill="black" stroke="black" points="398.3,-269.108 395.5,-261.108 392.7,-269.108 398.3,-269.108"/>
</g>
<!-- git_push&#45;&gt;common_workflow -->
<g id="edge8" class="edge"><title>git_push&#45;&gt;common_workflow</title>
<path fill="none" stroke="black" d="M395.5,-92.8067C395.5,-92.8067 395.5,-58.5986 395.5,-58.5986"/>
<polygon fill="black" stroke="black" points="398.3,-58.5986 395.5,-50.5986 392.7,-58.5986 398.3,-58.5986"/>
</g>
<!-- dot5 -->
<!-- git_push&#45;&gt;dot5 -->
<g id="edge9" class="edge"><title>git_push&#45;&gt;dot5</title>
<path fill="none" stroke="black" d="M524.706,-122C524.706,-122 624.347,-122 624.347,-122"/>
<polygon fill="black" stroke="black" points="524.706,-119.2 516.706,-122 524.706,-124.8 524.706,-119.2"/>
</g>
<!-- dot4&#45;&gt;create_a_remote_repository -->
<g id="edge21" class="edge"><title>dot4&#45;&gt;create_a_remote_repository</title>
<path fill="none" stroke="black" d="M607.5,-575.031C607.5,-577.892 607.5,-646.246 607.5,-681.828"/>
</g>
<!-- dot5&#45;&gt;sent_anything -->
<g id="edge10" class="edge"><title>dot5&#45;&gt;sent_anything</title>
<path fill="none" stroke="black" d="M624.5,-122.498C624.5,-127.583 624.5,-453 624.5,-453 624.5,-453 525.584,-453 457.773,-453"/>
<text text-anchor="start" x="596.5" y="-283.338" font-family="Verdana" font-weight="bold" font-size="12.00"> &#160;&#160;&#160;&#160;&#160;&#160;&#160;&#160;&#160;no</text>
</g>
<!-- fix_conflicts_workflow -->
<g id="node12" class="node"><title>fix_conflicts_workflow</title>
<polygon fill="lightyellow" stroke="black" points="110.166,-216.305 185.5,-197 260.834,-216.305 260.764,-247.54 110.236,-247.54 110.166,-216.305"/>
<text text-anchor="start" x="150.5" y="-228.338" font-family="Verdana" font-weight="bold" font-size="12.00">Fix conflict</text>
<text text-anchor="start" x="154" y="-216.338" font-family="Verdana" font-weight="bold" font-size="12.00">workflow</text>
</g>
<!-- fix_conflicts_workflow&#45;&gt;are_there_conflicts -->
<g id="edge17" class="edge"><title>fix_conflicts_workflow&#45;&gt;are_there_conflicts</title>
<path fill="none" stroke="black" d="M268.722,-224C268.722,-224 333.588,-224 333.588,-224"/>
<polygon fill="black" stroke="black" points="268.722,-221.2 260.722,-224 268.722,-226.8 268.722,-221.2"/>
<text text-anchor="start" x="278.155" y="-228.4" font-family="Verdana" font-weight="bold" font-size="12.00">yes</text>
</g>
<!-- dot3 -->
<!-- fix_conflicts_workflow&#45;&gt;dot3 -->
<g id="edge18" class="edge"><title>fix_conflicts_workflow&#45;&gt;dot3</title>
<path fill="none" stroke="black" d="M185.5,-196.929C185.5,-167.53 185.5,-125.184 185.5,-122.566"/>
</g>
<!-- create_an_account -->
<g id="node13" class="node"><title>create_an_account</title>
<polygon fill="lightyellow" stroke="black" points="264,-851.938 83,-851.938 83,-809.938 264,-809.938 264,-851.938"/>
<text text-anchor="start" x="104.5" y="-837.338" font-family="Verdana" font-weight="bold" font-size="12.00">Create an account at</text>
<text text-anchor="start" x="93.5" y="-820.338" font-family="Verdana" font-weight="bold" font-size="12.00">GitHub/Gitlab/BitBucket</text>
</g>
<!-- create_an_account&#45;&gt;have_an_account -->
<g id="edge11" class="edge"><title>create_an_account&#45;&gt;have_an_account</title>
<path fill="none" stroke="black" d="M272.116,-830C272.116,-830 336.947,-830 336.947,-830"/>
<polygon fill="black" stroke="black" points="272.116,-827.2 264.116,-830 272.116,-832.8 272.116,-827.2"/>
<text text-anchor="start" x="287.532" y="-834.4" font-family="Verdana" font-weight="bold" font-size="12.00">no</text>
</g>
<!-- dot1 -->
<!-- create_an_account&#45;&gt;dot1 -->
<g id="edge12" class="edge"><title>create_an_account&#45;&gt;dot1</title>
<path fill="none" stroke="black" d="M173.5,-809.801C173.5,-774.014 173.5,-705.133 173.5,-702.989"/>
</g>
<!-- git_remote -->
<g id="node14" class="node"><title>git_remote</title>
<polygon fill="lightyellow" stroke="black" points="267,-595.938 0,-595.938 0,-553.938 267,-553.938 267,-595.938"/>
<text text-anchor="start" x="32" y="-581.338" font-family="Verdana" font-weight="bold" font-size="12.00">Add remote repository location</text>
<text text-anchor="start" x="10.5" y="-563.338" font-family="Verdana" font-size="12.00">git remote add &lt;remote&#45;name&gt; &lt;URL&gt;</text>
</g>
<!-- git_remote&#45;&gt;added_remote -->
<g id="edge14" class="edge"><title>git_remote&#45;&gt;added_remote</title>
<path fill="none" stroke="black" d="M275.186,-574C275.186,-574 340.004,-574 340.004,-574"/>
<polygon fill="black" stroke="black" points="275.186,-571.2 267.186,-574 275.186,-576.8 275.186,-571.2"/>
<text text-anchor="start" x="290.595" y="-578.4" font-family="Verdana" font-weight="bold" font-size="12.00">no</text>
</g>
<!-- dot2 -->
<!-- git_remote&#45;&gt;dot2 -->
<g id="edge15" class="edge"><title>git_remote&#45;&gt;dot2</title>
<path fill="none" stroke="black" d="M133.5,-553.861C133.5,-519.736 133.5,-455.97 133.5,-453.985"/>
</g>
<!-- dot1&#45;&gt;created_a_remote_repository -->
<g id="edge13" class="edge"><title>dot1&#45;&gt;created_a_remote_repository</title>
<path fill="none" stroke="black" d="M173.661,-702C173.661,-702 313.056,-702 313.056,-702"/>
<polygon fill="black" stroke="black" points="313.056,-704.8 321.056,-702 313.056,-699.2 313.056,-704.8"/>
</g>
<!-- dot2&#45;&gt;sent_anything -->
<g id="edge16" class="edge"><title>dot2&#45;&gt;sent_anything</title>
<path fill="none" stroke="black" d="M133.548,-453C133.548,-453 325.262,-453 325.262,-453"/>
<polygon fill="black" stroke="black" points="325.262,-455.8 333.262,-453 325.262,-450.2 325.262,-455.8"/>
</g>
<!-- dot3&#45;&gt;git_push -->
<g id="edge19" class="edge"><title>dot3&#45;&gt;git_push</title>
<path fill="none" stroke="black" d="M185.652,-122C185.652,-122 266.245,-122 266.245,-122"/>
<polygon fill="black" stroke="black" points="266.245,-124.8 274.245,-122 266.245,-119.2 266.245,-124.8"/>
</g>
</g>
</svg>
