<?xml version="1.0" encoding="UTF-8" standalone="no"?>
<!DOCTYPE svg PUBLIC "-//W3C//DTD SVG 1.1//EN"
 "http://www.w3.org/Graphics/SVG/1.1/DTD/svg11.dtd">
<!-- Generated by graphviz version 2.38.0 (20140413.2041)
 -->
<!-- Title: sharingworkflow Pages: 1 -->
<svg width="451pt" height="375pt"
 viewBox="0.00 0.00 450.50 375.00" xmlns="http://www.w3.org/2000/svg" xmlns:xlink="http://www.w3.org/1999/xlink">
<g id="graph0" class="graph" transform="scale(1 1) rotate(0) translate(4 371)">
<title>sharingworkflow</title>
<polygon fill="white" stroke="none" points="-4,4 -4,-371 446.5,-371 446.5,4 -4,4"/>
<!-- are_there_conflicts -->
<g id="node1" class="node"><title>are_there_conflicts</title>
<polygon fill="lightyellow" stroke="black" points="144.5,-198 58.5,-153 144.5,-108 230.5,-153 144.5,-198"/>
<text text-anchor="start" x="112.5" y="-159.4" font-family="Verdana" font-weight="bold" font-size="12.00">Are there</text>
<text text-anchor="start" x="114" y="-141.4" font-family="Verdana" font-weight="bold" font-size="12.00">conflicts?</text>
</g>
<!-- fix_conflicts -->
<g id="node3" class="node"><title>fix_conflicts</title>
<polygon fill="lightyellow" stroke="black" points="442.5,-171 270.5,-171 270.5,-135 442.5,-135 442.5,-171"/>
<text text-anchor="start" x="278.5" y="-150.9" font-family="Verdana" font-weight="bold" font-size="12.00">Fix conflict(s) workflow</text>
</g>
<!-- are_there_conflicts&#45;&gt;fix_conflicts -->
<g id="edge4" class="edge"><title>are_there_conflicts:e&#45;&gt;fix_conflicts</title>
<path fill="none" stroke="black" d="M230.5,-153C230.5,-153 244.099,-153 262.326,-153"/>
<polygon fill="black" stroke="black" points="262.394,-155.8 270.394,-153 262.394,-150.2 262.394,-155.8"/>
<text text-anchor="middle" x="250.5" y="-167.4" font-family="Verdana" font-size="12.00">yes</text>
</g>
<!-- git_push -->
<g id="node5" class="node"><title>git_push</title>
<polygon fill="lightyellow" stroke="black" points="238,-59 51,-59 51,-0 238,-0 238,-59"/>
<text text-anchor="start" x="88" y="-43.9" font-family="Verdana" font-weight="bold" font-size="12.00">Send commit to a</text>
<text text-anchor="start" x="85" y="-26.9" font-family="Verdana" font-weight="bold" font-size="12.00">remote repository</text>
<text text-anchor="start" x="61.5" y="-8.9" font-family="Verdana" font-size="12.00">git push {origin} {master}</text>
</g>
<!-- are_there_conflicts&#45;&gt;git_push -->
<g id="edge3" class="edge"><title>are_there_conflicts&#45;&gt;git_push</title>
<path fill="none" stroke="black" d="M144.5,-107.792C144.5,-94.5451 144.5,-80.1623 144.5,-67.436"/>
<polygon fill="black" stroke="black" points="147.3,-67.3407 144.5,-59.3407 141.7,-67.3408 147.3,-67.3407"/>
<text text-anchor="middle" x="152.5" y="-80.4" font-family="Verdana" font-size="12.00">no</text>
</g>
<!-- share_commit -->
<g id="node2" class="node"><title>share_commit</title>
<polygon fill="lightyellow" stroke="black" points="241,-367 48,-367 48,-331 241,-331 241,-367"/>
<text text-anchor="start" x="56" y="-346.9" font-family="Verdana" font-weight="bold" font-size="12.00">Share commit(s) workflow</text>
</g>
<!-- git_pull -->
<g id="node4" class="node"><title>git_pull</title>
<polygon fill="lightyellow" stroke="black" points="289,-294 0,-294 0,-235 289,-235 289,-294"/>
<text text-anchor="start" x="10.5" y="-278.9" font-family="Verdana" font-weight="bold" font-size="12.00">Receive changes from remote repository</text>
<text text-anchor="start" x="60.5" y="-261.9" font-family="Verdana" font-weight="bold" font-size="12.00">to check possible conflicts</text>
<text text-anchor="start" x="65" y="-243.9" font-family="Verdana" font-size="12.00">git pull {origin} {master}</text>
</g>
<!-- share_commit&#45;&gt;git_pull -->
<g id="edge1" class="edge"><title>share_commit&#45;&gt;git_pull</title>
<path fill="none" stroke="black" d="M144.5,-330.906C144.5,-322.647 144.5,-312.392 144.5,-302.471"/>
<polygon fill="black" stroke="black" points="147.3,-302.268 144.5,-294.268 141.7,-302.268 147.3,-302.268"/>
</g>
<!-- git_pull&#45;&gt;are_there_conflicts -->
<g id="edge2" class="edge"><title>git_pull&#45;&gt;are_there_conflicts</title>
<path fill="none" stroke="black" d="M144.5,-234.73C144.5,-226.017 144.5,-216.162 144.5,-206.406"/>
<polygon fill="black" stroke="black" points="147.3,-206.262 144.5,-198.262 141.7,-206.262 147.3,-206.262"/>
</g>
</g>
</svg>
