<?xml version="1.0" encoding="UTF-8" standalone="no"?>
<!DOCTYPE svg PUBLIC "-//W3C//DTD SVG 1.1//EN"
 "http://www.w3.org/Graphics/SVG/1.1/DTD/svg11.dtd">
<!-- Generated by graphviz version 2.38.0 (20140413.2041)
 -->
<!-- Title: sharingworkflow Pages: 1 -->
<svg width="703pt" height="994pt"
 viewBox="0.00 0.00 703.00 993.88" xmlns="http://www.w3.org/2000/svg" xmlns:xlink="http://www.w3.org/1999/xlink">
<g id="graph0" class="graph" transform="scale(1 1) rotate(0) translate(4 989.876)">
<title>sharingworkflow</title>
<polygon fill="white" stroke="none" points="-4,4 -4,-989.876 699,-989.876 699,4 -4,4"/>
<!-- sharing_workflow -->
<g id="node1" class="node"><title>sharing_workflow</title>
<polygon fill="lightyellow" stroke="black" points="333.403,-949.274 402.5,-929.969 471.597,-949.274 471.533,-980.509 333.467,-980.509 333.403,-949.274"/>
<text text-anchor="start" x="377" y="-961.307" font-family="Verdana" font-weight="bold" font-size="12.00">Sharing</text>
<text text-anchor="start" x="371" y="-949.307" font-family="Verdana" font-weight="bold" font-size="12.00">workflow</text>
</g>
<!-- already_have_an_account -->
<g id="node3" class="node"><title>already_have_an_account</title>
<polygon fill="lightyellow" stroke="black" points="402.5,-892.938 334.714,-856.938 402.5,-820.938 470.286,-856.938 402.5,-892.938"/>
<text text-anchor="start" x="377" y="-866.338" font-family="Verdana" font-weight="bold" font-size="12.00">Already</text>
<text text-anchor="start" x="376" y="-854.338" font-family="Verdana" font-weight="bold" font-size="12.00">have an</text>
<text text-anchor="start" x="372.5" y="-842.338" font-family="Verdana" font-weight="bold" font-size="12.00">account?</text>
</g>
<!-- sharing_workflow&#45;&gt;already_have_an_account -->
<g id="edge1" class="edge"><title>sharing_workflow&#45;&gt;already_have_an_account</title>
<path fill="none" stroke="black" d="M402.5,-929.782C402.5,-929.782 402.5,-901.232 402.5,-901.232"/>
<polygon fill="black" stroke="black" points="405.3,-901.232 402.5,-893.232 399.7,-901.232 405.3,-901.232"/>
</g>
<!-- common_workflow -->
<g id="node2" class="node"><title>common_workflow</title>
<polygon fill="lightyellow" stroke="black" points="333.403,-19.3357 402.5,-0.0309402 471.597,-19.3357 471.533,-50.5714 333.467,-50.5714 333.403,-19.3357"/>
<text text-anchor="start" x="373.5" y="-31.369" font-family="Verdana" font-weight="bold" font-size="12.00">Common</text>
<text text-anchor="start" x="371" y="-19.369" font-family="Verdana" font-weight="bold" font-size="12.00">workflow</text>
</g>
<!-- already_created_a_remote_repository -->
<g id="node4" class="node"><title>already_created_a_remote_repository</title>
<polygon fill="lightyellow" stroke="black" points="402.5,-771.938 310.5,-715.938 402.5,-659.938 494.5,-715.938 402.5,-771.938"/>
<text text-anchor="start" x="377" y="-731.338" font-family="Verdana" font-weight="bold" font-size="12.00">Already</text>
<text text-anchor="start" x="370.5" y="-719.338" font-family="Verdana" font-weight="bold" font-size="12.00">created a</text>
<text text-anchor="start" x="378" y="-707.338" font-family="Verdana" font-weight="bold" font-size="12.00">remote</text>
<text text-anchor="start" x="364.5" y="-695.338" font-family="Verdana" font-weight="bold" font-size="12.00">repository?</text>
</g>
<!-- already_have_an_account&#45;&gt;already_created_a_remote_repository -->
<g id="edge2" class="edge"><title>already_have_an_account&#45;&gt;already_created_a_remote_repository</title>
<path fill="none" stroke="black" d="M402.5,-820.627C402.5,-820.627 402.5,-780.11 402.5,-780.11"/>
<polygon fill="black" stroke="black" points="405.3,-780.11 402.5,-772.11 399.7,-780.11 405.3,-780.11"/>
<text text-anchor="start" x="402.5" y="-794.338" font-family="Verdana" font-weight="bold" font-size="12.00"> &#160;&#160;yes</text>
</g>
<!-- already_added_remote -->
<g id="node5" class="node"><title>already_added_remote</title>
<polygon fill="lightyellow" stroke="black" points="402.5,-610.938 338.361,-574.938 402.5,-538.938 466.639,-574.938 402.5,-610.938"/>
<text text-anchor="start" x="377" y="-584.338" font-family="Verdana" font-weight="bold" font-size="12.00">Already</text>
<text text-anchor="start" x="375.5" y="-572.338" font-family="Verdana" font-weight="bold" font-size="12.00">added a</text>
<text text-anchor="start" x="374.5" y="-560.338" font-family="Verdana" font-weight="bold" font-size="12.00">remote?</text>
</g>
<!-- already_created_a_remote_repository&#45;&gt;already_added_remote -->
<g id="edge3" class="edge"><title>already_created_a_remote_repository&#45;&gt;already_added_remote</title>
<path fill="none" stroke="black" d="M402.5,-659.806C402.5,-659.806 402.5,-619.019 402.5,-619.019"/>
<polygon fill="black" stroke="black" points="405.3,-619.019 402.5,-611.019 399.7,-619.019 405.3,-619.019"/>
<text text-anchor="start" x="402.5" y="-633.338" font-family="Verdana" font-weight="bold" font-size="12.00"> &#160;&#160;yes</text>
</g>
<!-- create_a_remote_repository -->
<g id="node18" class="node"><title>create_a_remote_repository</title>
<polygon fill="lightyellow" stroke="black" points="695,-736.938 566,-736.938 566,-694.938 695,-694.938 695,-736.938"/>
<text text-anchor="start" x="576.5" y="-722.338" font-family="Verdana" font-weight="bold" font-size="12.00">Create a remote</text>
<text text-anchor="start" x="597" y="-705.338" font-family="Verdana" font-weight="bold" font-size="12.00">repository</text>
</g>
<!-- already_created_a_remote_repository&#45;&gt;create_a_remote_repository -->
<g id="edge20" class="edge"><title>already_created_a_remote_repository&#45;&gt;create_a_remote_repository</title>
<path fill="none" stroke="black" d="M493.267,-715C493.267,-715 557.671,-715 557.671,-715"/>
<polygon fill="black" stroke="black" points="557.671,-717.8 565.671,-715 557.671,-712.2 557.671,-717.8"/>
<text text-anchor="start" x="508.469" y="-719.4" font-family="Verdana" font-weight="bold" font-size="12.00">no</text>
</g>
<!-- already_sent_anything -->
<g id="node6" class="node"><title>already_sent_anything</title>
<polygon fill="lightyellow" stroke="black" points="402.5,-489.938 330.281,-453.938 402.5,-417.938 474.719,-453.938 402.5,-489.938"/>
<text text-anchor="start" x="377" y="-463.338" font-family="Verdana" font-weight="bold" font-size="12.00">Already</text>
<text text-anchor="start" x="388" y="-451.338" font-family="Verdana" font-weight="bold" font-size="12.00">sent</text>
<text text-anchor="start" x="370" y="-439.338" font-family="Verdana" font-weight="bold" font-size="12.00">anything?</text>
</g>
<!-- already_added_remote&#45;&gt;already_sent_anything -->
<g id="edge4" class="edge"><title>already_added_remote&#45;&gt;already_sent_anything</title>
<path fill="none" stroke="black" d="M402.5,-538.634C402.5,-538.634 402.5,-498.216 402.5,-498.216"/>
<polygon fill="black" stroke="black" points="405.3,-498.216 402.5,-490.216 399.7,-498.216 405.3,-498.216"/>
<text text-anchor="start" x="402.5" y="-512.338" font-family="Verdana" font-weight="bold" font-size="12.00"> &#160;&#160;yes</text>
</g>
<!-- dot4 -->
<!-- already_added_remote&#45;&gt;dot4 -->
<g id="edge22" class="edge"><title>already_added_remote&#45;&gt;dot4</title>
<path fill="none" stroke="black" d="M473.104,-574C473.104,-574 630.429,-574 630.429,-574"/>
<polygon fill="black" stroke="black" points="473.104,-571.2 465.104,-574 473.104,-576.8 473.104,-571.2"/>
</g>
<!-- git_pull -->
<g id="node8" class="node"><title>git_pull</title>
<polygon fill="lightyellow" stroke="black" points="547,-368.938 258,-368.938 258,-309.938 547,-309.938 547,-368.938"/>
<text text-anchor="start" x="268.5" y="-353.838" font-family="Verdana" font-weight="bold" font-size="12.00">Receive changes from remote repository</text>
<text text-anchor="start" x="318.5" y="-336.838" font-family="Verdana" font-weight="bold" font-size="12.00">to check possible conflicts</text>
<text text-anchor="start" x="295.5" y="-318.838" font-family="Verdana" font-size="12.00">git pull &lt;remote&#45;name&gt; &lt;branch&gt;</text>
</g>
<!-- already_sent_anything&#45;&gt;git_pull -->
<g id="edge5" class="edge"><title>already_sent_anything&#45;&gt;git_pull</title>
<path fill="none" stroke="black" d="M402.5,-417.71C402.5,-417.71 402.5,-377.297 402.5,-377.297"/>
<polygon fill="black" stroke="black" points="405.3,-377.297 402.5,-369.297 399.7,-377.297 405.3,-377.297"/>
<text text-anchor="start" x="402.5" y="-391.338" font-family="Verdana" font-weight="bold" font-size="12.00"> &#160;&#160;yes</text>
</g>
<!-- are_there_conflicts -->
<g id="node7" class="node"><title>are_there_conflicts</title>
<polygon fill="lightyellow" stroke="black" points="402.5,-260.938 339.203,-224.938 402.5,-188.938 465.797,-224.938 402.5,-260.938"/>
<text text-anchor="start" x="370.5" y="-228.338" font-family="Verdana" font-weight="bold" font-size="12.00">Are there</text>
<text text-anchor="start" x="372" y="-216.338" font-family="Verdana" font-weight="bold" font-size="12.00">conflicts?</text>
</g>
<!-- git_push -->
<g id="node9" class="node"><title>git_push</title>
<polygon fill="lightyellow" stroke="black" points="523.5,-151.938 281.5,-151.938 281.5,-92.9381 523.5,-92.9381 523.5,-151.938"/>
<text text-anchor="start" x="329.5" y="-136.838" font-family="Verdana" font-weight="bold" font-size="12.00">Send the commits to a</text>
<text text-anchor="start" x="342.5" y="-119.838" font-family="Verdana" font-weight="bold" font-size="12.00">remote repository</text>
<text text-anchor="start" x="291.5" y="-101.838" font-family="Verdana" font-size="12.00">git push &lt;remote&#45;name&gt; &lt;branch&gt;</text>
</g>
<!-- are_there_conflicts&#45;&gt;git_push -->
<g id="edge7" class="edge"><title>are_there_conflicts&#45;&gt;git_push</title>
<path fill="none" stroke="black" d="M402.5,-188.8C402.5,-188.8 402.5,-160.163 402.5,-160.163"/>
<polygon fill="black" stroke="black" points="405.3,-160.163 402.5,-152.163 399.7,-160.163 405.3,-160.163"/>
<text text-anchor="start" x="374.5" y="-178.882" font-family="Verdana" font-weight="bold" font-size="12.00">no &#160;&#160;</text>
</g>
<!-- git_pull&#45;&gt;are_there_conflicts -->
<g id="edge6" class="edge"><title>git_pull&#45;&gt;are_there_conflicts</title>
<path fill="none" stroke="black" d="M402.5,-309.653C402.5,-309.653 402.5,-269.108 402.5,-269.108"/>
<polygon fill="black" stroke="black" points="405.3,-269.108 402.5,-261.108 399.7,-269.108 405.3,-269.108"/>
</g>
<!-- git_push&#45;&gt;common_workflow -->
<g id="edge8" class="edge"><title>git_push&#45;&gt;common_workflow</title>
<path fill="none" stroke="black" d="M402.5,-92.8067C402.5,-92.8067 402.5,-58.5986 402.5,-58.5986"/>
<polygon fill="black" stroke="black" points="405.3,-58.5986 402.5,-50.5986 399.7,-58.5986 405.3,-58.5986"/>
</g>
<!-- dot5 -->
<!-- git_push&#45;&gt;dot5 -->
<g id="edge9" class="edge"><title>git_push&#45;&gt;dot5</title>
<path fill="none" stroke="black" d="M531.706,-122C531.706,-122 631.347,-122 631.347,-122"/>
<polygon fill="black" stroke="black" points="531.706,-119.2 523.706,-122 531.706,-124.8 531.706,-119.2"/>
</g>
<!-- dot4&#45;&gt;create_a_remote_repository -->
<g id="edge21" class="edge"><title>dot4&#45;&gt;create_a_remote_repository</title>
<path fill="none" stroke="black" d="M630.5,-575.04C630.5,-578.251 630.5,-656.301 630.5,-694.824"/>
</g>
<!-- dot5&#45;&gt;already_sent_anything -->
<g id="edge10" class="edge"><title>dot5&#45;&gt;already_sent_anything</title>
<path fill="none" stroke="black" d="M631,-122.498C631,-127.583 631,-453 631,-453 631,-453 540.061,-453 472.922,-453"/>
<text text-anchor="start" x="603.5" y="-283.338" font-family="Verdana" font-weight="bold" font-size="12.00"> &#160;&#160;&#160;&#160;&#160;&#160;&#160;&#160;&#160;no</text>
</g>
<!-- fix_conflicts_workflow -->
<g id="node12" class="node"><title>fix_conflicts_workflow</title>
<polygon fill="lightyellow" stroke="black" points="117.166,-216.305 192.5,-197 267.834,-216.305 267.764,-247.54 117.236,-247.54 117.166,-216.305"/>
<text text-anchor="start" x="157.5" y="-228.338" font-family="Verdana" font-weight="bold" font-size="12.00">Fix conflict</text>
<text text-anchor="start" x="161" y="-216.338" font-family="Verdana" font-weight="bold" font-size="12.00">workflow</text>
</g>
<!-- fix_conflicts_workflow&#45;&gt;are_there_conflicts -->
<g id="edge17" class="edge"><title>fix_conflicts_workflow&#45;&gt;are_there_conflicts</title>
<path fill="none" stroke="black" d="M275.722,-224C275.722,-224 340.588,-224 340.588,-224"/>
<polygon fill="black" stroke="black" points="275.722,-221.2 267.722,-224 275.722,-226.8 275.722,-221.2"/>
<text text-anchor="start" x="285.155" y="-228.4" font-family="Verdana" font-weight="bold" font-size="12.00">yes</text>
</g>
<!-- dot3 -->
<!-- fix_conflicts_workflow&#45;&gt;dot3 -->
<g id="edge18" class="edge"><title>fix_conflicts_workflow&#45;&gt;dot3</title>
<path fill="none" stroke="black" d="M192.5,-196.929C192.5,-167.53 192.5,-125.184 192.5,-122.566"/>
</g>
<!-- create_an_account -->
<g id="node13" class="node"><title>create_an_account</title>
<polygon fill="lightyellow" stroke="black" points="263,-877.938 82,-877.938 82,-835.938 263,-835.938 263,-877.938"/>
<text text-anchor="start" x="103.5" y="-863.338" font-family="Verdana" font-weight="bold" font-size="12.00">Create an account at</text>
<text text-anchor="start" x="92.5" y="-846.338" font-family="Verdana" font-weight="bold" font-size="12.00">GitHub/Gitlab/BitBucket</text>
</g>
<!-- create_an_account&#45;&gt;already_have_an_account -->
<g id="edge11" class="edge"><title>create_an_account&#45;&gt;already_have_an_account</title>
<path fill="none" stroke="black" d="M271.072,-856C271.072,-856 336.178,-856 336.178,-856"/>
<polygon fill="black" stroke="black" points="271.072,-853.2 263.072,-856 271.072,-858.8 271.072,-853.2"/>
<text text-anchor="start" x="286.625" y="-860.4" font-family="Verdana" font-weight="bold" font-size="12.00">no</text>
</g>
<!-- dot1 -->
<!-- create_an_account&#45;&gt;dot1 -->
<g id="edge12" class="edge"><title>create_an_account&#45;&gt;dot1</title>
<path fill="none" stroke="black" d="M172.5,-835.829C172.5,-797.109 172.5,-718.445 172.5,-715.997"/>
</g>
<!-- git_remote -->
<g id="node14" class="node"><title>git_remote</title>
<polygon fill="lightyellow" stroke="black" points="267,-595.938 0,-595.938 0,-553.938 267,-553.938 267,-595.938"/>
<text text-anchor="start" x="32" y="-581.338" font-family="Verdana" font-weight="bold" font-size="12.00">Add remote repository location</text>
<text text-anchor="start" x="10.5" y="-563.338" font-family="Verdana" font-size="12.00">git remote add &lt;remote&#45;name&gt; &lt;URL&gt;</text>
</g>
<!-- git_remote&#45;&gt;already_added_remote -->
<g id="edge14" class="edge"><title>git_remote&#45;&gt;already_added_remote</title>
<path fill="none" stroke="black" d="M275.212,-574C275.212,-574 340.027,-574 340.027,-574"/>
<polygon fill="black" stroke="black" points="275.212,-571.2 267.212,-574 275.212,-576.8 275.212,-571.2"/>
<text text-anchor="start" x="290.619" y="-578.4" font-family="Verdana" font-weight="bold" font-size="12.00">no</text>
</g>
<!-- dot2 -->
<!-- git_remote&#45;&gt;dot2 -->
<g id="edge15" class="edge"><title>git_remote&#45;&gt;dot2</title>
<path fill="none" stroke="black" d="M133.5,-553.861C133.5,-519.736 133.5,-455.97 133.5,-453.985"/>
</g>
<!-- dot1&#45;&gt;already_created_a_remote_repository -->
<g id="edge13" class="edge"><title>dot1&#45;&gt;already_created_a_remote_repository</title>
<path fill="none" stroke="black" d="M172.667,-715C172.667,-715 303.918,-715 303.918,-715"/>
<polygon fill="black" stroke="black" points="303.918,-717.8 311.918,-715 303.918,-712.2 303.918,-717.8"/>
</g>
<!-- dot2&#45;&gt;already_sent_anything -->
<g id="edge16" class="edge"><title>dot2&#45;&gt;already_sent_anything</title>
<path fill="none" stroke="black" d="M133.549,-453C133.549,-453 324.071,-453 324.071,-453"/>
<polygon fill="black" stroke="black" points="324.071,-455.8 332.071,-453 324.07,-450.2 324.071,-455.8"/>
</g>
<!-- dot3&#45;&gt;git_push -->
<g id="edge19" class="edge"><title>dot3&#45;&gt;git_push</title>
<path fill="none" stroke="black" d="M192.652,-122C192.652,-122 273.245,-122 273.245,-122"/>
<polygon fill="black" stroke="black" points="273.245,-124.8 281.245,-122 273.245,-119.2 273.245,-124.8"/>
</g>
</g>
</svg>
