<?xml version="1.0" encoding="UTF-8" standalone="no"?>
<!DOCTYPE svg PUBLIC "-//W3C//DTD SVG 1.1//EN"
 "http://www.w3.org/Graphics/SVG/1.1/DTD/svg11.dtd">
<!-- Generated by graphviz version 2.38.0 (20140413.2041)
 -->
<!-- Title: sharingworkflow Pages: 1 -->
<svg width="542pt" height="375pt"
 viewBox="0.00 0.00 541.73 375.00" xmlns="http://www.w3.org/2000/svg" xmlns:xlink="http://www.w3.org/1999/xlink">
<g id="graph0" class="graph" transform="scale(1 1) rotate(0) translate(4 371)">
<title>sharingworkflow</title>
<polygon fill="white" stroke="none" points="-4,4 -4,-371 537.731,-371 537.731,4 -4,4"/>
<!-- share_commit -->
<g id="node1" class="node"><title>share_commit</title>
<polygon fill="lightyellow" stroke="black" points="0.144731,-343.438 146.855,-331 293.566,-343.438 293.429,-363.562 0.281667,-363.562 0.144731,-343.438"/>
<text text-anchor="start" x="58.3551" y="-346.9" font-family="Verdana" font-weight="bold" font-size="12.00">Share commit(s) workflow</text>
</g>
<!-- git_pull -->
<g id="node4" class="node"><title>git_pull</title>
<polygon fill="lightyellow" stroke="black" points="291.355,-294 2.35513,-294 2.35513,-235 291.355,-235 291.355,-294"/>
<text text-anchor="start" x="12.8551" y="-278.9" font-family="Verdana" font-weight="bold" font-size="12.00">Receive changes from remote repository</text>
<text text-anchor="start" x="62.8551" y="-261.9" font-family="Verdana" font-weight="bold" font-size="12.00">to check possible conflicts</text>
<text text-anchor="start" x="67.3551" y="-243.9" font-family="Verdana" font-size="12.00">git pull {origin} {master}</text>
</g>
<!-- share_commit&#45;&gt;git_pull -->
<g id="edge1" class="edge"><title>share_commit&#45;&gt;git_pull</title>
<path fill="none" stroke="black" d="M146.855,-330.906C146.855,-322.647 146.855,-312.392 146.855,-302.471"/>
<polygon fill="black" stroke="black" points="149.655,-302.268 146.855,-294.268 144.055,-302.268 149.655,-302.268"/>
</g>
<!-- fix_conflicts -->
<g id="node2" class="node"><title>fix_conflicts</title>
<polygon fill="lightyellow" stroke="black" points="272.103,-147.438 402.855,-135 533.607,-147.438 533.485,-167.562 272.225,-167.562 272.103,-147.438"/>
<text text-anchor="start" x="324.855" y="-150.9" font-family="Verdana" font-weight="bold" font-size="12.00">Fix conflict(s) workflow</text>
</g>
<!-- are_there_conflicts -->
<g id="node3" class="node"><title>are_there_conflicts</title>
<polygon fill="lightyellow" stroke="black" points="146.855,-198 60.8551,-153 146.855,-108 232.855,-153 146.855,-198"/>
<text text-anchor="start" x="114.855" y="-159.4" font-family="Verdana" font-weight="bold" font-size="12.00">Are there</text>
<text text-anchor="start" x="116.355" y="-141.4" font-family="Verdana" font-weight="bold" font-size="12.00">conflicts?</text>
</g>
<!-- are_there_conflicts&#45;&gt;fix_conflicts -->
<g id="edge4" class="edge"><title>are_there_conflicts:e&#45;&gt;fix_conflicts</title>
<path fill="none" stroke="black" d="M232.855,-153C232.855,-153 245.491,-153 263.852,-153"/>
<polygon fill="black" stroke="black" points="264.052,-155.8 272.052,-153 264.052,-150.2 264.052,-155.8"/>
<text text-anchor="middle" x="252.855" y="-167.4" font-family="Verdana" font-size="12.00">yes</text>
</g>
<!-- git_push -->
<g id="node5" class="node"><title>git_push</title>
<polygon fill="lightyellow" stroke="black" points="240.355,-59 53.3551,-59 53.3551,-0 240.355,-0 240.355,-59"/>
<text text-anchor="start" x="90.3551" y="-43.9" font-family="Verdana" font-weight="bold" font-size="12.00">Send commit to a</text>
<text text-anchor="start" x="87.3551" y="-26.9" font-family="Verdana" font-weight="bold" font-size="12.00">remote repository</text>
<text text-anchor="start" x="63.8551" y="-8.9" font-family="Verdana" font-size="12.00">git push {origin} {master}</text>
</g>
<!-- are_there_conflicts&#45;&gt;git_push -->
<g id="edge3" class="edge"><title>are_there_conflicts&#45;&gt;git_push</title>
<path fill="none" stroke="black" d="M146.855,-107.792C146.855,-94.5451 146.855,-80.1623 146.855,-67.436"/>
<polygon fill="black" stroke="black" points="149.655,-67.3407 146.855,-59.3407 144.055,-67.3408 149.655,-67.3407"/>
<text text-anchor="middle" x="154.855" y="-80.4" font-family="Verdana" font-size="12.00">no</text>
</g>
<!-- git_pull&#45;&gt;are_there_conflicts -->
<g id="edge2" class="edge"><title>git_pull&#45;&gt;are_there_conflicts</title>
<path fill="none" stroke="black" d="M146.855,-234.73C146.855,-226.017 146.855,-216.162 146.855,-206.406"/>
<polygon fill="black" stroke="black" points="149.655,-206.262 146.855,-198.262 144.055,-206.262 149.655,-206.262"/>
</g>
</g>
</svg>
