<?xml version="1.0" encoding="UTF-8" standalone="no"?>
<!DOCTYPE svg PUBLIC "-//W3C//DTD SVG 1.1//EN"
 "http://www.w3.org/Graphics/SVG/1.1/DTD/svg11.dtd">
<!-- Generated by graphviz version 2.38.0 (20140413.2041)
 -->
<!-- Title: sharingworkflow Pages: 1 -->
<svg width="438pt" height="365pt"
 viewBox="0.00 0.00 437.67 364.94" xmlns="http://www.w3.org/2000/svg" xmlns:xlink="http://www.w3.org/1999/xlink">
<g id="graph0" class="graph" transform="scale(1 1) rotate(0) translate(4 360.938)">
<title>sharingworkflow</title>
<polygon fill="white" stroke="none" points="-4,4 -4,-360.938 433.667,-360.938 433.667,4 -4,4"/>
<!-- dot -->
<!-- git_push -->
<g id="node6" class="node"><title>git_push</title>
<polygon fill="lightyellow" stroke="black" points="238,-59 51,-59 51,-0 238,-0 238,-59"/>
<text text-anchor="start" x="75.5" y="-43.9" font-family="Verdana" font-weight="bold" font-size="12.00">Send the commit to a</text>
<text text-anchor="start" x="85" y="-26.9" font-family="Verdana" font-weight="bold" font-size="12.00">remote repository</text>
<text text-anchor="start" x="61.5" y="-8.9" font-family="Verdana" font-size="12.00">git push {origin} {master}</text>
</g>
<!-- dot&#45;&gt;git_push -->
<g id="edge6" class="edge"><title>dot&#45;&gt;git_push</title>
<path fill="none" stroke="black" d="M354.045,-29.5C318.088,-29.5 282.131,-29.5 246.174,-29.5"/>
<polygon fill="black" stroke="black" points="246.016,-26.7001 238.016,-29.5 246.016,-32.3001 246.016,-26.7001"/>
</g>
<!-- sharing_workflow -->
<g id="node2" class="node"><title>sharing_workflow</title>
<polygon fill="lightyellow" stroke="black" points="75.4029,-320.336 144.5,-301.031 213.597,-320.336 213.533,-351.571 75.4674,-351.571 75.4029,-320.336"/>
<text text-anchor="start" x="119" y="-332.369" font-family="Verdana" font-weight="bold" font-size="12.00">Sharing</text>
<text text-anchor="start" x="113" y="-320.369" font-family="Verdana" font-weight="bold" font-size="12.00">workflow</text>
</g>
<!-- git_pull -->
<g id="node5" class="node"><title>git_pull</title>
<polygon fill="lightyellow" stroke="black" points="289,-264 0,-264 0,-205 289,-205 289,-264"/>
<text text-anchor="start" x="10.5" y="-248.9" font-family="Verdana" font-weight="bold" font-size="12.00">Receive changes from remote repository</text>
<text text-anchor="start" x="60.5" y="-231.9" font-family="Verdana" font-weight="bold" font-size="12.00">to check possible conflicts</text>
<text text-anchor="start" x="65" y="-213.9" font-family="Verdana" font-size="12.00">git pull {origin} {master}</text>
</g>
<!-- sharing_workflow&#45;&gt;git_pull -->
<g id="edge1" class="edge"><title>sharing_workflow&#45;&gt;git_pull</title>
<path fill="none" stroke="black" d="M144.5,-300.725C144.5,-291.825 144.5,-281.789 144.5,-272.305"/>
<polygon fill="black" stroke="black" points="147.3,-272.156 144.5,-264.156 141.7,-272.156 147.3,-272.156"/>
</g>
<!-- fix_conflicts_workflow -->
<g id="node3" class="node"><title>fix_conflicts_workflow</title>
<polygon fill="lightyellow" stroke="black" points="279.166,-123.367 354.5,-104.062 429.834,-123.367 429.764,-154.602 279.236,-154.602 279.166,-123.367"/>
<text text-anchor="start" x="319.5" y="-135.4" font-family="Verdana" font-weight="bold" font-size="12.00">Fix conflict</text>
<text text-anchor="start" x="323" y="-123.4" font-family="Verdana" font-weight="bold" font-size="12.00">workflow</text>
</g>
<!-- fix_conflicts_workflow&#45;&gt;dot -->
<g id="edge5" class="edge"><title>fix_conflicts_workflow&#45;&gt;dot</title>
<path fill="none" stroke="black" d="M354.5,-103.803C354.5,-74.9699 354.5,-33.2078 354.5,-30.6258"/>
</g>
<!-- are_there_conflicts -->
<g id="node4" class="node"><title>are_there_conflicts</title>
<polygon fill="lightyellow" stroke="black" points="144.5,-168 81.2033,-132 144.5,-96 207.797,-132 144.5,-168"/>
<text text-anchor="start" x="112.5" y="-135.4" font-family="Verdana" font-weight="bold" font-size="12.00">Are there</text>
<text text-anchor="start" x="114" y="-123.4" font-family="Verdana" font-weight="bold" font-size="12.00">conflicts?</text>
</g>
<!-- are_there_conflicts&#45;&gt;fix_conflicts_workflow -->
<g id="edge4" class="edge"><title>are_there_conflicts&#45;&gt;fix_conflicts_workflow</title>
<path fill="none" stroke="black" d="M207.792,-132C227.71,-132 250.019,-132 271.112,-132"/>
<polygon fill="black" stroke="black" points="271.129,-134.8 279.129,-132 271.129,-129.2 271.129,-134.8"/>
<text text-anchor="start" x="231.991" y="-139.4" font-family="Verdana" font-weight="bold" font-size="12.00">yes</text>
</g>
<!-- are_there_conflicts&#45;&gt;git_push -->
<g id="edge3" class="edge"><title>are_there_conflicts&#45;&gt;git_push</title>
<path fill="none" stroke="black" d="M144.5,-95.85C144.5,-86.5687 144.5,-76.5297 144.5,-67.1703"/>
<polygon fill="black" stroke="black" points="147.3,-67.1563 144.5,-59.1564 141.7,-67.1564 147.3,-67.1563"/>
<text text-anchor="start" x="116.5" y="-85.9101" font-family="Verdana" font-weight="bold" font-size="12.00">no &#160;&#160;</text>
</g>
<!-- git_pull&#45;&gt;are_there_conflicts -->
<g id="edge2" class="edge"><title>git_pull&#45;&gt;are_there_conflicts</title>
<path fill="none" stroke="black" d="M144.5,-204.97C144.5,-195.993 144.5,-185.871 144.5,-176.115"/>
<polygon fill="black" stroke="black" points="147.3,-176.04 144.5,-168.04 141.7,-176.04 147.3,-176.04"/>
</g>
</g>
</svg>
