<?xml version="1.0" encoding="UTF-8" standalone="no"?>
<!DOCTYPE svg PUBLIC "-//W3C//DTD SVG 1.1//EN"
 "http://www.w3.org/Graphics/SVG/1.1/DTD/svg11.dtd">
<!-- Generated by graphviz version 2.38.0 (20140413.2041)
 -->
<!-- Title: sharingworkflow Pages: 1 -->
<svg width="520pt" height="357pt"
 viewBox="0.00 0.00 519.73 357.00" xmlns="http://www.w3.org/2000/svg" xmlns:xlink="http://www.w3.org/1999/xlink">
<g id="graph0" class="graph" transform="scale(1 1) rotate(0) translate(4 353)">
<title>sharingworkflow</title>
<polygon fill="white" stroke="none" points="-4,4 -4,-353 515.731,-353 515.731,4 -4,4"/>
<!-- share_commit -->
<g id="node1" class="node"><title>share_commit</title>
<polygon fill="lightyellow" stroke="black" points="0.144731,-325.438 146.855,-313 293.566,-325.438 293.429,-345.562 0.281667,-345.562 0.144731,-325.438"/>
<text text-anchor="start" x="58.3551" y="-328.9" font-family="Verdana" font-weight="bold" font-size="12.00">Share commit(s) workflow</text>
</g>
<!-- git_pull -->
<g id="node4" class="node"><title>git_pull</title>
<polygon fill="lightyellow" stroke="black" points="291.355,-276 2.35513,-276 2.35513,-217 291.355,-217 291.355,-276"/>
<text text-anchor="start" x="12.8551" y="-260.9" font-family="Verdana" font-weight="bold" font-size="12.00">Receive changes from remote repository</text>
<text text-anchor="start" x="62.8551" y="-243.9" font-family="Verdana" font-weight="bold" font-size="12.00">to check possible conflicts</text>
<text text-anchor="start" x="67.3551" y="-225.9" font-family="Verdana" font-size="12.00">git pull {origin} {master}</text>
</g>
<!-- share_commit&#45;&gt;git_pull -->
<g id="edge1" class="edge"><title>share_commit&#45;&gt;git_pull</title>
<path fill="none" stroke="black" d="M146.855,-312.906C146.855,-304.647 146.855,-294.392 146.855,-284.471"/>
<polygon fill="black" stroke="black" points="149.655,-284.268 146.855,-276.268 144.055,-284.268 149.655,-284.268"/>
</g>
<!-- fix_conflicts -->
<g id="node2" class="node"><title>fix_conflicts</title>
<polygon fill="lightyellow" stroke="black" points="250.103,-138.438 380.855,-126 511.607,-138.438 511.485,-158.562 250.225,-158.562 250.103,-138.438"/>
<text text-anchor="start" x="302.855" y="-141.9" font-family="Verdana" font-weight="bold" font-size="12.00">Fix conflict(s) workflow</text>
</g>
<!-- are_there_conflicts -->
<g id="node3" class="node"><title>are_there_conflicts</title>
<polygon fill="lightyellow" stroke="black" points="146.855,-180 83.5584,-144 146.855,-108 210.152,-144 146.855,-180"/>
<text text-anchor="start" x="114.855" y="-147.4" font-family="Verdana" font-weight="bold" font-size="12.00">Are there</text>
<text text-anchor="start" x="116.355" y="-135.4" font-family="Verdana" font-weight="bold" font-size="12.00">conflicts?</text>
</g>
<!-- are_there_conflicts&#45;&gt;fix_conflicts -->
<g id="edge4" class="edge"><title>are_there_conflicts:e&#45;&gt;fix_conflicts</title>
<path fill="none" stroke="black" d="M210.003,-144C210.003,-144 222.977,-144 241.753,-144"/>
<polygon fill="black" stroke="black" points="241.826,-146.8 249.826,-144 241.826,-141.2 241.826,-146.8"/>
<text text-anchor="middle" x="230.855" y="-158.4" font-family="Verdana" font-size="12.00">yes</text>
</g>
<!-- git_push -->
<g id="node5" class="node"><title>git_push</title>
<polygon fill="lightyellow" stroke="black" points="240.355,-59 53.3551,-59 53.3551,-0 240.355,-0 240.355,-59"/>
<text text-anchor="start" x="90.3551" y="-43.9" font-family="Verdana" font-weight="bold" font-size="12.00">Send commit to a</text>
<text text-anchor="start" x="87.3551" y="-26.9" font-family="Verdana" font-weight="bold" font-size="12.00">remote repository</text>
<text text-anchor="start" x="63.8551" y="-8.9" font-family="Verdana" font-size="12.00">git push {origin} {master}</text>
</g>
<!-- are_there_conflicts&#45;&gt;git_push -->
<g id="edge3" class="edge"><title>are_there_conflicts&#45;&gt;git_push</title>
<path fill="none" stroke="black" d="M146.855,-107.713C146.855,-94.9209 146.855,-80.4409 146.855,-67.505"/>
<polygon fill="black" stroke="black" points="149.655,-67.2604 146.855,-59.2605 144.055,-67.2605 149.655,-67.2604"/>
<text text-anchor="middle" x="154.855" y="-80.4" font-family="Verdana" font-size="12.00">no</text>
</g>
<!-- git_pull&#45;&gt;are_there_conflicts -->
<g id="edge2" class="edge"><title>git_pull&#45;&gt;are_there_conflicts</title>
<path fill="none" stroke="black" d="M146.855,-216.97C146.855,-207.993 146.855,-197.871 146.855,-188.115"/>
<polygon fill="black" stroke="black" points="149.655,-188.04 146.855,-180.04 144.055,-188.04 149.655,-188.04"/>
</g>
</g>
</svg>
