<?xml version="1.0" encoding="UTF-8" standalone="no"?>
<!DOCTYPE svg PUBLIC "-//W3C//DTD SVG 1.1//EN"
 "http://www.w3.org/Graphics/SVG/1.1/DTD/svg11.dtd">
<!-- Generated by graphviz version 2.38.0 (20140413.2041)
 -->
<!-- Title: sharingworkflow Pages: 1 -->
<svg width="406pt" height="377pt"
 viewBox="0.00 0.00 405.67 376.94" xmlns="http://www.w3.org/2000/svg" xmlns:xlink="http://www.w3.org/1999/xlink">
<g id="graph0" class="graph" transform="scale(1 1) rotate(0) translate(4 372.938)">
<title>sharingworkflow</title>
<polygon fill="white" stroke="none" points="-4,4 -4,-372.938 401.667,-372.938 401.667,4 -4,4"/>
<!-- sharing_workflow -->
<g id="node1" class="node"><title>sharing_workflow</title>
<polygon fill="lightyellow" stroke="black" points="75.4029,-332.336 144.5,-313.031 213.597,-332.336 213.533,-363.571 75.4674,-363.571 75.4029,-332.336"/>
<text text-anchor="start" x="119" y="-344.369" font-family="Verdana" font-weight="bold" font-size="12.00">Sharing</text>
<text text-anchor="start" x="113" y="-332.369" font-family="Verdana" font-weight="bold" font-size="12.00">workflow</text>
</g>
<!-- git_pull -->
<g id="node4" class="node"><title>git_pull</title>
<polygon fill="lightyellow" stroke="black" points="289,-276 0,-276 0,-217 289,-217 289,-276"/>
<text text-anchor="start" x="10.5" y="-260.9" font-family="Verdana" font-weight="bold" font-size="12.00">Receive changes from remote repository</text>
<text text-anchor="start" x="60.5" y="-243.9" font-family="Verdana" font-weight="bold" font-size="12.00">to check possible conflicts</text>
<text text-anchor="start" x="65" y="-225.9" font-family="Verdana" font-size="12.00">git pull {origin} {master}</text>
</g>
<!-- sharing_workflow&#45;&gt;git_pull -->
<g id="edge1" class="edge"><title>sharing_workflow&#45;&gt;git_pull</title>
<path fill="none" stroke="black" d="M144.5,-312.725C144.5,-303.825 144.5,-293.789 144.5,-284.305"/>
<polygon fill="black" stroke="black" points="147.3,-284.156 144.5,-276.156 141.7,-284.156 147.3,-284.156"/>
</g>
<!-- fix_conflicts_workflow -->
<g id="node2" class="node"><title>fix_conflicts_workflow</title>
<polygon fill="lightyellow" stroke="black" points="247.166,-135.367 322.5,-116.062 397.834,-135.367 397.764,-166.602 247.236,-166.602 247.166,-135.367"/>
<text text-anchor="start" x="287.5" y="-147.4" font-family="Verdana" font-weight="bold" font-size="12.00">Fix conflict</text>
<text text-anchor="start" x="291" y="-135.4" font-family="Verdana" font-weight="bold" font-size="12.00">workflow</text>
</g>
<!-- are_there_conflicts -->
<g id="node3" class="node"><title>are_there_conflicts</title>
<polygon fill="lightyellow" stroke="black" points="144.5,-180 81.2033,-144 144.5,-108 207.797,-144 144.5,-180"/>
<text text-anchor="start" x="112.5" y="-147.4" font-family="Verdana" font-weight="bold" font-size="12.00">Are there</text>
<text text-anchor="start" x="114" y="-135.4" font-family="Verdana" font-weight="bold" font-size="12.00">conflicts?</text>
</g>
<!-- are_there_conflicts&#45;&gt;fix_conflicts_workflow -->
<g id="edge4" class="edge"><title>are_there_conflicts:e&#45;&gt;fix_conflicts_workflow</title>
<path fill="none" stroke="black" d="M207.648,-144C207.648,-144 221.107,-144 238.77,-144"/>
<polygon fill="black" stroke="black" points="239.149,-146.8 247.148,-144 239.148,-141.2 239.149,-146.8"/>
<text text-anchor="middle" x="227.5" y="-158.4" font-family="Verdana" font-size="12.00">yes</text>
</g>
<!-- git_push -->
<g id="node5" class="node"><title>git_push</title>
<polygon fill="lightyellow" stroke="black" points="238,-59 51,-59 51,-0 238,-0 238,-59"/>
<text text-anchor="start" x="88" y="-43.9" font-family="Verdana" font-weight="bold" font-size="12.00">Send commit to a</text>
<text text-anchor="start" x="85" y="-26.9" font-family="Verdana" font-weight="bold" font-size="12.00">remote repository</text>
<text text-anchor="start" x="61.5" y="-8.9" font-family="Verdana" font-size="12.00">git push {origin} {master}</text>
</g>
<!-- are_there_conflicts&#45;&gt;git_push -->
<g id="edge3" class="edge"><title>are_there_conflicts&#45;&gt;git_push</title>
<path fill="none" stroke="black" d="M144.5,-107.713C144.5,-94.9209 144.5,-80.4409 144.5,-67.505"/>
<polygon fill="black" stroke="black" points="147.3,-67.2604 144.5,-59.2605 141.7,-67.2605 147.3,-67.2604"/>
<text text-anchor="middle" x="152.5" y="-80.4" font-family="Verdana" font-size="12.00">no</text>
</g>
<!-- git_pull&#45;&gt;are_there_conflicts -->
<g id="edge2" class="edge"><title>git_pull&#45;&gt;are_there_conflicts</title>
<path fill="none" stroke="black" d="M144.5,-216.97C144.5,-207.993 144.5,-197.871 144.5,-188.115"/>
<polygon fill="black" stroke="black" points="147.3,-188.04 144.5,-180.04 141.7,-188.04 147.3,-188.04"/>
</g>
</g>
</svg>
